<svg width="427" height="289" viewBox="0 0 427 289" fill="none" xmlns="http://www.w3.org/2000/svg">
<path d="M8 144.492C8 183.664 21.2253 216.05 58.6561 216.05C96.0868 216.05 124.334 177.297 143.549 144.492C125.382 107.101 96.0868 72.3689 58.6561 72.3689C21.2253 72.3689 8 105.32 8 144.492Z" fill="#D761A2"/>
<path d="M125.051 98.6741C140.889 134.501 166.079 158.775 200.314 143.642C234.549 128.508 244.716 81.6417 249.026 43.8694C217.293 17.0158 176.456 -2.90622 142.221 12.2277C107.986 27.3616 109.213 62.8469 125.051 98.6741Z" fill="#D761A2"/>
<path d="M123.912 189.326C139.75 153.499 164.94 129.225 199.175 144.358C233.41 159.492 243.577 206.358 247.887 244.131C216.154 270.984 175.317 290.906 141.082 275.772C106.847 260.638 108.074 225.153 123.912 189.326Z" fill="#D761A2"/>
<path d="M298.813 28.9933C365.78 28.9933 420.068 79.9705 420.068 142.854C420.068 205.738 365.78 256.715 298.813 256.715C231.846 256.715 86.6182 228.912 86.6182 142.854C93.2872 76.656 231.846 28.9933 298.813 28.9933Z" fill="#E495C0"/>
<path d="M160.458 202.634C148.234 182.802 146.575 161.197 170.485 146.459C194.395 131.721 224.533 140.22 247.045 149.263C247.109 175.347 239.235 204.466 215.325 219.204C191.414 233.942 172.683 222.467 160.458 202.634Z" fill="#D761A2"/>
<path d="M346.872 111.678C346.872 116.918 344.444 121.166 341.45 121.166C338.455 121.166 336.028 116.918 336.028 111.678C336.028 106.438 338.455 102.19 341.45 102.19C344.444 102.19 346.872 106.438 346.872 111.678Z" fill="white"/>
<path d="M58.6561 218.05C77.027 218.05 93.1199 209.063 106.927 196.288C109.719 199.247 112.727 202.08 115.923 204.792C112.023 217.325 110.296 229.549 111.737 240.568C113.818 256.487 122.503 269.746 140.274 277.602C157.995 285.435 177.315 284.139 196.082 277.585C211.156 272.321 225.968 263.635 239.5 253.407C261.745 257.09 282.563 258.715 298.813 258.715C366.765 258.715 422.068 206.959 422.068 142.854C422.068 78.7493 366.765 26.9933 298.813 26.9933C282.656 26.9933 262.432 29.7314 240.914 34.8013C227.308 24.4829 212.397 15.7152 197.221 10.4151C178.454 3.86057 159.134 2.56452 141.412 10.3984C123.642 18.2541 114.957 31.5133 112.876 47.4316C111.2 60.2495 113.81 74.6961 119.14 89.3637C116.718 91.3181 114.392 93.3098 112.172 95.3375C111.354 94.5262 110.528 93.7296 109.693 92.9485C95.1781 79.3657 78.0317 70.3689 58.6561 70.3689C39.2267 70.3689 25.9223 78.9845 17.5826 92.7021C9.32552 106.284 6 124.737 6 144.492C6 164.247 9.32525 182.564 17.5876 196.008C25.9344 209.59 39.2416 218.05 58.6561 218.05Z" stroke="white" stroke-width="4"/>
<path d="M368.559 170.281C375.346 178.164 392.764 189.175 408.148 170.152" stroke="white" stroke-width="3" stroke-linecap="round"/>
</svg>
