<svg width="323" height="238" viewBox="0 0 323 238" fill="none" xmlns="http://www.w3.org/2000/svg">
<path d="M70.435 104.382L74.4621 84.1896L89.4427 96.4657L70.435 104.382Z" fill="white"/>
<path d="M75.9795 161.444L87.1539 178.739L67.8541 180.364L75.9795 161.444Z" fill="white"/>
<path d="M86.6163 120.019L90.6434 99.8266L105.624 112.103L86.6163 120.019Z" fill="white"/>
<path d="M51.97 161.386L63.4008 178.513L44.1274 180.425L51.97 161.386Z" fill="white"/>
<path d="M101.647 137.783L105.674 117.59L120.654 129.866L101.647 137.783Z" fill="white"/>
<path d="M29.1877 162.371L39.3904 180.256L20.0303 180.813L29.1877 162.371Z" fill="white"/>
<path d="M127.975 58.8844C127.975 58.8844 111.578 23.3582 89.033 14.4766C66.4875 5.59509 41.2095 6.96123 28.2288 22.6747C15.2482 38.3883 19.8027 55.6962 24.8128 58.8844" stroke="white" stroke-width="6"/>
<path d="M246.856 69.0785C252.499 73.9888 254.373 128.183 240.039 144.658C225.704 161.133 215.425 168.097 199.837 169.968C175.233 172.922 162.366 158.586 157.135 136.74C155.137 113.712 154.205 105.919 164.722 93.8315C179.057 77.3566 241.213 64.1683 246.856 69.0785Z" fill="#373998"/>
<path d="M307.656 140.868C307.656 148.348 324.268 185.959 302.43 185.959C272.13 179.81 266.297 181.754 254.653 171.223C236.274 154.599 238.643 135.482 251.691 117.197C267.752 100.573 266.664 104.658 302.43 95.0935C324.268 95.0935 307.656 133.387 307.656 140.868Z" fill="#373998"/>
<path d="M246.139 214.13C242.05 220.394 188.627 229.691 170.34 217.754C152.053 205.817 143.743 196.592 139.749 181.409C133.446 157.442 145.879 142.729 166.8 134.549C189.336 129.408 196.928 127.415 210.344 136.173C228.631 148.11 250.228 207.866 246.139 214.13Z" fill="#373998"/>
<path d="M286.477 142.917C285.259 159.485 266.835 166.455 246.168 179.127C208.885 201.987 220.89 224.901 99.9644 229C58.9607 229 -18.2286 177.077 45.3086 177.077C61.502 177.077 136.035 187.659 141.639 179.127C138.906 136.085 97.2315 98.5096 73.3196 86.8952C63.069 64.5705 116.427 55.4682 130.219 55.4682C212.692 50.6858 206.547 85.1346 247.535 110.807C266.215 122.508 281.343 127.089 286.477 142.917Z" fill="#7E8CD4"/>
<path d="M151.204 86.212C151.204 91.8717 146.616 96.4599 140.956 96.4599C135.296 96.4599 130.708 91.8717 130.708 86.212C130.708 80.5522 135.296 75.964 140.956 75.964C146.616 75.964 151.204 80.5522 151.204 86.212Z" fill="white"/>
<path d="M113.896 122.519C123.879 134.301 132.367 148.084 136.699 162.865C135.789 167.825 135.909 173.296 137.189 179.293C136.872 179.375 136.528 179.453 136.159 179.528C133.72 180.021 130.419 180.304 126.449 180.407C118.525 180.612 108.259 180.096 97.5924 179.307C88.6098 178.643 79.3933 177.79 71.1112 177.023C69.5681 176.88 68.0574 176.741 66.5867 176.606C57.2788 175.751 49.4717 175.077 45.3086 175.077C37.2707 175.077 31.2575 175.893 27.0474 177.429C22.8364 178.966 20.0582 181.383 19.3233 184.765C18.6162 188.019 19.9774 191.451 22.2333 194.657C24.5284 197.918 27.9948 201.301 32.1961 204.61C40.612 211.238 52.2911 217.817 64.4398 222.741C76.5675 227.656 89.3516 231 99.9644 231H99.9983L100.032 230.999C135.588 229.794 159.792 226.964 177.199 222.941C180.828 224.016 184.895 224.703 189.138 225.096C196.945 225.82 205.599 225.574 213.763 224.758C221.928 223.941 229.669 222.548 235.658 220.95C238.648 220.153 241.248 219.291 243.264 218.405C244.271 217.962 245.172 217.495 245.917 217.004C246.635 216.53 247.342 215.947 247.814 215.224C248.344 214.412 248.535 213.41 248.606 212.511C248.681 211.561 248.639 210.461 248.515 209.265C248.265 206.868 247.659 203.865 246.779 200.482C245.562 195.808 243.796 190.307 241.632 184.498C243.369 183.277 245.219 182.055 247.214 180.832C250.37 178.897 253.466 177.1 256.47 175.372C261.139 179.007 265.319 180.805 271.081 182.18C274.425 182.977 278.32 183.638 283.115 184.452L283.485 184.515C288.471 185.361 294.491 186.388 302.033 187.919L302.229 187.959H302.43C305.447 187.959 307.972 187.307 310 186.014C312.037 184.715 313.421 182.865 314.307 180.732C316.035 176.572 315.935 171.185 315.214 165.946C314.483 160.639 313.058 155.126 311.843 150.555C311.755 150.223 311.668 149.895 311.582 149.574C311.074 147.665 310.619 145.956 310.274 144.494C309.858 142.733 309.656 141.54 309.656 140.868C309.656 140.194 309.859 138.988 310.275 137.208C310.616 135.745 311.065 134.038 311.566 132.13C311.657 131.782 311.751 131.427 311.845 131.066C313.06 126.431 314.484 120.834 315.214 115.444C315.935 110.12 316.033 104.655 314.311 100.438C313.429 98.2776 312.051 96.3983 310.014 95.076C307.984 93.7584 305.454 93.0935 302.43 93.0935H302.167L301.914 93.1614C293.729 95.3503 287.484 96.821 282.504 97.9937C282.064 98.0974 281.634 98.1987 281.213 98.2981C276.062 99.5134 272.223 100.445 268.989 101.618C263.364 103.659 259.628 106.421 253.764 112.237C253.298 111.964 252.83 111.688 252.359 111.407C252.637 108.464 252.827 105.51 252.938 102.608C253.25 94.4074 252.933 86.5489 252.172 80.3971C251.793 77.3262 251.297 74.6321 250.695 72.5138C250.395 71.4554 250.056 70.499 249.672 69.6938C249.301 68.9173 248.82 68.1365 248.169 67.5697C247.438 66.9337 246.472 66.6068 245.591 66.413C244.66 66.2083 243.564 66.0987 242.362 66.0578C239.954 65.9758 236.896 66.164 233.424 66.5715C226.467 67.388 217.627 69.1118 208.54 71.5013C208.226 71.5838 207.912 71.667 207.598 71.7511C206.972 71.2132 206.336 70.683 205.69 70.1611C191.286 58.5278 171.662 51.0695 130.16 53.4682C122.997 53.4809 106.03 55.7988 92.0635 60.9327C85.0817 63.4991 78.5906 66.8599 74.4932 71.1922C72.4222 73.3819 70.8991 75.8869 70.2992 78.721C69.6945 81.5775 70.0643 84.5985 71.5021 87.7298L71.8011 88.3811L72.4458 88.6942C84.1208 94.3649 100.303 106.477 113.896 122.519Z" stroke="white" stroke-width="4"/>
<circle cx="20.7135" cy="58.8841" r="15.7135" fill="#FFDD53"/>
<path d="M70 85C70 85 95.1819 101.242 113.628 121.055C132.074 140.868 143.006 177.76 137.54 177.76C132.074 177.76 23.4463 180.493 23.4463 180.493" stroke="white" stroke-width="9" stroke-linecap="round"/>
</svg>
