<svg width="368" height="418" viewBox="0 0 368 418" fill="none" xmlns="http://www.w3.org/2000/svg">
<g clip-path="url(#clip0_145_122)">
<mask id="path-1-outside-1_145_122" maskUnits="userSpaceOnUse" x="26" y="26" width="1075" height="369" fill="black">
<rect fill="white" x="26" y="26" width="1075" height="369"/>
<path d="M108.054 145.168C88.2374 156.192 63.0649 149.366 51.8297 129.922C40.5945 110.478 38.651 70.377 58.4675 59.3531C78.2841 48.3293 112.357 70.5576 123.592 90.0014C134.827 109.445 127.871 134.144 108.054 145.168Z"/>
<path d="M271.042 137.636C290.859 148.659 316.031 141.834 327.266 122.39C338.502 102.946 340.445 62.8448 320.628 51.821C300.812 40.7972 266.739 63.0255 255.504 82.4692C244.269 101.913 251.225 126.612 271.042 137.636Z"/>
<path d="M306.646 193.802C306.646 275.959 251.901 342.561 184.369 342.561C116.837 342.561 62.0915 275.959 62.0915 193.802C62.0915 111.644 116.837 45.0419 184.369 45.0419C251.901 45.0419 306.646 111.644 306.646 193.802Z"/>
<path d="M77.9114 198.514L172.704 278.277C172.704 278.277 101.938 291.169 98.0051 288.149C94.0717 285.129 49.8637 349.152 42.9857 337.705C36.1077 326.258 77.9114 198.514 77.9114 198.514Z"/>
<path d="M285.281 194.748L190.488 274.511C190.488 274.511 261.253 287.403 265.187 284.383C269.12 281.363 313.328 345.386 320.206 333.939C327.084 322.492 285.281 194.748 285.281 194.748Z"/>
<path d="M112.71 158.118L192.889 238.076L89.5244 250.399C89.5244 250.399 34.8309 291.719 32.1481 282.411C29.4653 273.102 64.1283 212.739 64.1283 212.739L112.71 158.118Z"/>
<path d="M111.126 244.757L223.622 257.439L171.576 311.705C171.576 311.705 164.758 389.803 154.524 389.036C144.29 388.27 111.126 244.757 111.126 244.757Z"/>
<path d="M252.634 244.757L140.138 257.439L192.184 311.705C192.184 311.705 199.002 389.803 209.236 389.036C219.47 388.27 252.634 244.757 252.634 244.757Z"/>
<path d="M83.5935 232.109L178.72 237.781C178.72 237.781 136.804 280.033 121.035 316.199C111.126 338.926 112.252 378.524 103.181 378.426C94.111 378.329 83.9624 305.239 83.9624 305.239L83.5935 232.109Z"/>
<path d="M256.29 156.235L176.111 236.193L279.476 248.516C279.476 248.516 334.169 289.836 336.852 280.528C339.535 271.219 304.872 210.856 304.872 210.856L256.29 156.235Z"/>
<path d="M278.943 232.109L183.816 237.781C183.816 237.781 225.733 280.033 241.502 316.199C251.411 338.926 250.285 378.524 259.355 378.426C268.426 378.329 278.574 305.239 278.574 305.239L278.943 232.109Z"/>
<path d="M100.061 188.451C102.941 200.359 100.276 211.017 94.1103 212.257C87.9441 213.497 80.6113 204.849 77.7319 192.942C74.8525 181.034 77.517 170.376 83.6831 169.136C89.8492 167.896 97.1821 176.544 100.061 188.451Z"/>
<path d="M268.592 188.999C265.713 200.907 268.377 211.565 274.544 212.805C280.71 214.045 288.043 205.397 290.922 193.49C293.801 181.582 291.137 170.924 284.971 169.684C278.805 168.444 271.472 177.092 268.592 188.999Z"/>
<path d="M169.319 227.696C169.319 233.19 170.905 238.458 173.727 242.343C176.55 246.227 180.377 248.41 184.369 248.41C188.36 248.41 192.188 246.227 195.01 242.343C197.833 238.458 199.418 233.19 199.418 227.696H169.319Z"/>
<path d="M482.671 145.168C462.854 156.192 449.981 157.08 438.745 137.636C427.51 118.192 414.3 41.5656 434.117 30.5418C453.934 19.518 486.974 70.5577 498.209 90.0014C509.444 109.445 502.488 134.144 482.671 145.168Z"/>
<path d="M681.263 193.802C681.263 275.959 626.518 342.561 558.986 342.561C491.454 342.561 436.708 275.959 436.708 193.802C436.708 111.644 491.454 45.0418 558.986 45.0418C626.518 45.0418 681.263 111.644 681.263 193.802Z"/>
<path d="M452.528 198.514L547.321 278.277C547.321 278.277 476.555 291.169 472.622 288.149C468.689 285.129 411.995 327.646 405.117 316.199C398.239 304.752 452.528 198.514 452.528 198.514Z"/>
<path d="M659.898 194.748L565.105 274.511C565.105 274.511 635.87 287.403 639.804 284.383C643.737 281.363 705.239 323.152 712.117 311.705C718.995 300.258 659.898 194.748 659.898 194.748Z"/>
<path d="M487.327 158.118L567.506 238.076L464.141 250.399C464.141 250.399 397.183 247.384 394.5 238.076C391.817 228.767 438.745 212.739 438.745 212.739L487.327 158.118Z"/>
<path d="M485.743 244.757L598.239 257.439L546.193 311.705C546.193 311.705 518.351 389.803 508.117 389.036C497.883 388.27 485.743 244.757 485.743 244.757Z"/>
<path d="M627.251 244.757L514.755 257.439L566.801 311.705C566.801 311.705 601.883 389.803 612.117 389.036C622.351 388.27 627.251 244.757 627.251 244.757Z"/>
<path d="M458.21 232.109L553.337 237.781C553.337 237.781 511.421 280.033 495.652 316.199C485.743 338.926 455.187 368.639 446.117 368.542C437.047 368.444 458.3 294.636 458.3 294.636L458.21 232.109Z"/>
<path d="M630.907 156.235L550.728 236.193L654.093 248.516C654.093 248.516 727.317 247.384 730 238.076C732.683 228.767 679.489 210.856 679.489 210.856L630.907 156.235Z"/>
<path d="M653.56 232.109L558.433 237.781C558.433 237.781 600.35 280.033 616.119 316.199C626.028 338.926 664.047 368.639 673.117 368.542C682.187 368.444 652.653 289.432 652.653 289.432L653.56 232.109Z"/>
<path d="M474.678 188.451C477.558 200.359 474.893 211.017 468.727 212.257C462.561 213.497 455.228 204.849 452.349 192.942C449.47 181.034 452.134 170.376 458.3 169.136C464.466 167.896 465.5 179.042 474.678 188.451Z"/>
<path d="M543.936 227.696C543.936 233.19 545.522 238.458 548.344 242.343C551.167 246.227 554.994 248.41 558.986 248.41C562.977 248.41 566.805 246.227 569.627 242.343C572.45 238.458 574.035 233.19 574.035 227.696H543.936Z"/>
<path d="M482.671 145.168C462.854 156.192 449.981 157.08 438.745 137.636C427.51 118.192 414.3 41.5656 434.117 30.5418C453.934 19.518 486.974 70.5577 498.209 90.0014C509.444 109.445 502.488 134.144 482.671 145.168Z"/>
<path d="M631.549 145.168C651.365 156.192 664.239 157.079 675.474 137.636C686.709 118.192 699.919 41.5656 680.102 30.5418C660.286 19.518 627.246 70.5576 616.011 90.0014C604.775 109.445 611.732 134.144 631.549 145.168Z"/>
<path d="M631.549 145.168C651.365 156.192 664.239 157.079 675.474 137.636C686.709 118.192 699.919 41.5656 680.102 30.5418C660.286 19.518 627.246 70.5576 616.011 90.0014C604.775 109.445 611.732 134.144 631.549 145.168Z"/>
<path d="M643.209 188.999C640.33 200.907 642.994 211.565 649.161 212.805C655.327 214.045 662.66 205.397 665.539 193.489C668.418 181.582 665.754 170.924 659.588 169.684C653.422 168.444 652.388 179.59 643.209 188.999Z"/>
<path d="M857.872 145.168C838.056 156.192 839.343 150.042 801.648 129.922C781.966 116.542 762.15 104.566 781.966 93.5419C801.783 82.5181 862.175 70.5576 873.41 90.0014C884.645 109.445 877.689 134.144 857.872 145.168Z"/>
<path d="M1056.46 193.802C1056.46 275.959 1001.72 342.561 934.187 342.561C866.655 342.561 811.91 275.959 811.91 193.802C811.91 111.644 866.655 45.0419 934.187 45.0419C1001.72 45.0419 1056.46 111.644 1056.46 193.802Z"/>
<path d="M827.73 198.514L922.523 278.277C922.523 278.277 851.757 291.169 847.823 288.149C843.89 285.129 827.633 359.989 820.755 348.542C813.877 337.095 827.73 198.514 827.73 198.514Z"/>
<path d="M1035.1 194.748L940.306 274.511C940.306 274.511 1011.07 287.403 1015.01 284.383C1018.94 281.363 1037.88 359.989 1044.75 348.542C1051.63 337.095 1035.1 194.748 1035.1 194.748Z"/>
<path d="M862.528 158.118L942.707 238.076L839.343 250.399C839.343 250.399 804.331 314.547 801.648 305.239C798.965 295.93 813.947 212.739 813.947 212.739L862.528 158.118Z"/>
<path d="M860.945 244.757L973.44 257.439L921.394 311.705C921.394 311.705 929.372 389.803 919.138 389.036C908.903 388.27 860.945 244.757 860.945 244.757Z"/>
<path d="M1002.45 244.757L889.957 257.439L942.002 311.705C942.002 311.705 939.002 389.803 949.237 389.036C959.471 388.27 1002.45 244.757 1002.45 244.757Z"/>
<path d="M833.412 232.109L928.539 237.781C928.539 237.781 893.023 284.376 877.255 320.542C867.346 343.269 886.325 381.139 877.255 381.042C868.184 380.944 833.781 305.239 833.781 305.239L833.412 232.109Z"/>
<path d="M1006.11 156.235L925.93 236.193L1029.29 248.516C1029.29 248.516 1064.64 314.547 1067.32 305.239C1070 295.93 1054.69 210.856 1054.69 210.856L1006.11 156.235Z"/>
<path d="M1028.76 232.109L933.635 237.781C933.635 237.781 971.986 280.376 987.755 316.542C997.664 339.269 982.25 381.139 991.32 381.042C1000.39 380.944 1028.39 305.239 1028.39 305.239L1028.76 232.109Z"/>
<path d="M849.88 188.451C852.759 200.359 844.404 184.188 838.237 185.428C832.071 186.668 830.43 204.849 827.55 192.942C824.671 181.034 827.335 170.376 833.501 169.136C839.668 167.896 847 176.544 849.88 188.451Z"/>
<path d="M919.138 227.696C919.138 233.19 920.723 238.458 923.546 242.343C926.368 246.227 930.196 248.41 934.187 248.41C938.179 248.41 942.006 246.227 944.829 242.343C947.651 238.458 949.237 233.19 949.237 227.696H919.138Z"/>
<path d="M1011.09 145.168C1030.91 156.192 1029.62 150.042 1067.32 129.922C1087 116.542 1106.82 104.566 1087 93.5419C1067.18 82.5181 1006.79 70.5576 995.556 90.0014C984.321 109.445 991.277 134.144 1011.09 145.168Z"/>
<path d="M1018.41 188.999C1015.53 200.907 1023.89 184.736 1030.05 185.976C1036.22 187.216 1037.86 205.397 1040.74 193.49C1043.62 181.582 1040.96 170.924 1034.79 169.684C1028.62 168.444 1021.29 177.092 1018.41 188.999Z"/>
</mask>
<path d="M108.054 145.168C88.2374 156.192 63.0649 149.366 51.8297 129.922C40.5945 110.478 38.651 70.377 58.4675 59.3531C78.2841 48.3293 112.357 70.5576 123.592 90.0014C134.827 109.445 127.871 134.144 108.054 145.168Z" fill="#F7D7F8"/>
<path d="M271.042 137.636C290.859 148.659 316.031 141.834 327.266 122.39C338.502 102.946 340.445 62.8448 320.628 51.821C300.812 40.7972 266.739 63.0255 255.504 82.4692C244.269 101.913 251.225 126.612 271.042 137.636Z" fill="#F7D7F8"/>
<path d="M306.646 193.802C306.646 275.959 251.901 342.561 184.369 342.561C116.837 342.561 62.0915 275.959 62.0915 193.802C62.0915 111.644 116.837 45.0419 184.369 45.0419C251.901 45.0419 306.646 111.644 306.646 193.802Z" fill="#F7D7F8"/>
<path d="M77.9114 198.514L172.704 278.277C172.704 278.277 101.938 291.169 98.0051 288.149C94.0717 285.129 49.8637 349.152 42.9857 337.705C36.1077 326.258 77.9114 198.514 77.9114 198.514Z" fill="#F7D7F8"/>
<path d="M285.281 194.748L190.488 274.511C190.488 274.511 261.253 287.403 265.187 284.383C269.12 281.363 313.328 345.386 320.206 333.939C327.084 322.492 285.281 194.748 285.281 194.748Z" fill="#F7D7F8"/>
<path d="M112.71 158.118L192.889 238.076L89.5244 250.399C89.5244 250.399 34.8309 291.719 32.1481 282.411C29.4653 273.102 64.1283 212.739 64.1283 212.739L112.71 158.118Z" fill="#F7D7F8"/>
<path d="M111.126 244.757L223.622 257.439L171.576 311.705C171.576 311.705 164.758 389.803 154.524 389.036C144.29 388.27 111.126 244.757 111.126 244.757Z" fill="#F7D7F8"/>
<path d="M252.634 244.757L140.138 257.439L192.184 311.705C192.184 311.705 199.002 389.803 209.236 389.036C219.47 388.27 252.634 244.757 252.634 244.757Z" fill="#F7D7F8"/>
<path d="M83.5935 232.109L178.72 237.781C178.72 237.781 136.804 280.033 121.035 316.199C111.126 338.926 112.252 378.524 103.181 378.426C94.111 378.329 83.9624 305.239 83.9624 305.239L83.5935 232.109Z" fill="#F7D7F8"/>
<path d="M256.29 156.235L176.111 236.193L279.476 248.516C279.476 248.516 334.169 289.836 336.852 280.528C339.535 271.219 304.872 210.856 304.872 210.856L256.29 156.235Z" fill="#F7D7F8"/>
<path d="M278.943 232.109L183.816 237.781C183.816 237.781 225.733 280.033 241.502 316.199C251.411 338.926 250.285 378.524 259.355 378.426C268.426 378.329 278.574 305.239 278.574 305.239L278.943 232.109Z" fill="#F7D7F8"/>
<path d="M100.061 188.451C102.941 200.359 100.276 211.017 94.1103 212.257C87.9441 213.497 80.6113 204.849 77.7319 192.942C74.8525 181.034 77.517 170.376 83.6831 169.136C89.8492 167.896 97.1821 176.544 100.061 188.451Z" fill="#6E6E6E"/>
<path d="M268.592 188.999C265.713 200.907 268.377 211.565 274.544 212.805C280.71 214.045 288.043 205.397 290.922 193.49C293.801 181.582 291.137 170.924 284.971 169.684C278.805 168.444 271.472 177.092 268.592 188.999Z" fill="#6E6E6E"/>
<path d="M169.319 227.696C169.319 233.19 170.905 238.458 173.727 242.343C176.55 246.227 180.377 248.41 184.369 248.41C188.36 248.41 192.188 246.227 195.01 242.343C197.833 238.458 199.418 233.19 199.418 227.696H169.319Z" fill="#F2A3C8"/>
<path d="M482.671 145.168C462.854 156.192 449.981 157.08 438.745 137.636C427.51 118.192 414.3 41.5656 434.117 30.5418C453.934 19.518 486.974 70.5577 498.209 90.0014C509.444 109.445 502.488 134.144 482.671 145.168Z" fill="#F7D7F8"/>
<path d="M681.263 193.802C681.263 275.959 626.518 342.561 558.986 342.561C491.454 342.561 436.708 275.959 436.708 193.802C436.708 111.644 491.454 45.0418 558.986 45.0418C626.518 45.0418 681.263 111.644 681.263 193.802Z" fill="#F7D7F8"/>
<path d="M452.528 198.514L547.321 278.277C547.321 278.277 476.555 291.169 472.622 288.149C468.689 285.129 411.995 327.646 405.117 316.199C398.239 304.752 452.528 198.514 452.528 198.514Z" fill="#F7D7F8"/>
<path d="M659.898 194.748L565.105 274.511C565.105 274.511 635.87 287.403 639.804 284.383C643.737 281.363 705.239 323.152 712.117 311.705C718.995 300.258 659.898 194.748 659.898 194.748Z" fill="#F7D7F8"/>
<path d="M487.327 158.118L567.506 238.076L464.141 250.399C464.141 250.399 397.183 247.384 394.5 238.076C391.817 228.767 438.745 212.739 438.745 212.739L487.327 158.118Z" fill="#F7D7F8"/>
<path d="M485.743 244.757L598.239 257.439L546.193 311.705C546.193 311.705 518.351 389.803 508.117 389.036C497.883 388.27 485.743 244.757 485.743 244.757Z" fill="#F7D7F8"/>
<path d="M627.251 244.757L514.755 257.439L566.801 311.705C566.801 311.705 601.883 389.803 612.117 389.036C622.351 388.27 627.251 244.757 627.251 244.757Z" fill="#F7D7F8"/>
<path d="M458.21 232.109L553.337 237.781C553.337 237.781 511.421 280.033 495.652 316.199C485.743 338.926 455.187 368.639 446.117 368.542C437.047 368.444 458.3 294.636 458.3 294.636L458.21 232.109Z" fill="#F7D7F8"/>
<path d="M630.907 156.235L550.728 236.193L654.093 248.516C654.093 248.516 727.317 247.384 730 238.076C732.683 228.767 679.489 210.856 679.489 210.856L630.907 156.235Z" fill="#F7D7F8"/>
<path d="M653.56 232.109L558.433 237.781C558.433 237.781 600.35 280.033 616.119 316.199C626.028 338.926 664.047 368.639 673.117 368.542C682.187 368.444 652.653 289.432 652.653 289.432L653.56 232.109Z" fill="#F7D7F8"/>
<path d="M474.678 188.451C477.558 200.359 474.893 211.017 468.727 212.257C462.561 213.497 455.228 204.849 452.349 192.942C449.47 181.034 452.134 170.376 458.3 169.136C464.466 167.896 465.5 179.042 474.678 188.451Z" fill="#6E6E6E"/>
<path d="M543.936 227.696C543.936 233.19 545.522 238.458 548.344 242.343C551.167 246.227 554.994 248.41 558.986 248.41C562.977 248.41 566.805 246.227 569.627 242.343C572.45 238.458 574.035 233.19 574.035 227.696H543.936Z" fill="#F2A3C8"/>
<path d="M482.671 145.168C462.854 156.192 449.981 157.08 438.745 137.636C427.51 118.192 414.3 41.5656 434.117 30.5418C453.934 19.518 486.974 70.5577 498.209 90.0014C509.444 109.445 502.488 134.144 482.671 145.168Z" fill="#F7D7F8"/>
<path d="M631.549 145.168C651.365 156.192 664.239 157.079 675.474 137.636C686.709 118.192 699.919 41.5656 680.102 30.5418C660.286 19.518 627.246 70.5576 616.011 90.0014C604.775 109.445 611.732 134.144 631.549 145.168Z" fill="#F7D7F8"/>
<path d="M631.549 145.168C651.365 156.192 664.239 157.079 675.474 137.636C686.709 118.192 699.919 41.5656 680.102 30.5418C660.286 19.518 627.246 70.5576 616.011 90.0014C604.775 109.445 611.732 134.144 631.549 145.168Z" fill="#F7D7F8"/>
<path d="M643.209 188.999C640.33 200.907 642.994 211.565 649.161 212.805C655.327 214.045 662.66 205.397 665.539 193.489C668.418 181.582 665.754 170.924 659.588 169.684C653.422 168.444 652.388 179.59 643.209 188.999Z" fill="#6E6E6E"/>
<path d="M857.872 145.168C838.056 156.192 839.343 150.042 801.648 129.922C781.966 116.542 762.15 104.566 781.966 93.5419C801.783 82.5181 862.175 70.5576 873.41 90.0014C884.645 109.445 877.689 134.144 857.872 145.168Z" fill="#F7D7F8"/>
<path d="M1056.46 193.802C1056.46 275.959 1001.72 342.561 934.187 342.561C866.655 342.561 811.91 275.959 811.91 193.802C811.91 111.644 866.655 45.0419 934.187 45.0419C1001.72 45.0419 1056.46 111.644 1056.46 193.802Z" fill="#F7D7F8"/>
<path d="M827.73 198.514L922.523 278.277C922.523 278.277 851.757 291.169 847.823 288.149C843.89 285.129 827.633 359.989 820.755 348.542C813.877 337.095 827.73 198.514 827.73 198.514Z" fill="#F7D7F8"/>
<path d="M1035.1 194.748L940.306 274.511C940.306 274.511 1011.07 287.403 1015.01 284.383C1018.94 281.363 1037.88 359.989 1044.75 348.542C1051.63 337.095 1035.1 194.748 1035.1 194.748Z" fill="#F7D7F8"/>
<path d="M862.528 158.118L942.707 238.076L839.343 250.399C839.343 250.399 804.331 314.547 801.648 305.239C798.965 295.93 813.947 212.739 813.947 212.739L862.528 158.118Z" fill="#F7D7F8"/>
<path d="M860.945 244.757L973.44 257.439L921.394 311.705C921.394 311.705 929.372 389.803 919.138 389.036C908.903 388.27 860.945 244.757 860.945 244.757Z" fill="#F7D7F8"/>
<path d="M1002.45 244.757L889.957 257.439L942.002 311.705C942.002 311.705 939.002 389.803 949.237 389.036C959.471 388.27 1002.45 244.757 1002.45 244.757Z" fill="#F7D7F8"/>
<path d="M833.412 232.109L928.539 237.781C928.539 237.781 893.023 284.376 877.255 320.542C867.346 343.269 886.325 381.139 877.255 381.042C868.184 380.944 833.781 305.239 833.781 305.239L833.412 232.109Z" fill="#F7D7F8"/>
<path d="M1006.11 156.235L925.93 236.193L1029.29 248.516C1029.29 248.516 1064.64 314.547 1067.32 305.239C1070 295.93 1054.69 210.856 1054.69 210.856L1006.11 156.235Z" fill="#F7D7F8"/>
<path d="M1028.76 232.109L933.635 237.781C933.635 237.781 971.986 280.376 987.755 316.542C997.664 339.269 982.25 381.139 991.32 381.042C1000.39 380.944 1028.39 305.239 1028.39 305.239L1028.76 232.109Z" fill="#F7D7F8"/>
<path d="M849.88 188.451C852.759 200.359 844.404 184.188 838.237 185.428C832.071 186.668 830.43 204.849 827.55 192.942C824.671 181.034 827.335 170.376 833.501 169.136C839.668 167.896 847 176.544 849.88 188.451Z" fill="#6E6E6E"/>
<path d="M919.138 227.696C919.138 233.19 920.723 238.458 923.546 242.343C926.368 246.227 930.196 248.41 934.187 248.41C938.179 248.41 942.006 246.227 944.829 242.343C947.651 238.458 949.237 233.19 949.237 227.696H919.138Z" fill="#F2A3C8"/>
<path d="M1011.09 145.168C1030.91 156.192 1029.62 150.042 1067.32 129.922C1087 116.542 1106.82 104.566 1087 93.5419C1067.18 82.5181 1006.79 70.5576 995.556 90.0014C984.321 109.445 991.277 134.144 1011.09 145.168Z" fill="#F7D7F8"/>
<path d="M1018.41 188.999C1015.53 200.907 1023.89 184.736 1030.05 185.976C1036.22 187.216 1037.86 205.397 1040.74 193.49C1043.62 181.582 1040.96 170.924 1034.79 169.684C1028.62 168.444 1021.29 177.092 1018.41 188.999Z" fill="#6E6E6E"/>
<path d="M108.054 145.168C88.2374 156.192 63.0649 149.366 51.8297 129.922C40.5945 110.478 38.651 70.377 58.4675 59.3531C78.2841 48.3293 112.357 70.5576 123.592 90.0014C134.827 109.445 127.871 134.144 108.054 145.168Z" stroke="white" stroke-width="10" mask="url(#path-1-outside-1_145_122)"/>
<path d="M271.042 137.636C290.859 148.659 316.031 141.834 327.266 122.39C338.502 102.946 340.445 62.8448 320.628 51.821C300.812 40.7972 266.739 63.0255 255.504 82.4692C244.269 101.913 251.225 126.612 271.042 137.636Z" stroke="white" stroke-width="10" mask="url(#path-1-outside-1_145_122)"/>
<path d="M306.646 193.802C306.646 275.959 251.901 342.561 184.369 342.561C116.837 342.561 62.0915 275.959 62.0915 193.802C62.0915 111.644 116.837 45.0419 184.369 45.0419C251.901 45.0419 306.646 111.644 306.646 193.802Z" stroke="white" stroke-width="10" mask="url(#path-1-outside-1_145_122)"/>
<path d="M77.9114 198.514L172.704 278.277C172.704 278.277 101.938 291.169 98.0051 288.149C94.0717 285.129 49.8637 349.152 42.9857 337.705C36.1077 326.258 77.9114 198.514 77.9114 198.514Z" stroke="white" stroke-width="10" mask="url(#path-1-outside-1_145_122)"/>
<path d="M285.281 194.748L190.488 274.511C190.488 274.511 261.253 287.403 265.187 284.383C269.12 281.363 313.328 345.386 320.206 333.939C327.084 322.492 285.281 194.748 285.281 194.748Z" stroke="white" stroke-width="10" mask="url(#path-1-outside-1_145_122)"/>
<path d="M112.71 158.118L192.889 238.076L89.5244 250.399C89.5244 250.399 34.8309 291.719 32.1481 282.411C29.4653 273.102 64.1283 212.739 64.1283 212.739L112.71 158.118Z" stroke="white" stroke-width="10" mask="url(#path-1-outside-1_145_122)"/>
<path d="M111.126 244.757L223.622 257.439L171.576 311.705C171.576 311.705 164.758 389.803 154.524 389.036C144.29 388.27 111.126 244.757 111.126 244.757Z" stroke="white" stroke-width="10" mask="url(#path-1-outside-1_145_122)"/>
<path d="M252.634 244.757L140.138 257.439L192.184 311.705C192.184 311.705 199.002 389.803 209.236 389.036C219.47 388.27 252.634 244.757 252.634 244.757Z" stroke="white" stroke-width="10" mask="url(#path-1-outside-1_145_122)"/>
<path d="M83.5935 232.109L178.72 237.781C178.72 237.781 136.804 280.033 121.035 316.199C111.126 338.926 112.252 378.524 103.181 378.426C94.111 378.329 83.9624 305.239 83.9624 305.239L83.5935 232.109Z" stroke="white" stroke-width="10" mask="url(#path-1-outside-1_145_122)"/>
<path d="M256.29 156.235L176.111 236.193L279.476 248.516C279.476 248.516 334.169 289.836 336.852 280.528C339.535 271.219 304.872 210.856 304.872 210.856L256.29 156.235Z" stroke="white" stroke-width="10" mask="url(#path-1-outside-1_145_122)"/>
<path d="M278.943 232.109L183.816 237.781C183.816 237.781 225.733 280.033 241.502 316.199C251.411 338.926 250.285 378.524 259.355 378.426C268.426 378.329 278.574 305.239 278.574 305.239L278.943 232.109Z" stroke="white" stroke-width="10" mask="url(#path-1-outside-1_145_122)"/>
<path d="M100.061 188.451C102.941 200.359 100.276 211.017 94.1103 212.257C87.9441 213.497 80.6113 204.849 77.7319 192.942C74.8525 181.034 77.517 170.376 83.6831 169.136C89.8492 167.896 97.1821 176.544 100.061 188.451Z" stroke="white" stroke-width="10" mask="url(#path-1-outside-1_145_122)"/>
<path d="M268.592 188.999C265.713 200.907 268.377 211.565 274.544 212.805C280.71 214.045 288.043 205.397 290.922 193.49C293.801 181.582 291.137 170.924 284.971 169.684C278.805 168.444 271.472 177.092 268.592 188.999Z" stroke="white" stroke-width="10" mask="url(#path-1-outside-1_145_122)"/>
<path d="M169.319 227.696C169.319 233.19 170.905 238.458 173.727 242.343C176.55 246.227 180.377 248.41 184.369 248.41C188.36 248.41 192.188 246.227 195.01 242.343C197.833 238.458 199.418 233.19 199.418 227.696H169.319Z" stroke="white" stroke-width="10" mask="url(#path-1-outside-1_145_122)"/>
<path d="M482.671 145.168C462.854 156.192 449.981 157.08 438.745 137.636C427.51 118.192 414.3 41.5656 434.117 30.5418C453.934 19.518 486.974 70.5577 498.209 90.0014C509.444 109.445 502.488 134.144 482.671 145.168Z" stroke="white" stroke-width="10" mask="url(#path-1-outside-1_145_122)"/>
<path d="M681.263 193.802C681.263 275.959 626.518 342.561 558.986 342.561C491.454 342.561 436.708 275.959 436.708 193.802C436.708 111.644 491.454 45.0418 558.986 45.0418C626.518 45.0418 681.263 111.644 681.263 193.802Z" stroke="white" stroke-width="10" mask="url(#path-1-outside-1_145_122)"/>
<path d="M452.528 198.514L547.321 278.277C547.321 278.277 476.555 291.169 472.622 288.149C468.689 285.129 411.995 327.646 405.117 316.199C398.239 304.752 452.528 198.514 452.528 198.514Z" stroke="white" stroke-width="10" mask="url(#path-1-outside-1_145_122)"/>
<path d="M659.898 194.748L565.105 274.511C565.105 274.511 635.87 287.403 639.804 284.383C643.737 281.363 705.239 323.152 712.117 311.705C718.995 300.258 659.898 194.748 659.898 194.748Z" stroke="white" stroke-width="10" mask="url(#path-1-outside-1_145_122)"/>
<path d="M487.327 158.118L567.506 238.076L464.141 250.399C464.141 250.399 397.183 247.384 394.5 238.076C391.817 228.767 438.745 212.739 438.745 212.739L487.327 158.118Z" stroke="white" stroke-width="10" mask="url(#path-1-outside-1_145_122)"/>
<path d="M485.743 244.757L598.239 257.439L546.193 311.705C546.193 311.705 518.351 389.803 508.117 389.036C497.883 388.27 485.743 244.757 485.743 244.757Z" stroke="white" stroke-width="10" mask="url(#path-1-outside-1_145_122)"/>
<path d="M627.251 244.757L514.755 257.439L566.801 311.705C566.801 311.705 601.883 389.803 612.117 389.036C622.351 388.27 627.251 244.757 627.251 244.757Z" stroke="white" stroke-width="10" mask="url(#path-1-outside-1_145_122)"/>
<path d="M458.21 232.109L553.337 237.781C553.337 237.781 511.421 280.033 495.652 316.199C485.743 338.926 455.187 368.639 446.117 368.542C437.047 368.444 458.3 294.636 458.3 294.636L458.21 232.109Z" stroke="white" stroke-width="10" mask="url(#path-1-outside-1_145_122)"/>
<path d="M630.907 156.235L550.728 236.193L654.093 248.516C654.093 248.516 727.317 247.384 730 238.076C732.683 228.767 679.489 210.856 679.489 210.856L630.907 156.235Z" stroke="white" stroke-width="10" mask="url(#path-1-outside-1_145_122)"/>
<path d="M653.56 232.109L558.433 237.781C558.433 237.781 600.35 280.033 616.119 316.199C626.028 338.926 664.047 368.639 673.117 368.542C682.187 368.444 652.653 289.432 652.653 289.432L653.56 232.109Z" stroke="white" stroke-width="10" mask="url(#path-1-outside-1_145_122)"/>
<path d="M474.678 188.451C477.558 200.359 474.893 211.017 468.727 212.257C462.561 213.497 455.228 204.849 452.349 192.942C449.47 181.034 452.134 170.376 458.3 169.136C464.466 167.896 465.5 179.042 474.678 188.451Z" stroke="white" stroke-width="10" mask="url(#path-1-outside-1_145_122)"/>
<path d="M543.936 227.696C543.936 233.19 545.522 238.458 548.344 242.343C551.167 246.227 554.994 248.41 558.986 248.41C562.977 248.41 566.805 246.227 569.627 242.343C572.45 238.458 574.035 233.19 574.035 227.696H543.936Z" stroke="white" stroke-width="10" mask="url(#path-1-outside-1_145_122)"/>
<path d="M482.671 145.168C462.854 156.192 449.981 157.08 438.745 137.636C427.51 118.192 414.3 41.5656 434.117 30.5418C453.934 19.518 486.974 70.5577 498.209 90.0014C509.444 109.445 502.488 134.144 482.671 145.168Z" stroke="white" stroke-width="10" mask="url(#path-1-outside-1_145_122)"/>
<path d="M631.549 145.168C651.365 156.192 664.239 157.079 675.474 137.636C686.709 118.192 699.919 41.5656 680.102 30.5418C660.286 19.518 627.246 70.5576 616.011 90.0014C604.775 109.445 611.732 134.144 631.549 145.168Z" stroke="white" stroke-width="10" mask="url(#path-1-outside-1_145_122)"/>
<path d="M631.549 145.168C651.365 156.192 664.239 157.079 675.474 137.636C686.709 118.192 699.919 41.5656 680.102 30.5418C660.286 19.518 627.246 70.5576 616.011 90.0014C604.775 109.445 611.732 134.144 631.549 145.168Z" stroke="white" stroke-width="10" mask="url(#path-1-outside-1_145_122)"/>
<path d="M643.209 188.999C640.33 200.907 642.994 211.565 649.161 212.805C655.327 214.045 662.66 205.397 665.539 193.489C668.418 181.582 665.754 170.924 659.588 169.684C653.422 168.444 652.388 179.59 643.209 188.999Z" stroke="white" stroke-width="10" mask="url(#path-1-outside-1_145_122)"/>
<path d="M857.872 145.168C838.056 156.192 839.343 150.042 801.648 129.922C781.966 116.542 762.15 104.566 781.966 93.5419C801.783 82.5181 862.175 70.5576 873.41 90.0014C884.645 109.445 877.689 134.144 857.872 145.168Z" stroke="white" stroke-width="10" mask="url(#path-1-outside-1_145_122)"/>
<path d="M1056.46 193.802C1056.46 275.959 1001.72 342.561 934.187 342.561C866.655 342.561 811.91 275.959 811.91 193.802C811.91 111.644 866.655 45.0419 934.187 45.0419C1001.72 45.0419 1056.46 111.644 1056.46 193.802Z" stroke="white" stroke-width="10" mask="url(#path-1-outside-1_145_122)"/>
<path d="M827.73 198.514L922.523 278.277C922.523 278.277 851.757 291.169 847.823 288.149C843.89 285.129 827.633 359.989 820.755 348.542C813.877 337.095 827.73 198.514 827.73 198.514Z" stroke="white" stroke-width="10" mask="url(#path-1-outside-1_145_122)"/>
<path d="M1035.1 194.748L940.306 274.511C940.306 274.511 1011.07 287.403 1015.01 284.383C1018.94 281.363 1037.88 359.989 1044.75 348.542C1051.63 337.095 1035.1 194.748 1035.1 194.748Z" stroke="white" stroke-width="10" mask="url(#path-1-outside-1_145_122)"/>
<path d="M862.528 158.118L942.707 238.076L839.343 250.399C839.343 250.399 804.331 314.547 801.648 305.239C798.965 295.93 813.947 212.739 813.947 212.739L862.528 158.118Z" stroke="white" stroke-width="10" mask="url(#path-1-outside-1_145_122)"/>
<path d="M860.945 244.757L973.44 257.439L921.394 311.705C921.394 311.705 929.372 389.803 919.138 389.036C908.903 388.27 860.945 244.757 860.945 244.757Z" stroke="white" stroke-width="10" mask="url(#path-1-outside-1_145_122)"/>
<path d="M1002.45 244.757L889.957 257.439L942.002 311.705C942.002 311.705 939.002 389.803 949.237 389.036C959.471 388.27 1002.45 244.757 1002.45 244.757Z" stroke="white" stroke-width="10" mask="url(#path-1-outside-1_145_122)"/>
<path d="M833.412 232.109L928.539 237.781C928.539 237.781 893.023 284.376 877.255 320.542C867.346 343.269 886.325 381.139 877.255 381.042C868.184 380.944 833.781 305.239 833.781 305.239L833.412 232.109Z" stroke="white" stroke-width="10" mask="url(#path-1-outside-1_145_122)"/>
<path d="M1006.11 156.235L925.93 236.193L1029.29 248.516C1029.29 248.516 1064.64 314.547 1067.32 305.239C1070 295.93 1054.69 210.856 1054.69 210.856L1006.11 156.235Z" stroke="white" stroke-width="10" mask="url(#path-1-outside-1_145_122)"/>
<path d="M1028.76 232.109L933.635 237.781C933.635 237.781 971.986 280.376 987.755 316.542C997.664 339.269 982.25 381.139 991.32 381.042C1000.39 380.944 1028.39 305.239 1028.39 305.239L1028.76 232.109Z" stroke="white" stroke-width="10" mask="url(#path-1-outside-1_145_122)"/>
<path d="M849.88 188.451C852.759 200.359 844.404 184.188 838.237 185.428C832.071 186.668 830.43 204.849 827.55 192.942C824.671 181.034 827.335 170.376 833.501 169.136C839.668 167.896 847 176.544 849.88 188.451Z" stroke="white" stroke-width="10" mask="url(#path-1-outside-1_145_122)"/>
<path d="M919.138 227.696C919.138 233.19 920.723 238.458 923.546 242.343C926.368 246.227 930.196 248.41 934.187 248.41C938.179 248.41 942.006 246.227 944.829 242.343C947.651 238.458 949.237 233.19 949.237 227.696H919.138Z" stroke="white" stroke-width="10" mask="url(#path-1-outside-1_145_122)"/>
<path d="M1011.09 145.168C1030.91 156.192 1029.62 150.042 1067.32 129.922C1087 116.542 1106.82 104.566 1087 93.5419C1067.18 82.5181 1006.79 70.5576 995.556 90.0014C984.321 109.445 991.277 134.144 1011.09 145.168Z" stroke="white" stroke-width="10" mask="url(#path-1-outside-1_145_122)"/>
<path d="M1018.41 188.999C1015.53 200.907 1023.89 184.736 1030.05 185.976C1036.22 187.216 1037.86 205.397 1040.74 193.49C1043.62 181.582 1040.96 170.924 1034.79 169.684C1028.62 168.444 1021.29 177.092 1018.41 188.999Z" stroke="white" stroke-width="10" mask="url(#path-1-outside-1_145_122)"/>
<path d="M107.805 145.835C88.053 156.827 62.9631 150.021 51.7647 130.634C40.5663 111.246 38.6291 71.2615 58.3808 60.2697C78.1324 49.2779 112.093 71.4416 123.292 90.8288C134.49 110.216 127.556 134.843 107.805 145.835Z" fill="#F7D7F8"/>
<path d="M270.258 138.325C290.01 149.316 315.1 142.511 326.298 123.123C337.497 103.736 339.434 63.7512 319.682 52.7594C299.931 41.7677 265.97 63.9314 254.771 83.3186C243.573 102.706 250.507 127.333 270.258 138.325Z" fill="#F7D7F8"/>
<path d="M305.746 194.327C305.746 276.246 251.18 342.655 183.869 342.655C116.559 342.655 61.9928 276.246 61.9928 194.327C61.9928 112.408 116.559 46 183.869 46C251.18 46 305.746 112.408 305.746 194.327Z" fill="#F7D7F8"/>
<path d="M77.7609 199.026L172.243 278.557C172.243 278.557 101.709 291.412 97.7887 288.4C93.8682 285.389 49.8051 349.226 42.9497 337.813C36.0942 326.399 77.7609 199.026 77.7609 199.026Z" fill="#F7D7F8"/>
<path d="M284.45 195.271L189.968 274.802C189.968 274.802 260.502 287.657 264.422 284.645C268.343 281.634 312.406 345.471 319.261 334.057C326.117 322.644 284.45 195.271 284.45 195.271Z" fill="#F7D7F8"/>
<path d="M112.445 158.747L192.361 238.473L89.3358 250.76C89.3358 250.76 34.8216 291.96 32.1476 282.679C29.4736 273.398 64.023 213.209 64.023 213.209L112.445 158.747Z" fill="#F7D7F8"/>
<path d="M110.867 245.134L222.993 257.78L171.118 311.888C171.118 311.888 164.323 389.759 154.122 388.994C143.922 388.23 110.867 245.134 110.867 245.134Z" fill="#F7D7F8"/>
<path d="M251.91 245.134L139.784 257.78L191.659 311.888C191.659 311.888 198.454 389.759 208.655 388.994C218.856 388.23 251.91 245.134 251.91 245.134Z" fill="#F7D7F8"/>
<path d="M83.4243 232.523L178.239 238.179C178.239 238.179 136.46 280.308 120.743 316.369C110.867 339.03 111.988 378.513 102.948 378.415C93.9074 378.318 83.7921 305.441 83.7921 305.441L83.4243 232.523Z" fill="#F7D7F8"/>
<path d="M255.555 156.87L175.639 236.595L278.664 248.883C278.664 248.883 333.178 290.083 335.852 280.801C338.526 271.52 303.977 211.332 303.977 211.332L255.555 156.87Z" fill="#F7D7F8"/>
<path d="M278.134 232.523L183.319 238.179C183.319 238.179 225.098 280.308 240.815 316.369C250.691 339.029 249.57 378.512 258.61 378.415C267.651 378.318 277.766 305.441 277.766 305.441L278.134 232.523Z" fill="#F7D7F8"/>
<path d="M99.8383 188.993C102.708 200.865 100.053 211.493 93.9066 212.729C87.7607 213.965 80.4519 205.343 77.582 193.47C74.712 181.597 77.3677 170.97 83.5137 169.734C89.6596 168.497 96.9684 177.12 99.8383 188.993Z" fill="#6E6E6E"/>
<path d="M267.817 189.539C264.947 201.412 267.602 212.039 273.748 213.275C279.894 214.511 287.203 205.889 290.073 194.016C292.943 182.143 290.287 171.516 284.141 170.28C277.995 169.044 270.687 177.666 267.817 189.539Z" fill="#6E6E6E"/>
<path d="M168.869 228.123C168.869 233.601 170.449 238.854 173.263 242.727C176.076 246.601 179.891 248.777 183.869 248.777C187.848 248.777 191.663 246.601 194.476 242.727C197.289 238.854 198.869 233.601 198.869 228.123H168.869Z" fill="#F2A3C8"/>
<path d="M59.4928 194.327C59.4928 201.068 59.8588 207.711 60.5686 214.227C60.5035 214.342 60.4362 214.461 60.3667 214.584C59.424 216.254 58.081 218.648 56.4781 221.55C53.2734 227.351 49.0249 235.189 44.8575 243.324C40.6955 251.448 36.5908 259.913 33.6886 266.956C32.2398 270.472 31.0653 273.694 30.337 276.373C29.973 277.713 29.7057 278.969 29.5803 280.092C29.4595 281.174 29.4458 282.332 29.7453 283.371C30.1382 284.735 31.088 285.709 32.3404 286.186C33.4477 286.608 34.651 286.594 35.7106 286.449C37.8463 286.158 40.4768 285.174 43.2675 283.873C45.5531 282.808 48.0886 281.461 50.7606 279.932C47.7482 290.985 45.0366 301.652 43.0537 310.781C41.5755 317.588 40.4883 323.602 39.991 328.31C39.7428 330.66 39.634 332.751 39.7135 334.487C39.7885 336.125 40.0405 337.824 40.8066 339.1C41.5518 340.341 42.6709 341.217 44.0949 341.542C45.4203 341.846 46.7534 341.613 47.9319 341.205C50.2546 340.4 52.8441 338.602 55.4674 336.397C60.7886 331.926 67.1756 324.975 73.3528 317.902C76.2166 314.622 79.0144 311.342 81.6673 308.231C81.6998 308.453 81.7344 308.688 81.7712 308.937C82.0666 310.938 82.4985 313.795 83.045 317.223C84.1376 324.075 85.6904 333.224 87.5287 342.384C89.363 351.524 91.4974 360.756 93.7627 367.743C94.8898 371.219 96.0887 374.266 97.3576 376.49C97.9893 377.598 98.704 378.621 99.5262 379.397C100.338 380.164 101.482 380.9 102.921 380.915C105.111 380.939 106.75 379.713 107.888 378.227C108.996 376.78 109.838 374.842 110.53 372.725C111.92 368.469 112.963 362.641 113.999 356.331C114.194 355.145 114.389 353.938 114.587 352.717C116.113 343.287 117.778 332.996 120.527 324.188C123.506 326.33 126.566 328.325 129.7 330.166C133.421 343.682 137.214 356.62 140.69 366.988C142.966 373.777 145.13 379.54 147.074 383.66C148.04 385.708 148.999 387.453 149.942 388.735C150.413 389.375 150.939 389.98 151.527 390.457C152.096 390.918 152.912 391.411 153.936 391.487C155.441 391.6 156.697 390.953 157.631 390.144C158.544 389.353 159.307 388.283 159.958 387.131C161.265 384.818 162.431 381.615 163.484 377.961C165.601 370.609 167.426 360.819 168.917 351.107C169.271 348.802 169.606 346.496 169.924 344.221C174.499 344.838 179.152 345.155 183.869 345.155C186.917 345.155 189.939 345.022 192.929 344.762C193.224 346.861 193.535 348.984 193.86 351.107C195.351 360.819 197.176 370.609 199.293 377.961C200.346 381.615 201.512 384.818 202.819 387.131C203.471 388.283 204.233 389.353 205.146 390.144C206.08 390.953 207.336 391.6 208.842 391.487C209.865 391.411 210.681 390.918 211.251 390.457C211.838 389.98 212.364 389.375 212.835 388.735C213.779 387.453 214.737 385.708 215.703 383.66C217.647 379.54 219.812 373.777 222.087 366.988C225.287 357.444 228.755 345.722 232.189 333.376C235.556 331.655 238.846 329.759 242.052 327.699C244.212 335.661 245.644 344.515 246.971 352.717C247.169 353.938 247.364 355.144 247.559 356.331C248.595 362.641 249.638 368.469 251.028 372.725C251.72 374.842 252.562 376.78 253.67 378.227C254.808 379.713 256.447 380.939 258.637 380.915C260.076 380.9 261.22 380.164 262.032 379.397C262.854 378.62 263.569 377.598 264.2 376.49C265.469 374.266 266.668 371.219 267.795 367.743C270.061 360.756 272.195 351.523 274.029 342.383C275.868 333.223 277.42 324.075 278.513 317.223C279.059 313.795 279.491 310.938 279.787 308.937C279.935 307.937 280.048 307.15 280.125 306.613C280.163 306.344 280.193 306.138 280.212 305.998L280.234 305.839L280.24 305.799L280.242 305.788L280.242 305.785C280.242 305.785 280.242 305.784 277.766 305.441L280.242 305.784L280.265 305.62L280.266 305.453L280.272 304.157C280.327 304.221 280.381 304.285 280.435 304.349C283.12 307.498 285.955 310.823 288.858 314.147C295.035 321.22 301.422 328.171 306.744 332.642C309.367 334.847 311.956 336.645 314.279 337.45C315.458 337.858 316.791 338.09 318.116 337.787C319.54 337.462 320.659 336.585 321.404 335.345C322.17 334.069 322.423 332.37 322.497 330.732C322.577 328.996 322.468 326.904 322.22 324.554C321.723 319.846 320.635 313.833 319.157 307.026C317.061 297.375 314.15 286.005 310.931 274.277C315.894 277.362 320.702 280.117 324.733 281.996C327.523 283.296 330.154 284.28 332.289 284.572C333.349 284.716 334.552 284.731 335.66 284.309C336.912 283.832 337.862 282.857 338.255 281.494C338.554 280.454 338.541 279.297 338.42 278.214C338.294 277.092 338.027 275.835 337.663 274.496C336.935 271.817 335.76 268.595 334.311 265.079C331.409 258.036 327.305 249.57 323.142 241.446C318.975 233.312 314.727 225.474 311.522 219.672C309.919 216.771 308.576 214.377 307.633 212.707C307.543 212.548 307.457 212.395 307.374 212.249C307.95 206.368 308.246 200.387 308.246 194.327C308.246 176.984 305.823 160.29 301.357 144.734C312.425 141.947 322.373 134.917 328.463 124.374C334.343 114.193 337.695 98.8602 337.094 84.6872C336.499 70.6453 331.952 56.7264 320.898 50.5749C309.867 44.436 295.406 47.7418 282.843 54.4409C273.616 59.3611 264.922 66.3586 258.605 73.726C237.855 54.7719 212.012 43.5 183.869 43.5C156.371 43.5 131.069 54.2616 110.567 72.4362C105.885 68.4545 100.645 64.8438 95.22 61.9512C82.657 55.252 68.1963 51.9463 57.1651 58.0852C46.1112 64.2367 41.5641 78.1555 40.9687 92.1974C40.3678 106.37 43.7196 121.704 49.5999 131.884C53.5445 138.713 59.1075 144.068 65.545 147.751C61.614 162.441 59.4928 178.1 59.4928 194.327Z" stroke="white" stroke-width="5"/>
</g>
<defs>
<clipPath id="clip0_145_122">
<rect width="368" height="418" fill="white"/>
</clipPath>
</defs>
</svg>
