<svg width="102" height="69" viewBox="0 0 102 69" fill="none" xmlns="http://www.w3.org/2000/svg">
<mask id="path-1-inside-1_122_72" fill="white">
<path d="M98.3708 0.0577944C100.957 7.83247 101.749 16.0924 100.68 24.1662C99.6122 32.24 96.7144 39.8998 92.2228 46.5228C87.7312 53.1459 81.7725 58.5454 74.831 62.2823C67.8895 66.0192 60.1612 67.9882 52.2743 68.0291C44.3874 68.0699 36.5644 66.1816 29.4414 62.5176C22.3183 58.8536 16.0962 53.5173 11.2809 46.9425C6.46548 40.3677 3.19273 32.7399 1.72865 24.6793C0.264573 16.6186 0.650484 8.35254 2.85501 0.553021L51 16.0833L98.3708 0.0577944Z"/>
</mask>
<g filter="url(#filter0_i_122_72)">
<path d="M98.3708 0.0577944C100.957 7.83247 101.749 16.0924 100.68 24.1662C99.6122 32.24 96.7144 39.8998 92.2228 46.5228C87.7312 53.1459 81.7725 58.5454 74.831 62.2823C67.8895 66.0192 60.1612 67.9882 52.2743 68.0291C44.3874 68.0699 36.5644 66.1816 29.4414 62.5176C22.3183 58.8536 16.0962 53.5173 11.2809 46.9425C6.46548 40.3677 3.19273 32.7399 1.72865 24.6793C0.264573 16.6186 0.650484 8.35254 2.85501 0.553021L51 16.0833L98.3708 0.0577944Z" fill="#EE4313"/>
</g>
<path d="M98.3708 0.0577944C100.957 7.83247 101.749 16.0924 100.68 24.1662C99.6122 32.24 96.7144 39.8998 92.2228 46.5228C87.7312 53.1459 81.7725 58.5454 74.831 62.2823C67.8895 66.0192 60.1612 67.9882 52.2743 68.0291C44.3874 68.0699 36.5644 66.1816 29.4414 62.5176C22.3183 58.8536 16.0962 53.5173 11.2809 46.9425C6.46548 40.3677 3.19273 32.7399 1.72865 24.6793C0.264573 16.6186 0.650484 8.35254 2.85501 0.553021L51 16.0833L98.3708 0.0577944Z" stroke="white" stroke-width="2" mask="url(#path-1-inside-1_122_72)"/>
<defs>
<filter id="filter0_i_122_72" x="0.857666" y="-11.6422" width="111.985" height="79.6719" filterUnits="userSpaceOnUse" color-interpolation-filters="sRGB">
<feFlood flood-opacity="0" result="BackgroundImageFix"/>
<feBlend mode="normal" in="SourceGraphic" in2="BackgroundImageFix" result="shape"/>
<feColorMatrix in="SourceAlpha" type="matrix" values="0 0 0 0 0 0 0 0 0 0 0 0 0 0 0 0 0 0 127 0" result="hardAlpha"/>
<feMorphology radius="3" operator="dilate" in="SourceAlpha" result="effect1_innerShadow_122_72"/>
<feOffset dx="21" dy="-18"/>
<feGaussianBlur stdDeviation="7.35"/>
<feComposite in2="hardAlpha" operator="arithmetic" k2="-1" k3="1"/>
<feColorMatrix type="matrix" values="0 0 0 0 0.110415 0 0 0 0 0.0336515 0 0 0 0 0.0336515 0 0 0 0.25 0"/>
<feBlend mode="normal" in2="shape" result="effect1_innerShadow_122_72"/>
</filter>
</defs>
</svg>
