<svg width="263" height="169" viewBox="0 0 263 169" fill="none" xmlns="http://www.w3.org/2000/svg">
<path d="M210 109.62C210 126.25 203.853 140 186.456 140C169.059 140 155.93 123.547 147 109.62C155.443 93.7455 169.059 79 186.456 79C203.853 79 210 92.9896 210 109.62Z" fill="#E88C72"/>
<path d="M210 35.6199C210 52.2503 203.853 66 186.456 66C169.059 66 155.93 49.5471 147 35.6199C155.443 19.7455 169.059 5 186.456 5C203.853 5 210 18.9896 210 35.6199Z" fill="#E88C72"/>
<path d="M143 41.1416C143 60.7709 135.877 77 115.719 77C95.5607 77 80.3479 57.5802 70 41.1416C79.7835 22.4046 95.5607 5 115.719 5C135.877 5 143 21.5123 143 41.1416Z" fill="#E88C72"/>
<path d="M143 127.5C143 147.129 135.878 163.358 115.719 163.358C95.5607 163.358 80.348 143.939 70.0001 127.5C79.7836 108.763 95.5607 91.3584 115.719 91.3584C135.878 91.3584 143 107.871 143 127.5Z" fill="#E88C72"/>
<path d="M213 85C196.051 117.253 146.057 144.675 107.233 144.675C68.4093 144.675 15.1691 124.842 6 85C15.1691 46.3439 68.3145 25 107.138 25C145.962 25 189.105 48.4783 213 85Z" fill="#F6B993"/>
<path d="M258 85.6671C258 108.841 250.194 128 228.103 128C206.012 128 189.34 105.074 178 85.6671C188.722 63.5471 206.012 43 228.103 43C250.194 43 258 62.4937 258 85.6671Z" fill="#F6B993"/>
<path d="M41 72.5C41 76.6421 39.2091 80 37 80C34.7909 80 33 76.6421 33 72.5C33 68.3579 34.7909 65 37 65C39.2091 65 41 68.3579 41 72.5Z" fill="white"/>
<path d="M99.0001 144C99.0001 144 119.199 55.8787 94.0001 25.7564C107.21 23.7022 125.707 26.2036 129.707 27.5C133.707 28.7964 154 55 154 81.9149C153.924 113.155 144.668 133.085 138 139C131.332 144.915 97.8901 144.666 99.0001 144Z" fill="white"/>
<path d="M200 115.052C200.919 114.746 192.693 73.6478 202.899 52.5C189.048 60.6333 184 70.4621 184 84C184 101.64 200 115.052 200 115.052Z" fill="white"/>
<path d="M145.01 110.076C140.143 121.265 125.382 125.941 113 120.665C100.618 115.389 96.0893 100.337 93.8092 88.2577C104.464 80.1374 118.471 74.3453 130.852 79.6215C143.234 84.8977 149.877 98.8859 145.01 110.076Z" fill="#E88C72"/>
<path d="M143 96.0905C143 108.631 131.466 119 118.166 119C104.865 119 94.8276 106.593 88 96.0905C94.4552 84.1196 104.865 73 118.166 73C131.466 73 143 83.5495 143 96.0905Z" fill="#F6B993"/>
<path d="M47.4641 132.936C62.0258 112.795 69.9826 68.8002 44 38.7058L56 33.4207C96.8298 76.8634 61.9641 138.436 61.9641 138.436C61.9641 138.436 50.9856 134.149 47.4641 132.936Z" fill="white"/>
<path d="M47.4641 132.936C62.0258 112.795 69.9826 68.8002 44 38.7058L56 33.4207C96.8298 76.8634 61.9641 138.436 61.9641 138.436C61.9641 138.436 50.9856 134.149 47.4641 132.936Z" fill="white"/>
<path d="M61.6185 139.321L61.0548 140.765L63.0724 141.552L63.9035 140.084C68.7786 141.668 73.7271 142.985 78.6608 144.037C81.3926 147.377 84.3389 150.577 87.5009 153.445C95.3731 160.587 104.789 165.858 115.719 165.858C126.59 165.858 134.216 161.419 139.005 154.168C141.609 150.225 143.326 145.529 144.336 140.408C150.587 138.263 156.783 135.661 162.783 132.679C169.434 138.367 177.335 142.5 186.456 142.5C195.926 142.5 202.618 138.697 206.826 132.442C208.203 130.396 209.294 128.117 210.137 125.669C215.631 128.676 221.62 130.5 228.103 130.5C240.025 130.5 248.303 125.252 253.467 116.83C258.525 108.581 260.5 97.4638 260.5 85.6671C260.5 73.8697 258.525 62.6755 253.473 54.347C248.319 45.8482 240.044 40.5 228.103 40.5C222.365 40.5 216.965 41.7917 211.931 44.0504C212.323 41.3266 212.5 38.4953 212.5 35.6199C212.5 27.0637 210.93 18.8437 206.833 12.6884C202.633 6.37732 195.944 2.5 186.456 2.5C169.31 2.5 155.977 15.6221 147.281 30.052C146.355 29.7096 145.427 29.3782 144.498 29.0579C143.514 23.5806 141.756 18.5421 139.012 14.3423C134.231 7.02562 126.608 2.5 115.719 2.5C99.3875 2.5 86.0398 13.0712 76.2333 26.3688C70.1371 27.8425 64.0423 29.7305 58.1143 32.0215C58.0172 31.9171 57.9196 31.8128 57.8217 31.7086L56.6107 30.4201L54.9923 31.1328L42.9923 36.4179L39.8983 37.7806L41.5997 39.7512C23.1952 50.0673 8.16362 65.0462 3.56749 84.423L3.43267 84.9914L3.56369 85.5607C8.37657 106.474 24.6894 121.881 44.352 132.001C44.5228 132.089 44.6939 132.176 44.8652 132.263L43.4639 134.202L46.6496 135.299C48.3604 135.889 51.9407 137.246 55.1382 138.475C56.7272 139.085 58.2067 139.658 59.2891 140.078C59.8303 140.288 60.272 140.46 60.5783 140.579L60.9317 140.717L61.0237 140.752L61.0471 140.762L61.053 140.764L61.0544 140.764L61.0548 140.765C61.0548 140.765 61.0548 140.765 61.6185 139.321Z" stroke="white" stroke-width="5"/>
</svg>
