<svg width="1989" height="533" viewBox="0 0 1989 533" fill="none" xmlns="http://www.w3.org/2000/svg">
<g clip-path="url(#clip0_94_30)">
<path d="M731.447 187.387C731.447 187.387 771.53 320.372 705.222 311.124C638.914 301.876 598.313 227.22 572.265 165.186C613.553 104.377 673.098 22.471 739.406 31.7191C708.299 131.294 714.178 187.365 731.447 187.387Z" fill="#D8E6D9"/>
<path d="M1850.5 286.399C1932.5 221.4 991.854 193.362 950.651 187.645C865.764 175.866 749.085 157.7 702.157 152.217C627.901 143.54 376.673 206.627 348.235 213.858C346.414 214.321 344.783 214.839 343.01 215.463C257.987 245.396 67.8619 249.04 23.3651 273.317C-21.0258 297.537 285.247 373.807 393.945 396.557C396.735 397.141 399.435 397.399 402.286 397.399H957.254C980.862 397.399 1238 397.332 1344 387.621C1450 377.911 1768.5 351.398 1850.5 286.399Z" fill="#D8E6D9"/>
<path d="M269.368 410.055L249.169 387.621L239.57 414.392L269.368 410.055Z" fill="white"/>
<path d="M253.016 415.531L232.818 393.097L223.218 419.868L253.016 415.531Z" fill="white"/>
<path d="M236.665 421.007L216.466 398.573L206.866 425.344L236.665 421.007Z" fill="white"/>
<path d="M217.18 423.488L199.263 403.492L190.686 427.408L217.18 423.488Z" fill="white"/>
<path d="M200.017 425.751L183.362 408.428L176.192 428.423L200.017 425.751Z" fill="white"/>
<path d="M183.516 431.355L166.324 415.531L160.229 432.527L183.516 431.355Z" fill="white"/>
<path d="M441.193 333.225L442.332 233.136C465.333 221.03 577.615 206.194 572.853 304.75C568.645 391.832 533.837 382.478 474.817 397.075C474.817 397.075 163.863 442.254 142.982 438.134C122.101 434.014 441.193 333.225 441.193 333.225Z" fill="#D8E6D9"/>
<path d="M304 290.399C304 305.863 316.984 318.399 333 318.399C349.016 318.399 362 305.863 362 290.399C362 274.935 349.016 262.399 333 262.399C316.984 262.399 304 274.935 304 290.399Z" fill="white"/>
<path d="M319 290.399C319 298.684 325.492 305.399 333.5 305.399C341.508 305.399 348 298.684 348 290.399C348 282.115 341.508 275.399 333.5 275.399C325.492 275.399 319 282.115 319 290.399Z" fill="#6E6E6E"/>
<path d="M496 286.399C518.363 301.725 514.923 331.142 502.39 341.398C507.414 341.587 538.362 308.793 496 286.399Z" fill="white"/>
<path d="M535 269.399C563.463 292.248 559.084 336.106 543.132 351.398C549.526 351.679 588.915 302.787 535 269.399Z" fill="white"/>
<path d="M567 253.399C603.595 284.886 597.965 345.325 577.456 366.398C585.677 366.785 636.319 299.409 567 253.399Z" fill="white"/>
<path d="M731.447 187.387C731.447 187.387 771.53 320.372 705.222 311.124C638.914 301.876 598.313 227.22 572.265 165.186C613.553 104.377 673.098 22.471 739.406 31.7191C708.299 131.294 714.178 187.365 731.447 187.387Z" fill="#D8E6D9"/>
<path d="M1422.89 237.665C1422.89 237.665 1462.97 370.65 1396.67 361.402C1330.36 352.154 1289.76 277.498 1263.71 215.463C1305 154.655 1364.54 72.7489 1430.85 81.997C1399.74 181.571 1405.62 237.643 1422.89 237.665Z" fill="#D8E6D9"/>
<path d="M1422.89 237.665C1422.89 237.665 1462.97 370.65 1396.67 361.402C1330.36 352.154 1289.76 277.498 1263.71 215.463C1305 154.655 1364.54 72.7489 1430.85 81.997C1399.74 181.571 1405.62 237.643 1422.89 237.665Z" fill="#D8E6D9"/>
<path d="M1299.5 390.743C1299.5 390.743 1373.77 528.647 1307.46 519.399C1241.15 510.151 1166.37 430.576 1140.32 368.542C1181.61 307.733 1241.15 225.827 1307.46 235.075C1276.35 334.65 1282.23 390.721 1299.5 390.743Z" fill="#D8E6D9"/>
<path d="M1299.5 390.743C1299.5 390.743 1373.77 528.647 1307.46 519.399C1241.15 510.151 1166.37 430.576 1140.32 368.542C1181.61 307.733 1241.15 225.827 1307.46 235.075C1276.35 334.65 1282.23 390.721 1299.5 390.743Z" fill="#D8E6D9"/>
<path d="M1791.16 497.203C1803.9 503.497 1819.2 496.276 1822.57 482.471C1833.06 439.402 1854.57 355.361 1873.4 308.516C1899.46 243.655 1974 77.5 1974 63C1974 49.7675 1616 193.062 1389.91 253.897C1369.82 259.303 1366.67 287.507 1385.32 296.723L1791.16 497.203Z" fill="#D8E6D9"/>
<path d="M768.859 215.668C769.359 200.168 635.755 324.893 662.117 359.65C688.479 394.407 826.31 421.876 908 489.399C989.69 556.923 768.359 231.169 768.859 215.668Z" fill="#D8E6D9"/>
</g>
<defs>
<clipPath id="clip0_94_30">
<rect width="1989" height="533" fill="white"/>
</clipPath>
</defs>
</svg>
