<svg width="1989" height="533" viewBox="0 0 1989 533" fill="none" xmlns="http://www.w3.org/2000/svg">
<g clip-path="url(#clip0_94_30)">
<path d="M731.447 187.387C731.447 187.387 771.53 320.372 705.222 311.124C638.914 301.876 598.313 227.22 572.265 165.186C613.553 104.377 673.098 22.471 739.406 31.7191C708.299 131.294 714.178 187.365 731.447 187.387Z" fill="#D8E6D9"/>
<path d="M1850.5 286.399C1932.5 221.4 991.854 193.362 950.651 187.645C865.764 175.866 749.085 157.7 702.157 152.217C627.901 143.54 376.673 206.627 348.235 213.858C346.414 214.321 344.783 214.839 343.01 215.463C257.987 245.396 67.8619 249.04 23.3651 273.317C-21.0258 297.537 285.247 373.807 393.945 396.557C396.735 397.141 399.435 397.399 402.286 397.399H957.254C980.862 397.399 1238 397.332 1344 387.621C1450 377.911 1768.5 351.398 1850.5 286.399Z" fill="#D8E6D9"/>
<path d="M262.025 439.318L241.826 416.884L232.227 443.655L262.025 439.318Z" fill="white"/>
<path d="M245.673 444.794L225.475 422.361L215.875 449.131L245.673 444.794Z" fill="white"/>
<path d="M229.322 450.271L209.123 427.837L199.523 454.607L229.322 450.271Z" fill="white"/>
<path d="M209.838 452.751L191.92 432.755L183.343 456.671L209.838 452.751Z" fill="white"/>
<path d="M192.674 455.015L176.02 437.691L168.849 457.686L192.674 455.015Z" fill="white"/>
<path d="M176.173 460.618L158.981 444.794L152.886 461.79L176.173 460.618Z" fill="white"/>
<path d="M433.85 362.488L551 357C574.001 344.894 570.272 235.457 565.51 334.013C561.302 421.096 526.494 411.741 467.474 426.339C467.474 426.339 156.52 471.517 135.639 467.397C114.758 463.277 433.85 362.488 433.85 362.488Z" fill="#D8E6D9"/>
<path d="M304 290.399C304 305.863 316.984 318.399 333 318.399C349.016 318.399 362 305.863 362 290.399C362 274.935 349.016 262.399 333 262.399C316.984 262.399 304 274.935 304 290.399Z" fill="white"/>
<path d="M319 290.399C319 298.684 325.492 305.399 333.5 305.399C341.508 305.399 348 298.684 348 290.399C348 282.115 341.508 275.399 333.5 275.399C325.492 275.399 319 282.115 319 290.399Z" fill="#6E6E6E"/>
<path d="M496 286.399C518.363 301.725 514.923 331.142 502.39 341.398C507.414 341.587 538.362 308.793 496 286.399Z" fill="white"/>
<path d="M535 269.399C563.463 292.248 559.084 336.106 543.132 351.398C549.526 351.679 588.915 302.787 535 269.399Z" fill="white"/>
<path d="M567 253.399C603.595 284.886 597.965 345.325 577.456 366.398C585.677 366.785 636.319 299.409 567 253.399Z" fill="white"/>
<path d="M731.447 187.387C731.447 187.387 771.53 320.372 705.222 311.124C638.914 301.876 598.313 227.22 572.265 165.186C613.553 104.377 673.098 22.471 739.406 31.7191C708.299 131.294 714.178 187.365 731.447 187.387Z" fill="#D8E6D9"/>
<path d="M1422.89 237.665C1422.89 237.665 1462.97 370.65 1396.67 361.402C1330.36 352.154 1289.76 277.498 1263.71 215.463C1305 154.655 1364.54 72.7489 1430.85 81.997C1399.74 181.571 1405.62 237.643 1422.89 237.665Z" fill="#D8E6D9"/>
<path d="M1422.89 237.665C1422.89 237.665 1462.97 370.65 1396.67 361.402C1330.36 352.154 1289.76 277.498 1263.71 215.463C1305 154.655 1364.54 72.7489 1430.85 81.997C1399.74 181.571 1405.62 237.643 1422.89 237.665Z" fill="#D8E6D9"/>
<path d="M1299.5 390.743C1299.5 390.743 1373.77 528.647 1307.46 519.399C1241.15 510.151 1166.37 430.576 1140.32 368.542C1181.61 307.733 1241.15 225.827 1307.46 235.075C1276.35 334.65 1282.23 390.721 1299.5 390.743Z" fill="#D8E6D9"/>
<path d="M1299.5 390.743C1299.5 390.743 1373.77 528.647 1307.46 519.399C1241.15 510.151 1166.37 430.576 1140.32 368.542C1181.61 307.733 1241.15 225.827 1307.46 235.075C1276.35 334.65 1282.23 390.721 1299.5 390.743Z" fill="#D8E6D9"/>
<path d="M358.161 409.984L337.962 387.55L328.362 414.321L358.161 409.984Z" fill="white"/>
<path d="M343.261 412.153L323.062 389.719L313.463 416.489L343.261 412.153Z" fill="white"/>
<path d="M326.91 417.629L306.711 395.195L297.111 421.966L326.91 417.629Z" fill="white"/>
<path d="M307.425 420.109L289.507 400.113L280.931 424.03L307.425 420.109Z" fill="white"/>
<path d="M290.262 422.373L273.607 405.049L266.437 425.045L290.262 422.373Z" fill="white"/>
<path d="M273.761 427.977L256.569 412.153L250.474 429.148L273.761 427.977Z" fill="white"/>
<path d="M433.85 362.488L551 357C574.001 344.894 570.272 235.457 565.51 334.013C561.302 421.096 526.494 411.741 467.474 426.339C467.474 426.339 156.52 471.517 135.639 467.397C114.758 463.277 433.85 362.488 433.85 362.488Z" fill="#D8E6D9"/>
<path d="M1791.16 497.203C1803.9 503.497 1819.2 496.276 1822.57 482.471C1833.06 439.402 1854.57 355.361 1873.4 308.516C1899.46 243.655 1974 77.5 1974 63C1974 49.7675 1616 193.062 1389.91 253.897C1369.82 259.303 1366.67 287.507 1385.32 296.723L1791.16 497.203Z" fill="#D8E6D9"/>
<path d="M768.859 215.668C769.359 200.168 635.755 324.893 662.117 359.65C688.479 394.407 826.31 421.876 908 489.399C989.69 556.923 768.359 231.169 768.859 215.668Z" fill="#D8E6D9"/>
<path d="M351.979 339.422C354.428 346.225 360.837 350.146 366.293 348.182C371.749 346.217 374.187 339.11 371.737 332.308C369.288 325.505 359.465 317.595 354.097 314.311C352.055 320.263 349.53 332.62 351.979 339.422Z" fill="#8DCBDB"/>
</g>
<defs>
<clipPath id="clip0_94_30">
<rect width="1989" height="533" fill="white"/>
</clipPath>
</defs>
</svg>
