<svg width="403" height="118" viewBox="0 0 403 118" fill="none" xmlns="http://www.w3.org/2000/svg">
<path d="M203.687 68.6394L174.722 60.9069L181.113 89.183L203.687 68.6394Z" fill="white"/>
<path d="M127.179 47.2413L98.2135 39.5088L104.604 67.7849L127.179 47.2413Z" fill="white"/>
<path d="M166.777 58.1178L137.812 50.3853L144.203 78.6614L166.777 58.1178Z" fill="white"/>
<path d="M90.2686 36.7197L61.3036 28.9872L67.6942 57.2633L90.2686 36.7197Z" fill="white"/>
<path d="M185.232 63.3786L156.267 55.6461L162.658 83.9222L185.232 63.3786Z" fill="white"/>
<path d="M71.8135 31.4589L46.3097 30.6158L49.2391 52.0025L71.8135 31.4589Z" fill="white"/>
<path d="M108.724 41.9805L79.7585 34.248L86.1492 62.5241L108.724 41.9805Z" fill="white"/>
<path d="M148.322 52.857L119.357 45.1245L125.748 73.4006L148.322 52.857Z" fill="white"/>
<path d="M2.49183 18.7026C31.916 12.9694 303.137 5.52276 303.137 5.52276C320.353 -1.76086 416.166 -14.7453 400.519 80.4429C398.53 92.545 382.606 94.5084 340.5 97.1371L289.773 102.92C289.773 102.92 -26.9323 24.4359 2.49183 18.7026Z" fill="#66ACA4"/>
<path d="M244.021 77.8153L215.056 70.0828L221.447 98.3589L244.021 77.8153Z" fill="white"/>
<path d="M283.62 88.6919L254.655 80.9593L261.046 109.235L283.62 88.6919Z" fill="white"/>
<path d="M302.075 93.9527L273.11 86.2202L279.501 114.496L302.075 93.9527Z" fill="white"/>
<path d="M225.566 72.5545L196.601 64.822L202.992 93.0981L225.566 72.5545Z" fill="white"/>
<path d="M265.165 83.431L236.2 75.6985L242.591 103.975L265.165 83.431Z" fill="white"/>
<path d="M2.49183 18.7026C31.916 12.9694 303.137 5.52276 303.137 5.52276C320.353 -1.76086 416.166 -14.7453 400.519 80.4429C398.53 92.545 382.606 94.5084 340.5 97.1371L289.773 102.92C289.773 102.92 -26.9323 24.4359 2.49183 18.7026Z" fill="#66ACA4"/>
</svg>
