<svg width="1000" height="1000" viewBox="0 0 1000 1000" fill="none" xmlns="http://www.w3.org/2000/svg">
<g clip-path="url(#clip0_153_171)">
<path d="M0 500C0 223.858 223.858 0 500 0V0C776.142 0 1000 223.858 1000 500V500C1000 776.142 776.142 1000 500 1000V1000C223.858 1000 0 776.142 0 500V500Z" fill="#FDC98E"/>
<path d="M1171.24 637.147C1171.24 721.896 1139.89 791.965 1051.18 791.965C962.473 791.965 895.526 708.12 849.988 637.147C893.042 556.25 962.473 481.107 1051.18 481.107C1139.89 481.107 1171.24 552.398 1171.24 637.147Z" fill="#E88C72"/>
<path d="M1171.24 260.04C1171.24 344.789 1139.89 414.858 1051.18 414.858C962.473 414.858 895.526 331.013 849.988 260.04C893.042 179.144 962.473 104 1051.18 104C1139.89 104 1171.24 175.291 1171.24 260.04Z" fill="#E88C72"/>
<path d="M829.591 288.179C829.591 388.21 793.272 470.914 690.48 470.914C587.688 470.914 510.115 371.95 457.349 288.179C507.237 192.694 587.688 104 690.48 104C793.272 104 829.591 188.147 829.591 288.179Z" fill="#E88C72"/>
<path d="M829.592 728.264C829.592 828.296 793.272 911 690.48 911C587.689 911 510.116 812.036 457.349 728.264C507.238 632.78 587.689 544.086 690.48 544.086C793.272 544.086 829.592 628.233 829.592 728.264Z" fill="#E88C72"/>
<path d="M1186.54 511.683C1100.11 676.045 845.179 815.786 647.208 815.786C449.238 815.786 177.755 714.718 131 511.683C177.755 314.69 448.754 205.921 646.725 205.921C844.695 205.921 1064.69 325.567 1186.54 511.683Z" fill="#F6B993"/>
<path d="M1416 515.083C1416 633.175 1376.2 730.812 1263.55 730.812C1150.9 730.812 1065.89 613.979 1008.06 515.083C1062.74 402.358 1150.9 297.649 1263.55 297.649C1376.2 297.649 1416 396.99 1416 515.083Z" fill="#F6B993"/>
<path d="M309.472 447.982C309.472 469.091 300.34 486.203 289.075 486.203C277.811 486.203 268.679 469.091 268.679 447.982C268.679 426.874 277.811 409.762 289.075 409.762C300.34 409.762 309.472 426.874 309.472 447.982Z" fill="white"/>
<path d="M605.227 812.349C605.227 812.349 708.223 363.28 579.73 209.775C647.09 199.307 741.412 212.054 761.809 218.661C782.207 225.267 885.68 358.802 885.68 495.961C885.292 655.163 838.098 756.726 804.096 786.869C770.093 817.011 599.566 815.742 605.227 812.349Z" fill="white"/>
<path d="M1120.25 664.828C1124.93 663.272 1082.98 453.831 1135.03 346.062C1064.4 387.509 1038.66 437.597 1038.66 506.587C1038.66 596.48 1120.25 664.828 1120.25 664.828Z" fill="white"/>
<path d="M839.842 639.469C815.024 696.492 739.754 720.322 676.616 693.434C613.478 666.546 590.384 589.84 578.757 528.284C633.09 486.903 704.511 457.386 767.649 484.274C830.786 511.162 864.66 582.446 839.842 639.469Z" fill="#E88C72"/>
<path d="M829.591 568.2C829.591 632.109 770.778 684.948 702.956 684.948C635.133 684.948 583.95 621.721 549.135 568.2C582.051 507.196 635.133 450.53 702.956 450.53C770.778 450.53 829.591 504.291 829.591 568.2Z" fill="#F6B993"/>
<path d="M342 752.5C416.253 649.864 461.171 433.584 328.681 280.222L387.985 252.224C596.185 473.61 416.373 783.994 416.373 783.994C416.373 783.994 359.957 758.684 342 752.5Z" fill="white"/>
<path d="M342 752.5C416.253 649.864 461.171 433.584 328.681 280.222L387.985 252.224C596.185 473.61 416.373 783.994 416.373 783.994C416.373 783.994 359.957 758.684 342 752.5Z" fill="white"/>
<path d="M328.968 746.542C330.932 747.553 332.904 748.553 334.882 749.543L329.995 756.298L339.558 759.591C348.2 762.567 366.495 770.306 382.932 777.445C391.084 780.985 398.679 784.334 404.237 786.799C407.016 788.031 409.284 789.041 410.857 789.743C411.643 790.094 412.255 790.368 412.671 790.554L413.143 790.765L413.263 790.819L413.293 790.832L413.3 790.835L413.302 790.836C413.302 790.836 413.302 790.836 413.474 790.455L413.303 790.836L419.472 793.604L422.862 787.753L416.373 783.994C422.862 787.753 422.864 787.749 422.867 787.744L422.876 787.729L422.907 787.676C422.932 787.631 422.969 787.568 423.016 787.486C423.109 787.321 423.245 787.083 423.42 786.771C423.533 786.57 423.663 786.338 423.809 786.076C450.4 794.88 477.456 802.119 504.412 807.796C518.528 825.158 533.761 841.773 550.118 856.603C589.723 892.511 636.535 918.5 690.48 918.5C744.25 918.5 781.445 896.678 804.84 861.279C818.169 841.112 826.859 816.79 831.823 790.069C865.518 778.667 898.957 764.625 931.258 748.405C965.164 778.087 1005.16 799.465 1051.18 799.465C1097.85 799.465 1130.28 780.853 1150.7 750.525C1158.54 738.873 1164.53 725.613 1168.93 711.215C1197.82 728.051 1229.37 738.312 1263.55 738.312C1322.5 738.312 1363.03 712.531 1388.41 671.154C1413.48 630.294 1423.5 574.759 1423.5 515.083C1423.5 455.404 1413.48 399.462 1388.43 358.19C1363.07 316.407 1322.56 290.149 1263.55 290.149C1231.72 290.149 1201.9 298.165 1174.28 312.039C1177.36 295.555 1178.74 278.031 1178.74 260.04C1178.74 216.942 1170.8 176.236 1150.72 146.082C1130.33 115.461 1097.9 96.5 1051.18 96.5C965.092 96.5 897.622 163.658 853.688 238.106C846.677 235.464 839.643 232.946 832.59 230.555C827.78 202.003 818.89 175.933 804.86 154.473C781.49 118.728 744.303 96.5 690.48 96.5C608.912 96.5 541.758 149.822 492.22 217.544C459.32 225.403 426.405 235.647 394.495 248.204C394.147 247.831 393.798 247.459 393.448 247.086L389.713 243.115L384.783 245.442L325.479 273.44L316.551 277.655L320.763 282.53C225.03 334.795 147.139 411.208 123.703 509.951L123.298 511.657L123.691 513.366C147.755 617.861 229.447 695.351 328.968 746.542Z" stroke="white" stroke-width="15"/>
</g>
<defs>
<clipPath id="clip0_153_171">
<path d="M0 500C0 223.858 223.858 0 500 0V0C776.142 0 1000 223.858 1000 500V500C1000 776.142 776.142 1000 500 1000V1000C223.858 1000 0 776.142 0 500V500Z" fill="white"/>
</clipPath>
</defs>
</svg>
