<svg width="210" height="210" viewBox="0 0 210 210" fill="none" xmlns="http://www.w3.org/2000/svg">
<g clip-path="url(#clip0_203_2140)">
<path d="M0 105C0 47.0101 47.0101 0 105 0V0C162.99 0 210 47.0101 210 105V105C210 162.99 162.99 210 105 210V210C47.0101 210 0 162.99 0 105V105Z" fill="#78C2B2"/>
<g filter="url(#filter0_i_203_2140)">
<path d="M105.853 66C139.819 66 167 97.9016 167 123.363C167 148.824 139.819 147.997 105.853 147.997C71.8879 147.997 44 148.824 44 123.363C44 97.9016 71.8879 66 105.853 66Z" fill="#B0F1E3"/>
</g>
<path d="M105.853 68.5C122.038 68.5 136.715 76.1065 147.387 86.8919C158.094 97.7122 164.5 111.454 164.5 123.363C164.5 129.259 162.94 133.35 160.344 136.303C157.709 139.301 153.768 141.397 148.513 142.814C138.486 145.517 124.703 145.508 108.786 145.498C107.816 145.498 106.839 145.497 105.853 145.497C104.867 145.497 103.887 145.498 102.914 145.498C86.9834 145.508 73.0292 145.517 62.8307 142.811C57.48 141.392 53.4477 139.289 50.7484 136.283C48.0949 133.328 46.5 129.242 46.5 123.363C46.5 111.475 53.0643 97.7364 63.9527 86.9059C74.805 76.1113 89.6638 68.5 105.853 68.5Z" stroke="white" stroke-width="5"/>
<g filter="url(#filter1_i_203_2140)">
<rect x="55" y="141" width="100" height="23" rx="11.5" fill="#B0F1E3"/>
</g>
<rect x="57.5" y="143.5" width="95" height="18" rx="9" stroke="white" stroke-width="5"/>
<path d="M74 161C63.2366 163.274 40.7871 170.669 37.0968 182.054C32.4839 196.285 30.8065 209.347 9 215" stroke="white" stroke-width="4" stroke-linecap="round"/>
<path d="M83 161C75.5484 163.653 60.0065 172.281 57.4516 185.563C54.2581 202.166 53.0968 217.404 38 224" stroke="white" stroke-width="4" stroke-linecap="round"/>
<path d="M91.0356 161C86.1193 164.419 76.3036 174.667 76.3703 188.311C76.4538 205.367 77.7873 220.845 67.9999 229" stroke="white" stroke-width="4" stroke-linecap="round"/>
<path d="M101.134 161C97.9263 164.318 94.3924 175.149 95.1346 189.398C96.0623 207.209 98.0395 223.581 95.9999 231" stroke="white" stroke-width="4" stroke-linecap="round"/>
<path d="M136.679 161C147.442 163.274 169.892 170.669 173.582 182.054C178.195 196.285 179.873 209.347 201.679 215" stroke="white" stroke-width="4" stroke-linecap="round"/>
<path d="M127.679 161C135.131 163.653 150.673 172.281 153.227 185.563C156.421 202.166 157.582 217.404 172.679 224" stroke="white" stroke-width="4" stroke-linecap="round"/>
<path d="M119.643 161C124.559 164.419 134.375 174.667 134.308 188.311C134.225 205.367 132.891 220.845 142.679 229" stroke="white" stroke-width="4" stroke-linecap="round"/>
<path d="M109.545 161C112.753 164.318 116.287 175.149 115.544 189.398C114.617 207.209 112.639 223.581 114.679 231" stroke="white" stroke-width="4" stroke-linecap="round"/>
<g filter="url(#filter2_d_203_2140)">
<ellipse cx="77.5" cy="119" rx="11.5" ry="12" fill="#78C2B2"/>
<path d="M86.5 119C86.5 124.348 82.3714 128.5 77.5 128.5C72.6286 128.5 68.5 124.348 68.5 119C68.5 113.652 72.6286 109.5 77.5 109.5C82.3714 109.5 86.5 113.652 86.5 119Z" stroke="white" stroke-width="5"/>
</g>
<g filter="url(#filter3_d_203_2140)">
<ellipse cx="132.5" cy="115" rx="9.5" ry="13" fill="#78C2B2"/>
<path d="M139.5 115C139.5 118.116 138.573 120.837 137.199 122.717C135.823 124.6 134.132 125.5 132.5 125.5C130.868 125.5 129.177 124.6 127.801 122.717C126.427 120.837 125.5 118.116 125.5 115C125.5 111.884 126.427 109.163 127.801 107.283C129.177 105.4 130.868 104.5 132.5 104.5C134.132 104.5 135.823 105.4 137.199 107.283C138.573 109.163 139.5 111.884 139.5 115Z" stroke="white" stroke-width="5"/>
</g>
<g filter="url(#filter4_d_203_2140)">
<ellipse cx="99" cy="90" rx="17" ry="12" fill="#78C2B2"/>
<path d="M113.5 90C113.5 92.2835 112.192 94.5981 109.579 96.4429C106.972 98.283 103.24 99.5 99 99.5C94.7601 99.5 91.0277 98.283 88.4209 96.4429C85.8075 94.5981 84.5 92.2835 84.5 90C84.5 87.7165 85.8075 85.4019 88.4209 83.5571C91.0277 81.717 94.7601 80.5 99 80.5C103.24 80.5 106.972 81.717 109.579 83.5571C112.192 85.4019 113.5 87.7165 113.5 90Z" stroke="white" stroke-width="5"/>
</g>
</g>
<defs>
<filter id="filter0_i_203_2140" x="44" y="53.7" width="135.3" height="94.3" filterUnits="userSpaceOnUse" color-interpolation-filters="sRGB">
<feFlood flood-opacity="0" result="BackgroundImageFix"/>
<feBlend mode="normal" in="SourceGraphic" in2="BackgroundImageFix" result="shape"/>
<feColorMatrix in="SourceAlpha" type="matrix" values="0 0 0 0 0 0 0 0 0 0 0 0 0 0 0 0 0 0 127 0" result="hardAlpha"/>
<feOffset dx="19" dy="-18"/>
<feGaussianBlur stdDeviation="6.15"/>
<feComposite in2="hardAlpha" operator="arithmetic" k2="-1" k3="1"/>
<feColorMatrix type="matrix" values="0 0 0 0 0 0 0 0 0 0 0 0 0 0 0 0 0 0 0.25 0"/>
<feBlend mode="normal" in2="shape" result="effect1_innerShadow_203_2140"/>
</filter>
<filter id="filter1_i_203_2140" x="55" y="132.1" width="108.9" height="31.9" filterUnits="userSpaceOnUse" color-interpolation-filters="sRGB">
<feFlood flood-opacity="0" result="BackgroundImageFix"/>
<feBlend mode="normal" in="SourceGraphic" in2="BackgroundImageFix" result="shape"/>
<feColorMatrix in="SourceAlpha" type="matrix" values="0 0 0 0 0 0 0 0 0 0 0 0 0 0 0 0 0 0 127 0" result="hardAlpha"/>
<feOffset dx="14" dy="-11"/>
<feGaussianBlur stdDeviation="4.45"/>
<feComposite in2="hardAlpha" operator="arithmetic" k2="-1" k3="1"/>
<feColorMatrix type="matrix" values="0 0 0 0 0 0 0 0 0 0 0 0 0 0 0 0 0 0 0.25 0"/>
<feBlend mode="normal" in2="shape" result="effect1_innerShadow_203_2140"/>
</filter>
<filter id="filter2_d_203_2140" x="62" y="107" width="31" height="32" filterUnits="userSpaceOnUse" color-interpolation-filters="sRGB">
<feFlood flood-opacity="0" result="BackgroundImageFix"/>
<feColorMatrix in="SourceAlpha" type="matrix" values="0 0 0 0 0 0 0 0 0 0 0 0 0 0 0 0 0 0 127 0" result="hardAlpha"/>
<feOffset dy="4"/>
<feGaussianBlur stdDeviation="2"/>
<feComposite in2="hardAlpha" operator="out"/>
<feColorMatrix type="matrix" values="0 0 0 0 0 0 0 0 0 0 0 0 0 0 0 0 0 0 0.25 0"/>
<feBlend mode="normal" in2="BackgroundImageFix" result="effect1_dropShadow_203_2140"/>
<feBlend mode="normal" in="SourceGraphic" in2="effect1_dropShadow_203_2140" result="shape"/>
</filter>
<filter id="filter3_d_203_2140" x="119" y="102" width="27" height="34" filterUnits="userSpaceOnUse" color-interpolation-filters="sRGB">
<feFlood flood-opacity="0" result="BackgroundImageFix"/>
<feColorMatrix in="SourceAlpha" type="matrix" values="0 0 0 0 0 0 0 0 0 0 0 0 0 0 0 0 0 0 127 0" result="hardAlpha"/>
<feOffset dy="4"/>
<feGaussianBlur stdDeviation="2"/>
<feComposite in2="hardAlpha" operator="out"/>
<feColorMatrix type="matrix" values="0 0 0 0 0 0 0 0 0 0 0 0 0 0 0 0 0 0 0.25 0"/>
<feBlend mode="normal" in2="BackgroundImageFix" result="effect1_dropShadow_203_2140"/>
<feBlend mode="normal" in="SourceGraphic" in2="effect1_dropShadow_203_2140" result="shape"/>
</filter>
<filter id="filter4_d_203_2140" x="78" y="78" width="42" height="32" filterUnits="userSpaceOnUse" color-interpolation-filters="sRGB">
<feFlood flood-opacity="0" result="BackgroundImageFix"/>
<feColorMatrix in="SourceAlpha" type="matrix" values="0 0 0 0 0 0 0 0 0 0 0 0 0 0 0 0 0 0 127 0" result="hardAlpha"/>
<feOffset dy="4"/>
<feGaussianBlur stdDeviation="2"/>
<feComposite in2="hardAlpha" operator="out"/>
<feColorMatrix type="matrix" values="0 0 0 0 0 0 0 0 0 0 0 0 0 0 0 0 0 0 0.25 0"/>
<feBlend mode="normal" in2="BackgroundImageFix" result="effect1_dropShadow_203_2140"/>
<feBlend mode="normal" in="SourceGraphic" in2="effect1_dropShadow_203_2140" result="shape"/>
</filter>
<clipPath id="clip0_203_2140">
<path d="M0 105C0 47.0101 47.0101 0 105 0V0C162.99 0 210 47.0101 210 105V105C210 162.99 162.99 210 105 210V210C47.0101 210 0 162.99 0 105V105Z" fill="white"/>
</clipPath>
</defs>
</svg>
