<svg width="1000" height="1000" viewBox="0 0 1000 1000" fill="none" xmlns="http://www.w3.org/2000/svg">
<g clip-path="url(#clip0_203_2133)">
<path d="M0 500C0 223.858 223.858 0 500 0V0C776.142 0 1000 223.858 1000 500V500C1000 776.142 776.142 1000 500 1000V1000C223.858 1000 0 776.142 0 500V500Z" fill="#F8A2F5"/>
<path d="M290.964 580.182C236.777 610.369 167.945 591.678 137.223 538.434C106.501 485.19 101.187 375.377 155.374 345.19C209.561 315.002 302.729 375.872 333.451 429.116C364.173 482.36 345.151 549.995 290.964 580.182Z" fill="#F7D7F8"/>
<path d="M736.643 559.556C790.83 589.743 859.662 571.052 890.384 517.808C921.106 464.564 926.42 354.751 872.233 324.564C818.046 294.376 724.877 355.246 694.155 408.49C663.434 461.734 682.456 529.369 736.643 559.556Z" fill="#F7D7F8"/>
<path d="M834 713.36C834 938.338 684.302 1120.72 499.641 1120.72C314.98 1120.72 165.283 938.338 165.283 713.36C165.283 488.381 314.98 306 499.641 306C684.302 306 834 488.381 834 713.36Z" fill="#F7D7F8"/>
<path d="M208.541 726.264L467.745 944.684C467.745 944.684 274.242 979.988 263.486 971.717C252.73 963.447 131.847 1138.77 113.04 1107.42C94.2322 1076.08 208.541 726.264 208.541 726.264Z" fill="#F7D7F8"/>
<path d="M775.577 715.951L516.373 934.371C516.373 934.371 709.877 969.675 720.632 961.405C731.388 953.134 852.271 1128.45 871.079 1097.11C889.886 1065.76 775.577 715.951 775.577 715.951Z" fill="#F7D7F8"/>
<path d="M303.695 615.645L522.939 834.598L240.296 868.345C240.296 868.345 90.7408 981.495 83.4049 956.005C76.069 930.515 170.852 765.216 170.852 765.216L303.695 615.645Z" fill="#F7D7F8"/>
<path d="M299.365 852.894L606.975 887.623L464.66 1036.22C464.66 1036.22 446.018 1250.08 418.033 1247.98C390.048 1245.89 299.365 852.894 299.365 852.894Z" fill="#F7D7F8"/>
<path d="M686.307 852.894L378.696 887.623L521.011 1036.22C521.011 1036.22 539.654 1250.08 567.639 1247.98C595.624 1245.89 686.307 852.894 686.307 852.894Z" fill="#F7D7F8"/>
<path d="M224.079 818.259L484.196 833.792C484.196 833.792 369.579 949.492 326.46 1048.53C299.365 1110.76 302.442 1219.2 277.64 1218.93C252.838 1218.66 225.087 1018.52 225.087 1018.52L224.079 818.259Z" fill="#F7D7F8"/>
<path d="M696.305 610.488L477.061 829.442L759.704 863.189C759.704 863.189 909.259 976.338 916.595 950.848C923.931 925.358 829.148 760.06 829.148 760.06L696.305 610.488Z" fill="#F7D7F8"/>
<path d="M758.248 818.259L498.131 833.792C498.131 833.792 612.748 949.492 655.867 1048.53C682.962 1110.76 679.885 1219.2 704.687 1218.93C729.489 1218.66 757.239 1018.52 757.239 1018.52L758.248 818.259Z" fill="#F7D7F8"/>
<path d="M269.109 698.709C276.983 731.316 269.697 760.501 252.836 763.897C235.975 767.292 215.924 743.611 208.05 711.005C200.177 678.398 207.463 649.212 224.324 645.817C241.185 642.421 261.236 666.102 269.109 698.709Z" fill="#6E6E6E"/>
<path d="M729.944 700.209C722.071 732.816 729.357 762.002 746.218 765.397C763.079 768.792 783.13 745.112 791.003 712.505C798.876 679.898 791.591 650.712 774.73 647.317C757.869 643.922 737.818 667.602 729.944 700.209Z" fill="#6E6E6E"/>
<path d="M458.489 806.176C458.489 821.219 462.825 835.646 470.543 846.283C478.26 856.921 488.727 862.897 499.641 862.897C510.555 862.897 521.023 856.921 528.74 846.283C536.457 835.646 540.793 821.219 540.793 806.176H458.489Z" fill="#F2A3C8"/>
<path d="M154.283 713.359C154.283 731.557 155.248 749.505 157.121 767.128C154.534 771.715 150.879 778.24 146.526 786.128C137.722 802.083 126.045 823.649 114.585 846.04C103.15 868.386 91.8285 891.753 83.8018 911.253C79.7986 920.979 76.5037 930.008 74.4406 937.606C73.4097 941.402 72.6214 945.075 72.2458 948.442C71.89 951.632 71.7943 955.434 72.8339 959.047C74.284 964.086 77.847 967.741 82.4557 969.499C86.4253 971.013 90.5246 970.895 93.7411 970.455C100.247 969.567 107.931 966.639 115.665 963.03C119.525 961.229 123.631 959.145 127.913 956.84C120.663 983.852 114.168 1009.77 109.277 1032.31C105.21 1051.06 102.191 1067.74 100.804 1080.89C100.112 1087.45 99.7929 1093.42 100.024 1098.48C100.236 1103.1 100.949 1108.65 103.607 1113.08C106.174 1117.36 110.147 1120.52 115.256 1121.69C119.93 1122.76 124.429 1121.9 128.067 1120.64C135.192 1118.17 142.779 1112.81 150.05 1106.7C164.921 1094.19 182.632 1074.87 199.571 1055.45C205.374 1048.8 211.039 1042.2 216.503 1035.79C217.184 1040.29 218.004 1045.59 218.948 1051.52C221.95 1070.37 226.22 1095.56 231.278 1120.79C236.318 1145.93 242.211 1171.47 248.501 1190.89C251.621 1200.53 255.013 1209.21 258.703 1215.69C260.537 1218.91 262.733 1222.1 265.405 1224.63C268.03 1227.11 272.121 1229.87 277.522 1229.93C285.291 1230.01 290.892 1225.62 294.483 1220.92C297.946 1216.4 300.429 1210.56 302.378 1204.58C306.308 1192.54 309.212 1176.22 312.045 1158.95C312.578 1155.7 313.111 1152.41 313.649 1149.08C317.539 1125.03 321.701 1099.3 328.174 1076.73C334.489 1081.12 340.931 1085.26 347.493 1089.17C357.567 1125.73 367.828 1160.71 377.254 1188.86C383.512 1207.55 389.512 1223.56 394.949 1235.09C397.643 1240.81 400.405 1245.88 403.227 1249.72C404.634 1251.63 406.314 1253.6 408.3 1255.21C410.207 1256.76 413.233 1258.66 417.21 1258.95C422.784 1259.37 427.277 1256.95 430.374 1254.26C433.382 1251.66 435.748 1248.27 437.65 1244.9C441.476 1238.12 444.781 1228.96 447.696 1218.82C453.58 1198.37 458.617 1171.27 462.714 1144.56C463.478 1139.57 464.212 1134.59 464.914 1129.65C476.325 1131.02 487.909 1131.72 499.641 1131.72C506.799 1131.72 513.901 1131.46 520.942 1130.94C521.588 1135.46 522.26 1140.01 522.958 1144.56C527.054 1171.27 532.092 1198.37 537.976 1218.82C540.891 1228.96 544.195 1238.12 548.021 1244.9C549.924 1248.27 552.29 1251.66 555.298 1254.26C558.394 1256.95 562.887 1259.37 568.461 1258.95C572.439 1258.66 575.465 1256.76 577.372 1255.21C579.357 1253.6 581.038 1251.63 582.445 1249.72C585.266 1245.88 588.029 1240.81 590.723 1235.09C596.16 1223.56 602.159 1207.55 608.417 1188.86C617.071 1163.02 626.428 1131.42 635.698 1098.12C642.826 1094.42 649.828 1090.44 656.693 1086.19C661.763 1106.33 665.322 1128.33 668.678 1149.08C669.216 1152.41 669.749 1155.7 670.282 1158.95C673.115 1176.22 676.019 1192.54 679.948 1204.58C681.898 1210.56 684.381 1216.4 687.844 1220.92C691.435 1225.62 697.036 1230.01 704.805 1229.93C710.205 1229.87 714.297 1227.11 716.922 1224.63C719.594 1222.1 721.79 1218.91 723.624 1215.69C727.314 1209.21 730.706 1200.53 733.826 1190.89C740.116 1171.47 746.009 1145.93 751.049 1120.79C756.107 1095.56 760.377 1070.37 763.379 1051.52C764.881 1042.09 766.068 1034.23 766.881 1028.72C767.073 1027.42 767.244 1026.25 767.393 1025.22C772.926 1031.7 778.665 1038.4 784.547 1045.14C801.487 1064.56 819.197 1083.87 834.069 1096.38C841.34 1102.5 848.926 1107.86 856.051 1110.33C859.689 1111.59 864.188 1112.45 868.863 1111.38C873.971 1110.21 877.944 1107.05 880.511 1102.77C883.169 1098.34 883.883 1092.79 884.094 1088.16C884.325 1083.11 884.006 1077.13 883.314 1070.58C881.927 1057.43 878.908 1040.74 874.841 1022C869.671 998.171 862.709 970.571 854.957 941.894C865.473 948.2 875.542 953.771 884.335 957.873C892.069 961.482 899.753 964.41 906.259 965.299C909.475 965.738 913.575 965.856 917.544 964.342C922.153 962.584 925.716 958.929 927.166 953.891C928.206 950.278 928.11 946.475 927.754 943.286C927.379 939.919 926.59 936.246 925.559 932.449C923.496 924.851 920.201 915.822 916.198 906.097C908.171 886.597 896.85 863.23 885.414 840.884C873.955 818.492 862.278 796.926 853.474 780.971C849.069 772.99 845.379 766.403 842.787 761.808C842.762 761.763 842.737 761.719 842.711 761.674C844.223 745.806 845 729.683 845 713.359C845 666.881 838.706 622.031 827.061 580.063C856.821 571.492 883.371 551.973 899.912 523.305C916.507 494.543 925.815 451.624 924.14 412.074C922.489 373.104 909.862 332.935 877.587 314.954C845.405 297.026 804.018 306.958 769.215 325.536C744.861 338.537 721.771 356.758 704.34 376.244C647.297 325.275 576.664 295 499.641 295C424.196 295 354.881 324.047 298.464 373.139C286.092 362.914 272.452 353.668 258.392 346.162C223.589 327.583 182.202 317.652 150.02 335.58C117.745 353.561 105.118 393.73 103.467 432.7C101.792 472.249 111.099 515.169 127.695 543.931C138.338 562.376 153.123 577.034 170.242 587.425C159.865 627.261 154.283 669.588 154.283 713.359Z" stroke="white" stroke-width="22"/>
</g>
<defs>
<clipPath id="clip0_203_2133">
<path d="M0 500C0 223.858 223.858 0 500 0V0C776.142 0 1000 223.858 1000 500V500C1000 776.142 776.142 1000 500 1000V1000C223.858 1000 0 776.142 0 500V500Z" fill="white"/>
</clipPath>
</defs>
</svg>
