<svg width="1000" height="1000" viewBox="0 0 1000 1000" fill="none" xmlns="http://www.w3.org/2000/svg">
<g clip-path="url(#clip0_203_2133)">
<path d="M0 500C0 223.858 223.858 0 500 0V0C776.142 0 1000 223.858 1000 500V500C1000 776.142 776.142 1000 500 1000V1000C223.858 1000 0 776.142 0 500V500Z" fill="#F8A2F5"/>
<path d="M290.964 580.182C236.777 610.369 167.945 591.678 137.223 538.434C106.501 485.19 101.187 375.377 155.374 345.19C209.561 315.002 302.729 375.872 333.451 429.116C364.173 482.36 345.151 549.995 290.964 580.182Z" fill="#F7D7F8"/>
<path d="M736.643 559.556C790.83 589.743 859.662 571.052 890.384 517.808C921.106 464.564 926.42 354.751 872.233 324.564C818.046 294.376 724.877 355.246 694.156 408.49C663.434 461.734 682.456 529.369 736.643 559.556Z" fill="#F7D7F8"/>
<path d="M834 713.36C834 938.338 684.302 1120.72 499.641 1120.72C314.98 1120.72 165.283 938.338 165.283 713.36C165.283 488.381 314.98 306 499.641 306C684.302 306 834 488.381 834 713.36Z" fill="#F7D7F8"/>
<path d="M208.541 726.264L467.745 944.684C467.745 944.684 274.242 979.988 263.486 971.717C252.73 963.447 131.847 1138.77 113.04 1107.42C94.2322 1076.08 208.541 726.264 208.541 726.264Z" fill="#F7D7F8"/>
<path d="M775.577 715.951L516.373 934.371C516.373 934.371 709.877 969.675 720.632 961.405C731.388 953.134 852.271 1128.45 871.079 1097.11C889.886 1065.76 775.577 715.951 775.577 715.951Z" fill="#F7D7F8"/>
<path d="M303.695 615.645L522.939 834.598L240.296 868.345C240.296 868.345 90.7408 981.495 83.4049 956.005C76.069 930.515 170.852 765.216 170.852 765.216L303.695 615.645Z" fill="#F7D7F8"/>
<path d="M299.365 852.894L606.975 887.623L464.66 1036.22C464.66 1036.22 446.018 1250.08 418.033 1247.98C390.048 1245.89 299.365 852.894 299.365 852.894Z" fill="#F7D7F8"/>
<path d="M686.307 852.894L378.696 887.623L521.011 1036.22C521.011 1036.22 539.654 1250.08 567.639 1247.98C595.624 1245.89 686.307 852.894 686.307 852.894Z" fill="#F7D7F8"/>
<path d="M224.079 818.259L484.196 833.792C484.196 833.792 369.579 949.492 326.46 1048.53C299.365 1110.76 302.442 1219.2 277.64 1218.93C252.838 1218.66 225.087 1018.52 225.087 1018.52L224.079 818.259Z" fill="#F7D7F8"/>
<path d="M696.305 610.488L477.061 829.442L759.704 863.189C759.704 863.189 909.259 976.338 916.595 950.848C923.931 925.358 829.148 760.06 829.148 760.06L696.305 610.488Z" fill="#F7D7F8"/>
<path d="M758.248 818.259L498.131 833.792C498.131 833.792 612.748 949.492 655.867 1048.53C682.962 1110.76 679.885 1219.2 704.687 1218.93C729.489 1218.66 757.239 1018.52 757.239 1018.52L758.248 818.259Z" fill="#F7D7F8"/>
<path d="M269.109 698.709C276.983 731.316 269.697 760.501 252.836 763.897C235.975 767.292 215.924 743.611 208.05 711.005C200.177 678.398 207.463 649.212 224.324 645.817C241.185 642.421 261.236 666.102 269.109 698.709Z" fill="#6E6E6E"/>
<path d="M729.944 700.209C722.071 732.816 729.357 762.002 746.218 765.397C763.079 768.792 783.13 745.112 791.003 712.505C798.877 679.898 791.591 650.712 774.73 647.317C757.869 643.922 737.818 667.602 729.944 700.209Z" fill="#6E6E6E"/>
<path d="M458.49 806.176C458.49 821.219 462.825 835.646 470.543 846.283C478.26 856.921 488.727 862.897 499.641 862.897C510.555 862.897 521.023 856.921 528.74 846.283C536.457 835.646 540.793 821.219 540.793 806.176H458.49Z" fill="#F2A3C8"/>
<path d="M162.783 713.36C162.783 732.207 163.83 750.762 165.857 768.944C165.478 769.614 165.064 770.347 164.617 771.14C162.036 775.716 158.358 782.279 153.968 790.234C145.189 806.143 133.557 827.626 122.152 849.913C110.752 872.189 99.5554 895.312 91.6619 914.489C87.7175 924.071 84.5726 932.729 82.6435 939.833C81.6791 943.385 81.0038 946.602 80.6934 949.384C80.3875 952.127 80.4118 954.644 81.0024 956.696C81.6862 959.072 83.2796 960.716 85.4848 961.557C87.5448 962.343 90.0086 962.386 92.5908 962.034C97.7719 961.326 104.498 958.861 112.071 955.327C120.773 951.267 130.874 945.66 141.512 939.255C132.131 973.231 123.619 1006.3 117.584 1034.11C113.541 1052.75 110.597 1069.08 109.257 1081.78C108.588 1088.13 108.311 1093.63 108.515 1098.09C108.715 1102.45 109.383 1106.19 110.896 1108.71C112.388 1111.19 114.507 1112.8 117.152 1113.41C119.699 1113.99 122.474 1113.59 125.282 1112.61C130.863 1110.68 137.46 1106.18 144.578 1100.19C158.889 1088.15 176.212 1069.3 193.166 1049.87C201.036 1040.84 208.804 1031.72 216.182 1023.06C218.349 1020.52 220.481 1018.02 222.573 1015.57L222.588 1018.53L222.588 1018.7L222.611 1018.86L225.087 1018.52C222.611 1018.86 222.611 1018.86 222.612 1018.86L222.613 1018.87L222.616 1018.9L222.632 1019.01L222.692 1019.44C222.746 1019.82 222.825 1020.38 222.93 1021.12C223.14 1022.59 223.451 1024.74 223.855 1027.48C224.664 1032.96 225.846 1040.79 227.342 1050.19C230.334 1068.97 234.584 1094.04 239.612 1119.11C244.636 1144.17 250.452 1169.33 256.587 1188.27C259.649 1197.73 262.83 1205.76 266.089 1211.48C267.716 1214.34 269.428 1216.73 271.245 1218.45C273.051 1220.16 275.188 1221.4 277.613 1221.43C281.775 1221.48 285.106 1219.19 287.733 1215.76C290.33 1212.36 292.455 1207.59 294.298 1201.95C297.99 1190.63 300.804 1174.96 303.657 1157.57C304.193 1154.3 304.731 1150.97 305.277 1147.59C309.77 1119.77 314.788 1088.7 323.604 1062.9C333.648 1070.41 344.043 1077.29 354.751 1083.5C365.103 1121.22 375.662 1157.34 385.314 1186.16C391.542 1204.76 397.417 1220.39 402.638 1231.47C405.243 1237 407.732 1241.5 410.075 1244.68C411.245 1246.27 412.437 1247.62 413.655 1248.61C414.856 1249.58 416.266 1250.36 417.846 1250.48C420.464 1250.67 422.809 1249.57 424.806 1247.84C426.783 1246.13 428.584 1243.66 430.248 1240.72C433.581 1234.81 436.669 1226.41 439.527 1216.47C445.256 1196.56 450.229 1169.9 454.312 1143.27C455.506 1135.49 456.625 1127.7 457.665 1120.07C471.413 1122.15 485.422 1123.22 499.641 1123.22C509.275 1123.22 518.813 1122.73 528.239 1121.77C529.213 1128.85 530.254 1136.06 531.36 1143.27C535.443 1169.9 540.416 1196.56 546.144 1216.47C549.003 1226.41 552.09 1234.81 555.423 1240.72C557.087 1243.66 558.889 1246.13 560.866 1247.84C562.863 1249.57 565.207 1250.67 567.826 1250.48C569.405 1250.36 570.816 1249.58 572.016 1248.61C573.234 1247.62 574.427 1246.27 575.597 1244.68C577.94 1241.5 580.429 1237 583.034 1231.47C588.255 1220.39 594.13 1204.76 600.357 1186.16C609.267 1159.55 618.95 1126.73 628.529 1092.17C639.961 1086.41 651.075 1079.9 661.828 1072.7C668.773 1096.34 673.113 1123.22 677.05 1147.59C677.596 1150.97 678.134 1154.3 678.67 1157.57C681.523 1174.96 684.337 1190.63 688.029 1201.95C689.872 1207.59 691.997 1212.36 694.594 1215.76C697.22 1219.19 700.552 1221.48 704.714 1221.43C707.139 1221.4 709.276 1220.16 711.082 1218.45C712.899 1216.73 714.611 1214.34 716.238 1211.48C719.497 1205.76 722.678 1197.73 725.74 1188.27C731.875 1169.33 737.691 1144.17 742.715 1119.11C747.743 1094.04 751.993 1068.97 754.985 1050.19C756.481 1040.79 757.663 1032.96 758.472 1027.48C758.876 1024.74 759.187 1022.59 759.397 1021.12C759.502 1020.38 759.581 1019.82 759.635 1019.44L759.695 1019.01L759.711 1018.9L759.714 1018.87L759.715 1018.86C759.716 1018.86 759.716 1018.86 757.239 1018.52L759.716 1018.86L759.739 1018.69L759.739 1018.53L759.817 1003.23C762.458 1006.32 765.17 1009.5 767.936 1012.75C775.314 1021.41 783.082 1030.53 790.952 1039.55C807.906 1058.99 825.23 1077.84 839.54 1089.88C846.658 1095.87 853.256 1100.36 858.836 1102.3C861.644 1103.27 864.419 1103.68 866.966 1103.1C869.611 1102.49 871.731 1100.88 873.222 1098.39C874.735 1095.87 875.403 1092.14 875.603 1087.78C875.807 1083.32 875.53 1077.81 874.861 1071.47C873.521 1058.77 870.577 1042.43 866.534 1023.8C860.16 994.422 851.022 959.184 841.016 923.203C857.871 934.034 874.553 943.93 887.929 950.171C895.503 953.704 902.228 956.169 907.409 956.877C909.992 957.23 912.455 957.186 914.515 956.4C916.72 955.559 918.314 953.916 918.998 951.54C919.588 949.488 919.613 946.97 919.307 944.228C918.996 941.445 918.321 938.229 917.357 934.677C915.427 927.572 912.283 918.915 908.338 909.332C900.445 890.156 889.248 867.032 877.848 844.756C866.443 822.47 854.811 800.987 846.032 785.078C841.642 777.123 837.964 770.559 835.383 765.984C834.879 765.089 834.416 764.271 833.998 763.533C835.65 747.085 836.5 730.341 836.5 713.36C836.5 664.441 829.446 617.488 816.501 573.943C847.518 567.378 875.66 548.329 892.549 519.057C908.191 491.949 917.268 450.695 915.647 412.434C914.032 374.304 901.721 338.13 873.45 322.38C845.2 306.642 807.328 314.826 773.218 333.035C746.834 347.119 722.156 367.474 705.067 388.478C648.268 335.216 577.067 303.5 499.641 303.5C424.199 303.5 354.665 333.613 298.607 384.429C285.314 372.733 270.156 362.077 254.389 353.66C220.279 335.452 182.407 327.268 154.157 343.006C125.886 358.755 113.575 394.93 111.96 433.06C110.339 471.321 119.416 512.575 135.058 539.683C146.068 558.765 161.86 573.503 180.114 583.27C168.87 624.166 162.783 667.915 162.783 713.36Z" stroke="white" stroke-width="5"/>
</g>
<defs>
<clipPath id="clip0_203_2133">
<path d="M0 500C0 223.858 223.858 0 500 0V0C776.142 0 1000 223.858 1000 500V500C1000 776.142 776.142 1000 500 1000V1000C223.858 1000 0 776.142 0 500V500Z" fill="white"/>
</clipPath>
</defs>
</svg>
