<svg width="1000" height="1000" viewBox="0 0 1000 1000" fill="none" xmlns="http://www.w3.org/2000/svg">
<g clip-path="url(#clip0_203_2136)">
<path d="M0 500C0 223.858 223.858 0 500 0V0C776.142 0 1000 223.858 1000 500V500C1000 776.142 776.142 1000 500 1000V1000C223.858 1000 0 776.142 0 500V500Z" fill="#907ED6"/>
<mask id="path-2-outside-1_203_2136" maskUnits="userSpaceOnUse" x="174" y="91" width="1500" height="1490" fill="black">
<rect fill="white" x="174" y="91" width="1500" height="1490"/>
<path d="M1381.35 672.748C1284.89 788.146 846.708 826.753 681.113 815.086C515.517 803.419 234.004 700.749 205.617 679.748C177.229 658.747 205.617 635.413 205.617 635.413C205.617 635.413 491.86 502.408 735.523 502.408C979.185 502.408 1245.35 542.077 1381.35 672.748Z"/>
<path d="M203.579 176.888L457.805 652.131L497.895 601.5C480.015 569.062 489.396 552.221 413.783 479.741C338.17 407.261 223.244 211.806 203.579 176.888Z"/>
<path d="M1457.23 662.85C1564.52 796.788 1509.29 925.857 1420.3 866.423C1331.31 806.99 1214.94 701.547 1156.52 648.893C1220.01 571.69 1343.35 475.025 1420.3 429.645C1497.25 384.265 1568.3 486.91 1457.23 662.85Z"/>
<path d="M379.281 621.212C379.281 633.625 373.53 643.688 366.434 643.688C359.339 643.688 353.587 633.625 353.587 621.212C353.587 608.798 359.339 598.735 366.434 598.735C373.53 598.735 379.281 608.798 379.281 621.212Z"/>
<path d="M408.3 110L465.254 645.921L521.437 614.063C517.06 577.284 562.971 670.86 489.257 469.628C415.543 268.395 428.935 218.509 408.3 110Z"/>
<path d="M459.032 1561.63L519.901 586.364L457.928 628.329C457.928 628.329 448.936 634.508 457.928 687.47C466.92 740.431 462.438 1361.72 459.032 1561.63Z"/>
<path d="M622.143 1562L576.664 585.892L519.619 634.34C519.619 634.34 511.352 641.459 526.046 693.131C540.74 744.802 603.803 1362.9 622.143 1562Z"/>
<path d="M1655 1502.78L1246.4 673.233L1229.51 729.584C1229.51 729.584 1227.1 737.834 1256.43 778.604C1285.76 819.373 1565.98 1335.9 1655 1502.78Z"/>
<path d="M1028.4 1012.27C949.536 899.029 931.098 819.41 927.616 658.996L676.973 772.288C676.973 772.288 640.64 788.749 698.941 787.61C757.241 786.472 968.769 954.845 1028.4 1012.27Z"/>
<path d="M1027.56 228.53C946.413 393.412 926.164 479.297 950.564 616.76L699.561 527.746C699.561 527.746 663.174 514.801 720.045 508.7C776.917 502.598 972.907 297.059 1027.56 228.53Z"/>
</mask>
<path d="M1381.35 672.748C1284.89 788.146 846.708 826.753 681.113 815.086C515.517 803.419 234.004 700.749 205.617 679.748C177.229 658.747 205.617 635.413 205.617 635.413C205.617 635.413 491.86 502.408 735.523 502.408C979.185 502.408 1245.35 542.077 1381.35 672.748Z" fill="#B6B4C7"/>
<path d="M203.579 176.888L457.805 652.131L497.895 601.5C480.015 569.062 489.396 552.221 413.783 479.741C338.17 407.261 223.244 211.806 203.579 176.888Z" fill="#B6B4C7"/>
<path d="M1457.23 662.85C1564.52 796.788 1509.29 925.857 1420.3 866.423C1331.31 806.99 1214.94 701.547 1156.52 648.893C1220.01 571.69 1343.35 475.025 1420.3 429.645C1497.25 384.265 1568.3 486.91 1457.23 662.85Z" fill="#B6B4C7"/>
<path d="M379.281 621.212C379.281 633.625 373.53 643.688 366.434 643.688C359.339 643.688 353.587 633.625 353.587 621.212C353.587 608.798 359.339 598.735 366.434 598.735C373.53 598.735 379.281 608.798 379.281 621.212Z" fill="white"/>
<path d="M408.3 110L465.254 645.921L521.437 614.063C517.06 577.284 562.971 670.86 489.257 469.628C415.543 268.395 428.935 218.509 408.3 110Z" fill="#B6B4C7"/>
<path d="M459.032 1561.63L519.901 586.364L457.928 628.329C457.928 628.329 448.936 634.508 457.928 687.47C466.92 740.431 462.438 1361.72 459.032 1561.63Z" fill="#B6B4C7"/>
<path d="M622.143 1562L576.664 585.892L519.619 634.34C519.619 634.34 511.352 641.459 526.046 693.131C540.74 744.802 603.803 1362.9 622.143 1562Z" fill="#B6B4C7"/>
<path d="M1655 1502.78L1246.4 673.233L1229.51 729.584C1229.51 729.584 1227.1 737.834 1256.43 778.604C1285.76 819.373 1565.98 1335.9 1655 1502.78Z" fill="#B6B4C7"/>
<path d="M1028.4 1012.27C949.536 899.029 931.098 819.41 927.616 658.996L676.973 772.288C676.973 772.288 640.64 788.749 698.941 787.61C757.241 786.472 968.769 954.845 1028.4 1012.27Z" fill="#B6B4C7"/>
<path d="M1027.56 228.53C946.413 393.412 926.164 479.297 950.564 616.76L699.561 527.746C699.561 527.746 663.174 514.801 720.045 508.7C776.917 502.598 972.907 297.059 1027.56 228.53Z" fill="#B6B4C7"/>
<path d="M1381.35 672.748L1395.16 684.292C1401.22 677.036 1400.64 666.322 1393.82 659.769L1381.35 672.748ZM205.617 635.413L198.032 619.089C196.653 619.73 195.361 620.542 194.187 621.508L205.617 635.413ZM457.805 652.131L441.934 660.621C444.795 665.97 450.159 669.518 456.201 670.059C462.243 670.6 468.151 668.061 471.917 663.304L457.805 652.131ZM203.579 176.888L219.263 168.055C214.422 159.459 203.565 156.362 194.917 161.109C186.269 165.856 183.054 176.68 187.707 185.378L203.579 176.888ZM413.783 479.741L401.327 492.736L401.327 492.736L413.783 479.741ZM497.895 601.5L512.007 612.674C516.508 606.99 517.159 599.16 513.659 592.811L497.895 601.5ZM1457.23 662.85L1442.01 653.242C1437.91 659.734 1438.39 668.111 1443.19 674.104L1457.23 662.85ZM1156.52 648.893L1142.62 637.46C1136.51 644.893 1137.32 655.819 1144.47 662.263L1156.52 648.893ZM465.254 645.921L447.354 647.823C447.996 653.856 451.633 659.16 457.029 661.932C462.425 664.704 468.855 664.571 474.132 661.579L465.254 645.921ZM408.3 110L425.983 106.637C424.179 97.1532 415.215 90.7808 405.665 92.1939C396.115 93.607 389.38 102.302 390.401 111.902L408.3 110ZM489.257 469.628L472.355 475.819L472.355 475.819L489.257 469.628ZM521.437 614.063L530.315 629.72C536.622 626.145 540.167 619.134 539.311 611.936L521.437 614.063ZM519.901 586.364L537.866 587.485C538.294 580.635 534.788 574.137 528.828 570.733C522.869 567.329 515.491 567.611 509.808 571.459L519.901 586.364ZM459.032 1561.63L441.035 1561.33C440.868 1571.11 448.543 1579.23 458.318 1579.62C468.093 1580.01 476.388 1572.52 476.997 1562.75L459.032 1561.63ZM457.928 687.47L475.674 684.457L475.674 684.457L457.928 687.47ZM457.928 628.329L447.836 613.425C447.802 613.448 447.768 613.471 447.734 613.494L457.928 628.329ZM576.664 585.892L594.645 585.054C594.325 578.198 590.135 572.12 583.84 569.384C577.546 566.648 570.243 567.729 565.012 572.172L576.664 585.892ZM622.143 1562L604.219 1563.65C605.116 1573.39 613.628 1580.63 623.387 1579.96C633.146 1579.28 640.578 1570.93 640.123 1561.16L622.143 1562ZM526.046 693.131L543.359 688.207L543.359 688.207L526.046 693.131ZM519.619 634.34L507.967 620.621C507.936 620.647 507.905 620.674 507.874 620.7L519.619 634.34ZM1246.4 673.233L1262.55 665.279C1259.28 658.641 1252.28 654.68 1244.9 655.295C1237.53 655.911 1231.28 660.977 1229.16 668.065L1246.4 673.233ZM1655 1502.78L1639.12 1511.26C1643.74 1519.93 1654.47 1523.29 1663.21 1518.8C1671.96 1514.32 1675.49 1503.65 1671.15 1494.83L1655 1502.78ZM1256.43 778.604L1271.04 768.092L1271.04 768.092L1256.43 778.604ZM1229.51 729.584L1212.27 724.417C1212.26 724.457 1212.25 724.498 1212.23 724.538L1229.51 729.584ZM927.616 658.996L945.612 658.606C945.481 652.563 942.326 646.99 937.213 643.768C932.099 640.546 925.71 640.105 920.202 642.594L927.616 658.996ZM1028.4 1012.27L1015.91 1025.23C1022.58 1031.66 1033.03 1031.97 1040.08 1025.96C1047.12 1019.95 1048.46 1009.58 1043.17 1001.98L1028.4 1012.27ZM698.941 787.61L698.589 769.614L698.589 769.614L698.941 787.61ZM676.973 772.288L669.559 755.886C669.554 755.888 669.549 755.89 669.544 755.892L676.973 772.288ZM950.564 616.76L944.547 633.724C950.587 635.866 957.309 634.636 962.199 630.494C967.088 626.352 969.407 619.923 968.287 613.614L950.564 616.76ZM1027.56 228.53L1043.71 236.478C1047.76 228.232 1044.96 218.253 1037.2 213.33C1029.44 208.407 1019.21 210.122 1013.48 217.308L1027.56 228.53ZM720.045 508.7L718.125 490.803L718.125 490.803L720.045 508.7ZM699.561 527.746L693.528 544.704C693.534 544.706 693.539 544.708 693.545 544.71L699.561 527.746ZM1367.54 661.204C1346.75 686.074 1305.32 708.828 1248.68 728.29C1192.79 747.495 1124.9 762.572 1054.33 773.79C913.034 796.248 763.499 802.846 682.378 797.131L679.847 833.042C764.322 838.993 916.673 832.122 1059.98 809.344C1131.71 797.943 1201.81 782.461 1260.38 762.336C1318.2 742.468 1367.72 717.122 1395.16 684.292L1367.54 661.204ZM682.378 797.131C601.781 791.452 491.667 763.412 397.31 733.746C350.33 718.975 307.673 703.934 275.099 691.327C258.799 685.019 245.149 679.367 234.803 674.704C223.886 669.783 218.099 666.592 216.322 665.277L194.911 694.219C200.231 698.154 209.451 702.765 220.01 707.524C231.14 712.541 245.433 718.448 262.105 724.9C295.473 737.815 338.867 753.108 386.513 768.088C481.408 797.924 594.848 827.053 679.847 833.042L682.378 797.131ZM735.523 520.408C856.507 520.408 982.517 530.268 1094.77 556.117C1207.32 582.034 1304.23 623.617 1368.88 685.728L1393.82 659.769C1322.46 591.208 1218.3 547.621 1102.85 521.035C987.106 494.383 858.201 484.408 735.523 484.408L735.523 520.408ZM216.322 665.277C211.701 661.859 211.129 659.694 211.066 659.45C210.98 659.117 210.867 658.345 211.57 656.668C212.325 654.869 213.661 652.953 215.127 651.29C215.81 650.516 216.409 649.922 216.796 649.558C216.986 649.379 217.115 649.265 217.164 649.221C217.189 649.199 217.193 649.196 217.175 649.212C217.165 649.22 217.15 649.232 217.129 649.25C217.118 649.259 217.106 649.269 217.092 649.28C217.086 649.286 217.078 649.292 217.071 649.298C217.067 649.302 217.061 649.307 217.059 649.308C217.053 649.313 217.047 649.318 205.617 635.413C194.187 621.508 194.18 621.513 194.174 621.518C194.171 621.52 194.165 621.526 194.16 621.53C194.151 621.537 194.141 621.546 194.131 621.554C194.11 621.571 194.088 621.59 194.064 621.61C194.015 621.65 193.96 621.697 193.898 621.749C193.773 621.855 193.622 621.985 193.445 622.139C193.093 622.448 192.64 622.855 192.109 623.355C191.054 624.349 189.658 625.742 188.122 627.484C185.153 630.852 181.166 636.083 178.373 642.742C175.528 649.524 173.64 658.523 176.215 668.471C178.813 678.509 185.339 687.137 194.911 694.219L216.322 665.277ZM205.617 635.413C213.202 651.737 213.2 651.738 213.2 651.738C213.201 651.737 213.202 651.737 213.204 651.736C213.21 651.733 213.219 651.729 213.233 651.722C213.261 651.709 213.306 651.689 213.368 651.66C213.493 651.602 213.685 651.514 213.945 651.394C214.466 651.156 215.255 650.796 216.302 650.323C218.398 649.376 221.529 647.975 225.614 646.186C233.786 642.606 245.772 637.473 260.934 631.303C291.267 618.96 334.253 602.491 384.774 586.025C486.142 552.985 616.503 520.408 735.523 520.408L735.523 484.408C610.88 484.408 476.288 518.333 373.618 551.797C322.121 568.581 278.317 585.363 247.365 597.959C231.884 604.258 219.605 609.516 211.17 613.21C206.953 615.058 203.696 616.515 201.479 617.516C200.371 618.017 199.523 618.404 198.945 618.668C198.656 618.801 198.435 618.903 198.282 618.973C198.206 619.009 198.147 619.036 198.105 619.055C198.084 619.065 198.067 619.073 198.055 619.078C198.049 619.081 198.043 619.084 198.04 619.085C198.035 619.087 198.032 619.089 205.617 635.413ZM473.677 643.64L219.451 168.397L187.707 185.378L441.934 660.621L473.677 643.64ZM187.895 185.72C197.895 203.477 231.744 261.409 272.625 324.065C313.201 386.253 361.842 454.887 401.327 492.736L426.239 466.747C390.11 432.116 343.482 366.782 302.775 304.393C262.374 242.472 228.928 185.217 219.263 168.055L187.895 185.72ZM401.327 492.736C438.452 528.322 453.549 549.164 461.645 564.179C465.724 571.744 468.239 578.205 471.057 585.483C473.864 592.731 477.011 600.899 482.131 610.189L513.659 592.811C509.839 585.881 507.454 579.781 504.628 572.483C501.814 565.215 498.595 556.853 493.332 547.093C482.746 527.459 464.726 503.64 426.239 466.747L401.327 492.736ZM483.783 590.326L443.694 640.957L471.917 663.304L512.007 612.674L483.783 590.326ZM1443.19 674.104C1494.55 738.23 1504.51 798.12 1495.02 832.345C1490.33 849.293 1481.57 858.32 1472.54 861.611C1463.58 864.874 1449.48 864.265 1430.29 851.455L1410.3 881.392C1435.61 898.298 1461.79 903.843 1484.86 895.436C1507.86 887.056 1522.89 866.589 1529.72 841.958C1543.28 793.022 1527.2 721.409 1471.28 651.597L1443.19 674.104ZM1430.29 851.455C1342.63 792.908 1227.34 688.495 1168.58 635.523L1144.47 662.263C1202.53 714.599 1319.98 821.071 1410.3 881.392L1430.29 851.455ZM1170.43 660.326C1232.24 585.156 1353.79 489.767 1429.44 445.149L1411.15 414.14C1332.91 460.282 1207.78 558.223 1142.62 637.46L1170.43 660.326ZM1429.44 445.149C1445.07 435.934 1458.2 435.388 1467.75 439.021C1477.31 442.657 1486.67 451.772 1492.14 468.763C1503.28 503.412 1496.27 567.29 1442.01 653.242L1472.46 672.459C1529.26 582.47 1542.26 507.056 1526.41 457.742C1518.37 432.752 1502.49 413.718 1480.55 405.373C1458.61 397.025 1434 400.665 1411.15 414.14L1429.44 445.149ZM361.281 621.212C361.281 624.866 360.397 627.289 359.891 628.173C359.655 628.587 359.807 628.134 360.728 627.453C361.757 626.691 363.739 625.688 366.434 625.688V661.688C379.227 661.688 387.292 652.78 391.146 646.037C395.29 638.787 397.281 629.971 397.281 621.212H361.281ZM366.434 625.688C369.129 625.688 371.112 626.691 372.141 627.453C373.061 628.134 373.214 628.587 372.978 628.173C372.472 627.289 371.587 624.866 371.587 621.212H335.587C335.587 629.971 337.579 638.787 341.723 646.037C345.577 652.78 353.642 661.688 366.434 661.688V625.688ZM371.587 621.212C371.587 617.558 372.472 615.135 372.978 614.251C373.214 613.837 373.061 614.29 372.141 614.971C371.112 615.733 369.129 616.735 366.434 616.735V580.735C353.642 580.735 345.577 589.644 341.723 596.386C337.579 603.637 335.587 612.452 335.587 621.212H371.587ZM366.434 616.735C363.739 616.735 361.757 615.733 360.728 614.971C359.807 614.29 359.655 613.837 359.891 614.251C360.397 615.135 361.281 617.558 361.281 621.212H397.281C397.281 612.452 395.29 603.637 391.146 596.386C387.292 589.644 379.227 580.735 366.434 580.735V616.735ZM483.153 644.019L426.199 108.098L390.401 111.902L447.354 647.823L483.153 644.019ZM390.617 113.363C410.65 218.707 397.996 272.826 472.355 475.819L506.159 463.436C433.09 263.964 447.22 218.311 425.983 106.637L390.617 113.363ZM472.355 475.819C490.765 526.076 501.573 557.571 507.551 577.17C510.552 587.01 512.208 593.444 513.02 597.553C514.034 602.68 513.184 601.739 513.971 598.824C514.574 596.587 516.441 592.277 521.346 589.448C525.795 586.882 529.865 587.254 531.035 587.403C532.191 587.55 532.976 587.837 532.107 587.573C531.839 587.492 530.02 586.904 528.116 586.562C526.217 586.22 522.136 585.684 517.455 587.248C512.001 589.07 508.06 592.926 505.795 597.354C503.844 601.169 503.34 604.957 503.192 607.579C503.035 610.38 503.218 613.296 503.563 616.189L539.311 611.936C539.108 610.232 539.137 609.569 539.135 609.602C539.133 609.646 539.11 610.048 538.966 610.697C538.824 611.339 538.517 612.436 537.846 613.747C536.274 616.821 533.253 619.926 528.863 621.393C525.245 622.602 522.371 622.106 521.74 621.993C521.105 621.878 520.616 621.707 521.656 622.023C522.094 622.156 524.165 622.82 526.501 623.116C528.851 623.415 533.997 623.71 539.334 620.632C545.127 617.29 547.693 612.033 548.726 608.207C550.371 602.114 549.296 595.424 548.337 590.572C547.177 584.703 545.114 576.928 541.985 566.668C535.702 546.066 524.606 513.795 506.159 463.436L472.355 475.819ZM512.558 598.405L456.375 630.263L474.132 661.579L530.315 629.72L512.558 598.405ZM501.936 585.242L441.067 1560.51L476.997 1562.75L537.866 587.485L501.936 585.242ZM477.03 1561.94C478.734 1461.87 480.707 1256.48 481.129 1069.49C481.34 975.989 481.164 887.02 480.372 818.081C479.976 783.622 479.425 754.083 478.687 731.452C477.969 709.403 477.047 692.54 475.674 684.457L440.182 690.482C441.058 695.64 441.962 709.778 442.706 732.624C443.432 754.887 443.979 784.137 444.374 818.495C445.164 887.191 445.34 975.97 445.129 1069.4C444.707 1256.27 442.736 1461.48 441.035 1561.33L477.03 1561.94ZM475.674 684.457C471.318 658.798 471.621 646.063 472.388 640.493C472.761 637.786 473.166 637.366 472.768 638.164C472.555 638.589 472.121 639.347 471.355 640.261C470.972 640.717 470.515 641.203 469.973 641.698C469.702 641.945 469.413 642.193 469.104 642.439C468.949 642.561 468.79 642.684 468.627 642.805C468.545 642.865 468.462 642.925 468.378 642.985C468.336 643.015 468.293 643.045 468.251 643.075C468.229 643.09 468.197 643.112 468.187 643.12C468.154 643.142 468.122 643.164 457.928 628.329C447.734 613.494 447.702 613.516 447.669 613.539C447.659 613.546 447.626 613.569 447.605 613.584C447.562 613.614 447.518 613.644 447.475 613.675C447.389 613.737 447.303 613.799 447.217 613.863C447.044 613.991 446.873 614.122 446.701 614.258C446.359 614.531 446.02 614.819 445.686 615.125C445.017 615.736 444.375 616.407 443.764 617.136C442.541 618.594 441.475 620.249 440.56 622.081C438.757 625.692 437.476 630.126 436.724 635.584C435.243 646.344 435.547 663.179 440.182 690.482L475.674 684.457ZM468.021 643.234L529.994 601.268L509.808 571.459L447.836 613.425L468.021 643.234ZM558.684 586.73L604.162 1562.84L640.123 1561.16L594.645 585.054L558.684 586.73ZM640.067 1560.35C630.887 1460.69 610.527 1256.3 590.625 1070.36C580.674 977.398 570.83 888.975 562.551 820.531C558.412 786.318 554.654 757.014 551.462 734.596C548.352 712.756 545.602 696.094 543.359 688.207L508.732 698.054C510.163 703.086 512.599 717.042 515.821 739.672C518.962 761.724 522.685 790.742 526.811 824.854C535.062 893.057 544.885 981.292 554.829 1074.2C574.718 1260 595.059 1464.21 604.219 1563.65L640.067 1560.35ZM543.359 688.207C536.241 663.173 535.158 650.481 535.315 644.861C535.391 642.129 535.748 641.668 535.439 642.504C535.274 642.95 534.924 643.75 534.262 644.742C533.932 645.237 533.53 645.77 533.045 646.322C532.803 646.597 532.542 646.874 532.261 647.152C532.121 647.291 531.976 647.43 531.827 647.568C531.752 647.637 531.676 647.706 531.599 647.775C531.56 647.809 531.521 647.843 531.482 647.878C531.463 647.895 531.433 647.92 531.423 647.929C531.394 647.955 531.364 647.98 519.619 634.34C507.874 620.7 507.844 620.726 507.814 620.752C507.804 620.76 507.774 620.786 507.755 620.804C507.715 620.838 507.675 620.873 507.636 620.909C507.557 620.979 507.478 621.051 507.399 621.124C507.242 621.269 507.085 621.419 506.93 621.573C506.619 621.88 506.313 622.204 506.015 622.544C505.416 623.225 504.85 623.961 504.323 624.752C503.266 626.335 502.385 628.096 501.674 630.016C500.274 633.802 499.483 638.349 499.329 643.856C499.026 654.713 501.157 671.416 508.732 698.054L543.359 688.207ZM531.271 648.06L588.316 599.611L565.012 572.172L507.967 620.621L531.271 648.06ZM1230.25 681.186L1638.85 1510.74L1671.15 1494.83L1262.55 665.279L1230.25 681.186ZM1670.88 1494.31C1626.33 1410.8 1533.99 1239.89 1449.12 1084.76C1406.69 1007.2 1366.1 933.535 1334.27 876.694C1302.82 820.525 1279.14 779.348 1271.04 768.092L1241.82 789.116C1248.39 798.243 1270.74 836.921 1302.86 894.282C1334.6 950.972 1375.13 1024.52 1417.54 1102.04C1502.37 1257.09 1594.64 1427.88 1639.12 1511.26L1670.88 1494.31ZM1271.04 768.092C1256.74 748.211 1250.85 737.166 1248.52 731.723C1247.37 729.031 1247.28 728.156 1247.35 728.584C1247.39 728.826 1247.49 729.506 1247.46 730.525C1247.44 731.039 1247.4 731.65 1247.3 732.339C1247.24 732.684 1247.18 733.049 1247.09 733.432C1247.05 733.624 1247.01 733.819 1246.96 734.019C1246.93 734.119 1246.9 734.22 1246.88 734.322C1246.86 734.373 1246.85 734.424 1246.83 734.475C1246.83 734.501 1246.82 734.539 1246.81 734.552C1246.8 734.591 1246.79 734.63 1229.51 729.584C1212.23 724.538 1212.22 724.577 1212.21 724.616C1212.21 724.629 1212.2 724.668 1212.19 724.694C1212.17 724.746 1212.16 724.797 1212.15 724.849C1212.12 724.953 1212.09 725.057 1212.06 725.161C1212.01 725.369 1211.96 725.577 1211.92 725.786C1211.83 726.202 1211.75 726.619 1211.69 727.034C1211.56 727.865 1211.5 728.692 1211.47 729.511C1211.43 731.14 1211.56 732.783 1211.83 734.437C1212.37 737.685 1213.51 741.421 1215.43 745.888C1219.22 754.763 1226.79 768.227 1241.82 789.116L1271.04 768.092ZM1246.75 734.752L1263.64 678.4L1229.16 668.065L1212.27 724.417L1246.75 734.752ZM909.621 659.387C911.371 740.046 916.886 801.824 932.385 858.102C947.967 914.682 973.366 964.745 1013.62 1022.55L1043.17 1001.98C1004.57 946.552 981.315 900.186 967.093 848.544C952.788 796.599 947.343 738.36 945.612 658.606L909.621 659.387ZM1040.88 999.303C1010.29 969.84 941.803 912.857 873.751 863.416C839.687 838.668 805.32 815.508 775.548 798.523C760.677 790.039 746.617 782.902 734.094 777.877C722.012 773.028 709.587 769.399 698.589 769.614L699.292 805.607C702.87 805.537 709.808 806.921 720.686 811.287C731.123 815.475 743.619 821.754 757.709 829.792C785.859 845.852 819.032 868.16 852.591 892.541C919.784 941.358 986.876 997.273 1015.91 1025.23L1040.88 999.303ZM698.589 769.614C684.195 769.895 677.89 768.976 675.904 768.402C674.605 768.028 677.665 768.523 680.495 772.106C682.194 774.257 683.5 777.165 683.747 780.543C683.979 783.737 683.188 786.259 682.497 787.789C681.315 790.404 679.83 791.475 680.252 791.114C680.366 791.017 680.796 790.689 681.595 790.2C682.335 789.748 683.096 789.337 683.693 789.033C683.98 788.887 684.204 788.778 684.336 788.715C684.401 788.684 684.442 788.665 684.454 788.66C684.46 788.657 684.459 788.657 684.451 788.661C684.446 788.663 684.44 788.666 684.432 788.67C684.428 788.672 684.423 788.674 684.418 788.676C684.415 788.677 684.411 788.679 684.41 788.68C684.405 788.682 684.401 788.684 676.973 772.288C669.544 755.892 669.54 755.894 669.535 755.897C669.533 755.897 669.528 755.9 669.524 755.901C669.517 755.905 669.509 755.908 669.5 755.912C669.483 755.92 669.464 755.929 669.442 755.939C669.399 755.959 669.347 755.983 669.286 756.011C669.165 756.067 669.009 756.141 668.822 756.23C668.45 756.407 667.95 756.651 667.358 756.953C666.196 757.544 664.574 758.411 662.818 759.485C661.122 760.521 658.945 761.966 656.85 763.758C655.064 765.286 651.771 768.362 649.691 772.963C648.551 775.486 647.538 778.997 647.842 783.159C648.159 787.505 649.827 791.359 652.244 794.419C656.51 799.82 662.428 801.982 665.921 802.991C673.52 805.184 684.536 805.895 699.292 805.607L698.589 769.614ZM684.387 788.69L935.03 675.399L920.202 642.594L669.559 755.886L684.387 788.69ZM968.287 613.614C956.384 546.558 955.519 493.08 967.114 436.544C978.799 379.574 1003.32 318.538 1043.71 236.478L1011.41 220.582C970.646 303.405 944.474 367.751 931.849 429.311C919.134 491.303 920.344 549.498 932.841 619.905L968.287 613.614ZM1013.48 217.308C986.79 250.781 924.707 318.712 862.137 379.071C830.879 409.224 799.855 437.141 773.343 457.784C760.071 468.118 748.244 476.381 738.303 482.157C727.873 488.217 721.31 490.461 718.125 490.803L721.966 526.597C732.999 525.414 745.001 519.9 756.388 513.284C768.265 506.384 781.507 497.053 795.46 486.189C823.399 464.435 855.452 435.54 887.131 404.98C950.436 343.912 1013.67 274.809 1041.63 239.753L1013.48 217.308ZM718.125 490.803C703.657 492.355 692.816 494.515 685.443 497.846C681.9 499.446 676.642 502.404 673.208 508.029C668.88 515.118 669.523 522.819 672.358 528.524C674.656 533.146 678.13 536.11 680.115 537.628C682.376 539.357 684.693 540.681 686.475 541.605C688.321 542.563 690.015 543.308 691.225 543.809C691.842 544.064 692.364 544.269 692.755 544.418C692.951 544.493 693.117 544.555 693.246 544.602C693.311 544.626 693.368 544.647 693.415 544.664C693.438 544.672 693.46 544.68 693.479 544.687C693.488 544.69 693.497 544.693 693.505 544.696C693.509 544.698 693.515 544.7 693.517 544.7C693.523 544.702 693.528 544.704 699.561 527.746C705.594 510.787 705.599 510.788 705.604 510.79C705.606 510.791 705.611 510.793 705.614 510.794C705.62 510.796 705.625 510.798 705.631 510.8C705.641 510.803 705.649 510.806 705.655 510.809C705.668 510.813 705.673 510.815 705.671 510.814C705.666 510.813 705.634 510.801 705.578 510.779C705.464 510.736 705.26 510.656 704.993 510.546C704.435 510.315 703.731 510.001 703.054 509.65C702.723 509.478 702.45 509.324 702.24 509.196C702.022 509.063 701.946 509.003 701.979 509.028C701.997 509.042 702.28 509.256 702.693 509.7C703.085 510.119 703.87 511.04 704.595 512.498C705.349 514.015 706.124 516.304 706.095 519.165C706.065 522.131 705.176 524.754 703.935 526.786C701.792 530.298 699.219 531.125 700.262 530.654C702.061 529.841 707.999 528.096 721.966 526.597L718.125 490.803ZM693.545 544.71L944.547 633.724L956.58 599.795L705.577 510.781L693.545 544.71Z" fill="#F3F3F3" mask="url(#path-2-outside-1_203_2136)"/>
</g>
<defs>
<clipPath id="clip0_203_2136">
<path d="M0 500C0 223.858 223.858 0 500 0V0C776.142 0 1000 223.858 1000 500V500C1000 776.142 776.142 1000 500 1000V1000C223.858 1000 0 776.142 0 500V500Z" fill="white"/>
</clipPath>
</defs>
</svg>
