<svg width="1000" height="1000" viewBox="0 0 1000 1000" fill="none" xmlns="http://www.w3.org/2000/svg">
<g clip-path="url(#clip0_153_171)">
<path d="M0 500C0 223.858 223.858 0 500 0V0C776.142 0 1000 223.858 1000 500V500C1000 776.142 776.142 1000 500 1000V1000C223.858 1000 0 776.142 0 500V500Z" fill="#FDC98E"/>
<path d="M1171.24 637.147C1171.24 721.896 1139.89 791.965 1051.18 791.965C962.473 791.965 895.526 708.12 849.988 637.147C893.042 556.25 962.473 481.107 1051.18 481.107C1139.89 481.107 1171.24 552.398 1171.24 637.147Z" fill="#E88C72"/>
<path d="M1171.24 260.04C1171.24 344.789 1139.89 414.858 1051.18 414.858C962.473 414.858 895.526 331.013 849.988 260.04C893.042 179.144 962.473 104 1051.18 104C1139.89 104 1171.24 175.291 1171.24 260.04Z" fill="#E88C72"/>
<path d="M829.591 288.179C829.591 388.21 793.272 470.914 690.48 470.914C587.688 470.914 510.115 371.95 457.349 288.179C507.237 192.694 587.688 104 690.48 104C793.272 104 829.591 188.147 829.591 288.179Z" fill="#E88C72"/>
<path d="M829.592 728.264C829.592 828.296 793.272 911 690.48 911C587.689 911 510.116 812.036 457.349 728.264C507.238 632.78 587.689 544.086 690.48 544.086C793.272 544.086 829.592 628.233 829.592 728.264Z" fill="#E88C72"/>
<path d="M1186.54 511.683C1100.11 676.045 845.179 815.786 647.208 815.786C449.238 815.786 177.755 714.718 131 511.683C177.755 314.69 448.754 205.921 646.725 205.921C844.695 205.921 1064.69 325.567 1186.54 511.683Z" fill="#F6B993"/>
<path d="M1416 515.083C1416 633.175 1376.2 730.812 1263.55 730.812C1150.9 730.812 1065.89 613.979 1008.06 515.083C1062.74 402.358 1150.9 297.649 1263.55 297.649C1376.2 297.649 1416 396.99 1416 515.083Z" fill="#F6B993"/>
<path d="M309.472 447.982C309.472 469.091 300.34 486.203 289.075 486.203C277.811 486.203 268.679 469.091 268.679 447.982C268.679 426.874 277.811 409.762 289.075 409.762C300.34 409.762 309.472 426.874 309.472 447.982Z" fill="white"/>
<path d="M605.226 812.349C605.226 812.349 708.223 363.28 579.73 209.775C647.09 199.307 741.412 212.054 761.809 218.661C782.207 225.267 885.68 358.802 885.68 495.961C885.292 655.163 838.098 756.726 804.096 786.869C770.093 817.011 599.566 815.742 605.226 812.349Z" fill="white"/>
<path d="M1120.25 664.828C1124.93 663.272 1082.98 453.831 1135.03 346.062C1064.4 387.509 1038.66 437.597 1038.66 506.587C1038.66 596.48 1120.25 664.828 1120.25 664.828Z" fill="white"/>
<path d="M839.842 639.469C815.024 696.492 739.754 720.322 676.616 693.434C613.478 666.546 590.384 589.84 578.757 528.284C633.09 486.903 704.511 457.386 767.649 484.274C830.786 511.162 864.66 582.446 839.842 639.469Z" fill="#E88C72"/>
<path d="M829.591 568.2C829.591 632.109 770.778 684.948 702.956 684.948C635.133 684.948 583.95 621.721 549.135 568.2C582.051 507.196 635.133 450.53 702.956 450.53C770.778 450.53 829.591 504.291 829.591 568.2Z" fill="#F6B993"/>
<path d="M342.434 755.965C416.687 653.329 461.171 433.584 328.681 280.222L387.985 252.224C596.185 473.61 416.373 783.994 416.373 783.994C416.373 783.994 360.391 762.149 342.434 755.965Z" fill="white"/>
<path d="M342.434 755.965C416.687 653.329 461.171 433.584 328.681 280.222L387.985 252.224C596.185 473.61 416.373 783.994 416.373 783.994C416.373 783.994 360.391 762.149 342.434 755.965Z" fill="white"/>
<path d="M416.373 783.994C418.536 785.247 418.537 785.245 418.539 785.241L418.546 785.229L418.572 785.183C418.595 785.143 418.629 785.084 418.673 785.007C418.762 784.852 418.892 784.623 419.061 784.321C419.401 783.718 419.898 782.823 420.537 781.648C420.808 781.151 421.104 780.603 421.424 780.006C449.674 789.543 478.49 797.296 507.177 803.267C521.469 820.96 536.901 837.87 553.476 852.899C592.57 888.343 638.235 913.5 690.48 913.5C742.667 913.5 778.251 892.442 800.669 858.522C814.028 838.309 822.655 813.618 827.427 786.272C862.875 774.437 898.091 759.638 932.033 742.413C932.266 742.622 932.5 742.83 932.734 743.038C966.511 773.102 1005.99 794.465 1051.18 794.465C1096.31 794.465 1127.13 776.583 1146.55 747.733C1155.18 734.91 1161.53 719.974 1165.91 703.57C1195.71 722.025 1228.26 733.312 1263.55 733.312C1320.75 733.312 1359.67 708.446 1384.15 668.54C1408.53 628.805 1418.5 574.339 1418.5 515.083C1418.5 455.825 1408.53 400.939 1384.16 360.784C1359.68 320.458 1320.77 295.149 1263.55 295.149C1229.01 295.149 1196.8 304.853 1167.17 321.48C1171.71 302.497 1173.74 281.7 1173.74 260.04C1173.74 217.425 1165.87 177.849 1146.56 148.854C1127.14 119.702 1096.33 101.5 1051.18 101.5C966.427 101.5 899.439 168.886 855.868 244.286C846.664 240.751 837.417 237.432 828.141 234.334C823.54 205.144 814.725 178.7 800.675 157.209C778.266 122.934 742.685 101.5 690.48 101.5C610.561 101.5 544.27 154.28 495.165 221.984C460.807 230.101 426.407 240.838 393.153 254.114C392.048 252.911 390.933 251.71 389.806 250.512L388.561 249.188L386.918 249.964L327.613 277.962L324.638 279.367L326.789 281.857C327.399 282.563 328.006 283.271 328.608 283.98C231.033 335.949 151.988 412.428 128.568 511.105L128.433 511.674L128.564 512.244C152.17 614.754 232.441 691.268 331.255 742.096C335.63 744.347 340.042 746.547 344.488 748.698C343.139 750.671 341.779 752.606 340.409 754.5L338.432 757.231L341.62 758.329C350.548 761.404 368.988 768.393 385.241 774.632C393.358 777.748 400.914 780.671 406.441 782.815C409.204 783.886 411.46 784.764 413.025 785.373C413.808 785.677 414.418 785.915 414.832 786.076L415.303 786.26L415.423 786.307L415.454 786.319L415.461 786.322L415.463 786.322C415.464 786.322 415.464 786.323 416.373 783.994ZM416.373 783.994L418.536 785.247L417.461 787.102L415.464 786.323L416.373 783.994Z" stroke="white" stroke-width="5"/>
</g>
<defs>
<clipPath id="clip0_153_171">
<path d="M0 500C0 223.858 223.858 0 500 0V0C776.142 0 1000 223.858 1000 500V500C1000 776.142 776.142 1000 500 1000V1000C223.858 1000 0 776.142 0 500V500Z" fill="white"/>
</clipPath>
</defs>
</svg>
