<svg width="1000" height="1000" viewBox="0 0 1000 1000" fill="none" xmlns="http://www.w3.org/2000/svg">
<g clip-path="url(#clip0_204_2295)">
<path d="M0 500C0 223.858 223.858 0 500 0V0C776.142 0 1000 223.858 1000 500V500C1000 776.142 776.142 1000 500 1000V1000C223.858 1000 0 776.142 0 500V500Z" fill="#9F6BD8"/>
<path d="M183.52 1162.97L183.321 1163.84V1164.74C183.321 1218.83 226.382 1265.98 279.371 1298.99C332.741 1332.24 398.994 1353 450.548 1353H549.452C600.681 1353 673.501 1335.03 733.58 1304.52C763.669 1289.24 791.008 1270.6 810.927 1249.09C830.859 1227.56 843.798 1202.65 843.798 1175.11V1173.95L843.468 1172.83L737.711 815.804C737.666 808.476 737.203 801.247 736.343 794.14C792.817 723.849 831.036 630.967 831.036 529.036C831.036 419.167 786.633 319.813 722.828 247.928C659.145 176.18 575.367 131 496.012 131C416.681 131 331.919 176.156 267.243 247.881C202.441 319.747 157 419.113 157 529.036C157 636.348 200.308 733.599 262.659 805.023C262.43 808.678 262.305 812.361 262.288 816.07L183.52 1162.97Z" fill="#A762D1" stroke="#E2C4F5" stroke-width="16"/>
<path d="M374.537 817.838C365.635 832.64 349.532 841.759 329.927 843.992C310.313 846.226 287.583 841.467 266.58 828.836C245.578 816.206 230.718 798.36 223.496 779.987C216.277 761.623 216.783 743.124 225.684 728.323C230.256 720.72 234.342 718.122 237.765 717.377C241.436 716.579 246.204 717.483 252.99 720.867C259.729 724.228 267.332 729.443 276.417 735.806C277.067 736.261 277.724 736.722 278.387 737.187C286.837 743.111 296.336 749.771 306.865 756.103C317.205 762.321 327.629 767.675 337.101 772.541C338.023 773.014 338.936 773.483 339.84 773.948C350.171 779.264 359.022 783.935 365.821 788.724C372.701 793.571 376.458 797.853 377.869 801.947C379.131 805.609 378.96 810.483 374.537 817.838Z" fill="#F13636" stroke="#E2C4F5" stroke-width="14"/>
<path d="M631.844 817.838C640.746 832.64 656.849 841.759 676.454 843.992C696.068 846.226 718.798 841.467 739.801 828.836C760.803 816.206 775.663 798.36 782.885 779.987C790.104 761.623 789.598 743.124 780.697 728.323C776.125 720.72 772.039 718.122 768.616 717.377C764.945 716.579 760.177 717.483 753.392 720.867C746.652 724.228 739.049 729.443 729.964 735.806C729.314 736.261 728.657 736.722 727.994 737.187C719.544 743.111 710.045 749.771 699.516 756.103C689.176 762.321 678.753 767.675 669.28 772.541C668.358 773.014 667.445 773.483 666.541 773.948C656.21 779.264 647.359 783.935 640.56 788.724C633.68 793.571 629.923 797.853 628.512 801.947C627.25 805.609 627.421 810.483 631.844 817.838Z" fill="#F13636" stroke="#E2C4F5" stroke-width="14"/>
</g>
<defs>
<clipPath id="clip0_204_2295">
<path d="M0 500C0 223.858 223.858 0 500 0V0C776.142 0 1000 223.858 1000 500V500C1000 776.142 776.142 1000 500 1000V1000C223.858 1000 0 776.142 0 500V500Z" fill="white"/>
</clipPath>
</defs>
</svg>
