<svg width="304" height="304" viewBox="0 0 304 304" fill="none" xmlns="http://www.w3.org/2000/svg">
<g clip-path="url(#clip0_204_2313)">
<path d="M0 152C0 68.0527 68.0527 0 152 0V0C235.947 0 304 68.0527 304 152V152C304 235.947 235.947 304 152 304V304C68.0527 304 0 235.947 0 152V152Z" fill="#4F63CB"/>
<path d="M136.435 156.382L140.462 136.189L155.443 148.466L136.435 156.382Z" fill="white"/>
<path d="M141.979 213.444L153.154 230.739L133.854 232.364L141.979 213.444Z" fill="white"/>
<path d="M152.616 172.019L156.643 151.827L171.624 164.103L152.616 172.019Z" fill="white"/>
<path d="M117.97 213.386L129.401 230.513L110.127 232.425L117.97 213.386Z" fill="white"/>
<path d="M167.647 189.783L171.674 169.59L186.654 181.866L167.647 189.783Z" fill="white"/>
<path d="M95.1879 214.371L105.391 232.256L86.0305 232.813L95.1879 214.371Z" fill="white"/>
<path d="M193.975 110.884C193.975 110.884 177.578 75.3582 155.033 66.4766C132.488 57.5951 107.209 58.9612 94.2288 74.6747C81.2482 90.3883 85.8027 107.696 90.8128 110.884" stroke="white" stroke-width="6"/>
<path d="M312.856 121.079C318.499 125.989 320.373 180.183 306.039 196.658C291.704 213.133 281.425 220.097 265.837 221.968C241.233 224.922 228.366 210.586 223.135 188.74C221.137 165.712 220.206 157.919 230.723 145.832C245.057 129.357 307.213 116.168 312.856 121.079Z" fill="#373998"/>
<path d="M373.656 192.868C373.656 200.348 390.268 237.959 368.43 237.959C338.13 231.81 332.297 233.754 320.653 223.223C302.274 206.599 304.643 187.483 317.691 169.197C333.752 152.573 332.664 156.658 368.43 147.094C390.268 147.094 373.656 185.387 373.656 192.868Z" fill="#373998"/>
<path d="M312.139 266.13C308.051 272.395 254.627 281.691 236.34 269.754C218.053 257.817 209.743 248.592 205.75 233.409C199.446 209.443 211.879 194.729 232.8 186.549C255.336 181.408 262.928 179.415 276.344 188.173C294.631 200.11 316.228 259.866 312.139 266.13Z" fill="#373998"/>
<path d="M352.477 194.917C351.259 211.485 332.835 218.455 312.168 231.127C274.885 253.987 286.89 276.901 165.964 281C124.961 281 47.7715 229.077 111.309 229.077C127.502 229.077 202.035 239.659 207.639 231.127C204.907 188.085 163.232 150.51 139.32 138.895C129.069 116.571 182.427 107.468 196.219 107.468C278.692 102.686 272.547 137.135 313.535 162.807C332.215 174.508 347.343 179.089 352.477 194.917Z" fill="#7E8CD4"/>
<path d="M217.204 138.212C217.204 143.872 212.616 148.46 206.956 148.46C201.296 148.46 196.708 143.872 196.708 138.212C196.708 132.552 201.296 127.964 206.956 127.964C212.616 127.964 217.204 132.552 217.204 138.212Z" fill="white"/>
<path d="M179.896 174.519C189.879 186.301 198.368 200.084 202.699 214.865C201.789 219.825 201.909 225.296 203.19 231.294C202.872 231.375 202.528 231.453 202.159 231.528C199.72 232.022 196.419 232.304 192.449 232.407C184.525 232.612 174.259 232.096 163.592 231.307C154.61 230.643 145.393 229.79 137.111 229.023C135.568 228.881 134.057 228.741 132.587 228.606C123.279 227.751 115.472 227.077 111.309 227.077C103.271 227.077 97.2576 227.893 93.0476 229.429C88.8365 230.966 86.0584 233.383 85.3234 236.765C84.6163 240.02 85.9775 243.452 88.2334 246.657C90.5286 249.918 93.995 253.301 98.1963 256.61C106.612 263.238 118.291 269.817 130.44 274.741C142.568 279.656 155.352 283 165.964 283H165.998L166.032 282.999C201.588 281.794 225.792 278.964 243.199 274.941C246.828 276.016 250.895 276.703 255.139 277.096C262.945 277.821 271.599 277.574 279.763 276.758C287.928 275.941 295.669 274.548 301.658 272.95C304.648 272.153 307.248 271.292 309.264 270.405C310.271 269.962 311.172 269.495 311.917 269.004C312.635 268.53 313.342 267.947 313.814 267.224C314.344 266.412 314.535 265.41 314.606 264.511C314.681 263.561 314.639 262.461 314.515 261.265C314.265 258.868 313.659 255.865 312.779 252.482C311.562 247.808 309.796 242.307 307.632 236.498C309.369 235.277 311.219 234.055 313.214 232.832C316.37 230.897 319.466 229.1 322.47 227.372C327.14 231.007 331.319 232.805 337.081 234.18C340.425 234.978 344.32 235.639 349.115 236.452L349.485 236.515C354.471 237.361 360.491 238.388 368.033 239.919L368.229 239.959H368.43C371.447 239.959 373.972 239.307 376 238.014C378.037 236.715 379.421 234.865 380.307 232.733C382.035 228.572 381.935 223.185 381.214 217.946C380.483 212.639 379.058 207.126 377.844 202.556C377.755 202.223 377.668 201.895 377.582 201.574C377.074 199.665 376.619 197.956 376.274 196.494C375.858 194.734 375.656 193.54 375.656 192.868C375.656 192.194 375.859 190.988 376.275 189.208C376.616 187.745 377.065 186.038 377.566 184.13C377.658 183.782 377.751 183.427 377.845 183.067C379.06 178.431 380.484 172.834 381.214 167.444C381.935 162.121 382.034 156.656 380.311 152.438C379.429 150.278 378.051 148.398 376.014 147.076C373.984 145.759 371.454 145.094 368.43 145.094H368.168L367.914 145.162C359.729 147.35 353.484 148.821 348.504 149.994C348.064 150.098 347.634 150.199 347.213 150.298C342.062 151.514 338.223 152.445 334.989 153.618C329.364 155.659 325.629 158.421 319.764 164.237C319.299 163.964 318.83 163.688 318.359 163.407C318.637 160.464 318.827 157.51 318.938 154.608C319.25 146.408 318.933 138.549 318.172 132.397C317.793 129.326 317.297 126.632 316.695 124.514C316.395 123.456 316.056 122.499 315.672 121.694C315.301 120.917 314.82 120.137 314.169 119.57C313.438 118.934 312.472 118.607 311.591 118.413C310.66 118.208 309.565 118.099 308.363 118.058C305.954 117.976 302.896 118.164 299.425 118.572C292.467 119.388 283.627 121.112 274.54 123.501C274.226 123.584 273.912 123.667 273.598 123.751C272.972 123.213 272.337 122.683 271.69 122.161C257.287 110.528 237.662 103.07 196.161 105.468C188.997 105.481 172.03 107.799 158.064 112.933C151.082 115.499 144.591 118.86 140.493 123.192C138.422 125.382 136.899 127.887 136.299 130.721C135.695 133.578 136.064 136.599 137.502 139.73L137.801 140.381L138.446 140.694C150.121 146.365 166.303 158.477 179.896 174.519Z" stroke="white" stroke-width="4"/>
<circle cx="86.7135" cy="110.884" r="15.7135" fill="#FFDD53"/>
<path d="M136 137C136 137 161.182 153.242 179.628 173.055C198.074 192.868 209.006 229.76 203.54 229.76C198.074 229.76 89.4463 232.493 89.4463 232.493" stroke="white" stroke-width="9" stroke-linecap="round"/>
</g>
<defs>
<clipPath id="clip0_204_2313">
<path d="M0 152C0 68.0527 68.0527 0 152 0V0C235.947 0 304 68.0527 304 152V152C304 235.947 235.947 304 152 304V304C68.0527 304 0 235.947 0 152V152Z" fill="white"/>
</clipPath>
</defs>
</svg>
