<svg width="282" height="282" viewBox="0 0 282 282" fill="none" xmlns="http://www.w3.org/2000/svg">
<g clip-path="url(#clip0_204_2185)">
<path d="M0 141C0 63.1279 63.1279 0 141 0V0C218.872 0 282 63.1279 282 141V141C282 218.872 218.872 282 141 282V282C63.1279 282 0 218.872 0 141V141Z" fill="#5699E1"/>
<path d="M8.68238 122.645C9.0251 121.835 9.32083 121.151 9.55828 120.609C9.32021 120.061 9.02315 119.369 8.67856 118.547C7.749 116.332 6.47171 113.174 5.07274 109.387C2.28249 101.834 -1.0258 91.6844 -3.00343 81.4725C-4.95676 71.386 -5.72761 60.6875 -2.94091 52.3323C-1.51862 48.068 0.876259 44.2789 4.62038 41.5812C8.36443 38.8836 13.1487 37.5 18.9561 37.5C41.0788 37.5 60.5914 47.617 77.024 62.7549C93.4427 77.88 106.979 98.1808 117.287 119.065L118.128 120.77L117.156 122.404C106.333 140.594 92.8366 160.664 76.6356 176.214C60.439 191.76 41.2025 203.105 18.9561 203.105C13.1543 203.105 8.37395 201.734 4.63097 199.058C0.885788 196.381 -1.51314 192.617 -2.93828 188.378C-5.72937 180.075 -4.95618 169.448 -3.00244 159.439C-1.02408 149.303 2.2852 139.231 5.07586 131.735C6.47509 127.977 7.75262 124.843 8.68238 122.645Z" fill="#C6DAF7" stroke="#AAC9F6" stroke-width="7"/>
<path d="M8.68238 184.041C9.0251 183.23 9.32083 182.546 9.55828 182.004C9.32021 181.457 9.02315 180.764 8.67856 179.943C7.749 177.728 6.47171 174.57 5.07274 170.783C2.28249 163.229 -1.0258 153.08 -3.00343 142.868C-4.95676 132.782 -5.72761 122.083 -2.94091 113.728C-1.51862 109.464 0.876259 105.674 4.62038 102.977C8.36443 100.279 13.1487 98.8955 18.9561 98.8955C41.0788 98.8955 60.5914 109.012 77.024 124.15C93.4427 139.275 106.979 159.576 117.287 180.461L118.128 182.166L117.156 183.799C106.333 201.99 92.8366 222.059 76.6356 237.609C60.439 253.155 41.2025 264.5 18.9561 264.5C13.1543 264.5 8.37395 263.129 4.63097 260.453C0.885788 257.776 -1.51314 254.013 -2.93828 249.773C-5.72937 241.47 -4.95618 230.844 -3.00244 220.834C-1.02408 210.699 2.2852 200.626 5.07586 193.131C6.47509 189.372 7.75262 186.239 8.68238 184.041Z" fill="#C6DAF7" stroke="#AAC9F6" stroke-width="7"/>
<path d="M137.698 68.1978H55.8294C5.38958 68.1978 -35.5 109.087 -35.5 159.527C-35.5 209.967 5.38959 250.857 55.8294 250.857H192C215.472 250.857 234.5 231.829 234.5 208.357V165C234.5 111.537 191.16 68.1978 137.698 68.1978Z" fill="#C7DAF7" stroke="#AAC9F6" stroke-width="7"/>
<path d="M212.147 201.5C214.849 201.5 216.985 199.983 218.313 198.151C219.645 196.315 220.36 193.952 220.36 191.5C220.36 189.048 219.645 186.685 218.313 184.849C216.985 183.017 214.849 181.5 212.147 181.5C209.445 181.5 207.309 183.017 205.981 184.849C204.649 186.685 203.934 189.048 203.934 191.5C203.934 193.952 204.649 196.315 205.981 198.151C207.309 199.983 209.445 201.5 212.147 201.5Z" fill="white" stroke="#AAC9F6" stroke-width="7"/>
<path d="M77.6636 174.717L78.4921 176.41L77.5343 178.034C71.5894 188.111 64.1184 199.334 55.0989 208.066C46.0854 216.792 35.1814 223.356 22.4253 223.356C18.9927 223.356 16.0289 222.535 13.6527 220.821C11.2766 219.108 9.79706 216.726 8.93856 214.15C7.27932 209.172 7.77124 202.975 8.852 197.391C9.957 191.681 11.7988 186.033 13.3408 181.856C14.1156 179.757 14.8233 178.006 15.3393 176.775C15.4178 176.588 15.492 176.413 15.5613 176.25C15.4909 176.083 15.4155 175.904 15.3355 175.711C14.8197 174.472 14.1123 172.708 13.3377 170.593C11.7962 166.383 9.9553 160.694 8.85103 154.943C7.77068 149.316 7.28105 143.083 8.93597 138.078C9.79165 135.49 11.2672 133.093 13.6421 131.367C16.0193 129.64 18.9871 128.811 22.4253 128.811C35.057 128.811 46.1043 134.642 55.288 143.175C64.4586 151.696 71.9695 163.08 77.6636 174.717Z" fill="white" stroke="#AAC9F6" stroke-width="7"/>
<g clip-path="url(#clip1_204_2185)">
<path d="M190.799 151.564C190.799 167.857 177.592 181.064 161.299 181.064C145.007 181.064 131.799 167.857 131.799 151.564C131.799 135.272 145.007 122.064 161.299 122.064C177.592 122.064 190.799 135.272 190.799 151.564Z" fill="#B9FCD0" stroke="white" stroke-width="2"/>
<path d="M195 146.5C195 155.06 188.06 162 179.5 162C170.94 162 164 155.06 164 146.5C164 137.94 170.94 131 179.5 131C188.06 131 195 137.94 195 146.5Z" fill="#484848" stroke="white" stroke-width="2"/>
<circle cx="130.299" cy="151.564" r="29.5" fill="#B9FCD0" stroke="white" stroke-width="2"/>
<path d="M160 148C160 156.865 153.032 164 144.5 164C135.968 164 129 156.865 129 148C129 139.135 135.968 132 144.5 132C153.032 132 160 139.135 160 148Z" fill="#484848" fill-opacity="0.98" stroke="white" stroke-width="2"/>
<path d="M154.201 141.436C154.201 145.025 151.514 147.936 148.201 147.936C144.887 147.936 142.201 145.025 142.201 141.436C142.201 137.846 144.887 134.936 148.201 134.936C151.514 134.936 154.201 137.846 154.201 141.436Z" fill="white" fill-opacity="0.98"/>
<path d="M191.201 141.436C191.201 145.025 188.514 147.936 185.201 147.936C181.887 147.936 179.201 145.025 179.201 141.436C179.201 137.846 181.887 134.936 185.201 134.936C188.514 134.936 191.201 137.846 191.201 141.436Z" fill="white" fill-opacity="0.98"/>
</g>
<path d="M226.959 161.92V153.018C226.959 106.376 189.148 68.5645 142.505 68.5645C118.643 68.5645 99.2993 87.9084 99.2993 111.77V124.113C99.2993 154.488 123.924 179.113 154.299 179.113H209.767C219.262 179.113 226.959 171.415 226.959 161.92Z" stroke="#AAC9F6" stroke-width="7"/>
</g>
<defs>
<clipPath id="clip0_204_2185">
<path d="M0 141C0 63.1279 63.1279 0 141 0V0C218.872 0 282 63.1279 282 141V141C282 218.872 218.872 282 141 282V282C63.1279 282 0 218.872 0 141V141Z" fill="white"/>
</clipPath>
<clipPath id="clip1_204_2185">
<path d="M102.799 111.77C102.799 89.8414 120.576 72.0645 142.505 72.0645V72.0645C187.215 72.0645 223.459 108.309 223.459 153.018V161.92C223.459 169.482 217.329 175.613 209.767 175.613H154.299C125.857 175.613 102.799 152.555 102.799 124.113V111.77Z" fill="white"/>
</clipPath>
</defs>
</svg>
