<svg width="1000" height="1000" viewBox="0 0 1000 1000" fill="none" xmlns="http://www.w3.org/2000/svg">
<g clip-path="url(#clip0_204_2216)">
<path d="M0 500C0 223.858 223.858 0 500 0V0C776.142 0 1000 223.858 1000 500V500C1000 776.142 776.142 1000 500 1000V1000C223.858 1000 0 776.142 0 500V500Z" fill="#97BC9A"/>
<mask id="mask0_204_2216" style="mask-type:luminance" maskUnits="userSpaceOnUse" x="50" y="58" width="3295" height="883">
<path d="M3345 58H50V941H3345V58Z" fill="white"/>
</mask>
<g mask="url(#mask0_204_2216)">
<path d="M485.17 642.203L437.187 629.394L447.774 676.237L485.17 642.203Z" fill="white"/>
<path d="M358.426 606.754L310.442 593.944L321.028 640.788L358.426 606.754Z" fill="white"/>
<path d="M424.025 624.773L376.041 611.962L386.628 658.806L424.025 624.773Z" fill="white"/>
<path d="M297.281 589.324L249.297 576.513L259.883 623.357L297.281 589.324Z" fill="white"/>
<path d="M454.598 633.489L406.614 620.678L417.201 667.522L454.598 633.489Z" fill="white"/>
<path d="M266.708 580.609L224.458 579.212L229.31 614.641L266.708 580.609Z" fill="white"/>
<path d="M327.853 598.038L279.87 585.229L290.455 632.073L327.853 598.038Z" fill="white"/>
<path d="M393.452 616.058L345.468 603.249L356.056 650.092L393.452 616.058Z" fill="white"/>
<path d="M151.868 559.476C200.612 549.977 649.92 537.641 649.92 537.641C678.44 525.574 837.165 504.064 811.244 661.758C807.949 681.807 783.546 705.993 713.793 710.348L627.781 698.995C627.781 698.995 103.124 568.974 151.868 559.476Z" fill="#66ACA4"/>
<path d="M682.514 689.415L634.53 676.605L645.116 723.449L682.514 689.415Z" fill="white"/>
<path d="M551.988 657.405L504.004 644.595L514.592 691.439L551.988 657.405Z" fill="white"/>
<path d="M617.588 675.424L569.604 662.613L580.192 709.457L617.588 675.424Z" fill="white"/>
<path d="M648.161 684.14L600.177 671.329L610.765 718.172L648.161 684.14Z" fill="white"/>
<path d="M521.415 648.69L473.431 635.879L484.019 682.723L521.415 648.69Z" fill="white"/>
<path d="M587.015 666.708L539.032 653.899L549.619 700.743L587.015 666.708Z" fill="white"/>
<path d="M151.868 559.476C200.612 549.977 649.92 537.641 649.92 537.641C678.44 525.574 837.165 504.064 811.244 661.758C807.949 681.807 783.546 705.993 713.793 710.348L627.781 698.995C627.781 698.995 103.124 568.974 151.868 559.476Z" fill="#66ACA4"/>
<path d="M1261.72 368.437C1261.72 368.437 1328.13 588.748 1218.28 573.427C1108.43 558.106 1041.17 434.426 998.021 331.657C1066.42 230.917 1165.06 95.2268 1274.91 110.548C1223.38 275.51 1233.12 368.4 1261.72 368.437Z" fill="#D8E6D9"/>
<path d="M3115.56 532.466C3251.4 424.785 1693.12 378.335 1624.86 368.864C1484.23 349.35 1290.94 319.255 1213.2 310.172C1090.19 295.797 674.001 400.311 626.89 412.29C623.873 413.057 621.171 413.915 618.234 414.949C477.384 464.538 162.421 470.575 88.7069 510.793C15.1684 550.918 522.543 677.271 702.614 714.96C707.236 715.928 711.709 716.355 716.432 716.355H1635.8C1674.91 716.355 2100.88 716.244 2276.49 700.156C2452.09 684.07 2979.72 640.147 3115.56 532.466Z" fill="#D8E6D9"/>
<path d="M496.238 737.322L462.776 700.156L446.875 744.507L496.238 737.322Z" fill="white"/>
<path d="M469.149 746.394L435.689 709.228L419.785 753.579L469.149 746.394Z" fill="white"/>
<path d="M442.062 755.466L408.6 718.3L392.697 762.651L442.062 755.466Z" fill="white"/>
<path d="M409.783 759.576L380.101 726.449L365.893 766.07L409.783 759.576Z" fill="white"/>
<path d="M381.35 763.325L353.759 734.626L341.882 767.751L381.35 763.325Z" fill="white"/>
<path d="M354.015 772.609L325.534 746.394L315.437 774.55L354.015 772.609Z" fill="white"/>
<path d="M780.885 610.041L782.772 444.227C820.876 424.172 1006.88 399.593 998.995 562.867C992.024 707.133 934.36 691.636 836.587 715.818C836.587 715.818 321.457 790.665 286.866 783.839C252.274 777.014 780.885 610.041 780.885 610.041Z" fill="#D8E6D9"/>
<path d="M553.61 539.093C553.61 564.711 575.119 585.479 601.652 585.479C628.184 585.479 649.693 564.711 649.693 539.093C649.693 513.474 628.184 492.706 601.652 492.706C575.119 492.706 553.61 513.474 553.61 539.093Z" fill="white"/>
<path d="M578.459 539.093C578.459 552.818 589.214 563.942 602.48 563.942C615.746 563.942 626.501 552.818 626.501 539.093C626.501 525.369 615.746 514.243 602.48 514.243C589.214 514.243 578.459 525.369 578.459 539.093Z" fill="#6E6E6E"/>
<path d="M871.679 532.466C908.726 557.856 903.027 606.59 882.265 623.581C890.588 623.894 941.857 569.565 871.679 532.466Z" fill="white"/>
<path d="M936.287 504.303C983.439 542.156 976.185 614.814 949.759 640.147C960.351 640.613 1025.6 559.615 936.287 504.303Z" fill="white"/>
<path d="M989.299 477.796C1049.92 529.959 1040.6 630.086 1006.62 664.997C1020.24 665.638 1104.13 554.019 989.299 477.796Z" fill="white"/>
<path d="M1261.72 368.437C1261.72 368.437 1328.13 588.748 1218.28 573.427C1108.43 558.106 1041.17 434.426 998.021 331.657C1066.42 230.917 1165.06 95.2268 1274.91 110.548C1223.38 275.51 1233.12 368.4 1261.72 368.437Z" fill="#D8E6D9"/>
</g>
</g>
<defs>
<clipPath id="clip0_204_2216">
<path d="M0 500C0 223.858 223.858 0 500 0V0C776.142 0 1000 223.858 1000 500V500C1000 776.142 776.142 1000 500 1000V1000C223.858 1000 0 776.142 0 500V500Z" fill="white"/>
</clipPath>
</defs>
</svg>
