<svg width="1000" height="1000" viewBox="0 0 1000 1000" fill="none" xmlns="http://www.w3.org/2000/svg">
<g clip-path="url(#clip0_203_2136)">
<path d="M0 500C0 223.858 223.858 0 500 0V0C776.142 0 1000 223.858 1000 500V500C1000 776.142 776.142 1000 500 1000V1000C223.858 1000 0 776.142 0 500V500Z" fill="#907ED6"/>
<path d="M1381.35 672.748C1284.89 788.146 846.708 826.753 681.113 815.086C515.517 803.419 234.004 700.749 205.617 679.748C177.229 658.747 205.617 635.413 205.617 635.413C205.617 635.413 491.86 502.408 735.523 502.408C979.185 502.408 1245.35 542.077 1381.35 672.748Z" fill="#B6B4C7"/>
<path d="M203.579 176.888L457.805 652.131L497.895 601.5C480.015 569.062 489.396 552.221 413.783 479.741C338.17 407.261 223.244 211.806 203.579 176.888Z" fill="#B6B4C7"/>
<path d="M1457.23 662.85C1564.52 796.788 1509.29 925.857 1420.3 866.423C1331.31 806.99 1214.94 701.547 1156.52 648.893C1220.01 571.69 1343.35 475.025 1420.3 429.645C1497.25 384.265 1568.3 486.91 1457.23 662.85Z" fill="#B6B4C7"/>
<path d="M379.281 621.212C379.281 633.625 373.53 643.688 366.434 643.688C359.339 643.688 353.587 633.625 353.587 621.212C353.587 608.798 359.339 598.735 366.434 598.735C373.53 598.735 379.281 608.798 379.281 621.212Z" fill="white"/>
<path d="M408.3 110L465.254 645.921L521.437 614.063C517.06 577.284 562.971 670.86 489.257 469.628C415.543 268.395 428.935 218.509 408.3 110Z" fill="#B6B4C7"/>
<path d="M459.032 1561.63L519.901 586.364L457.928 628.329C457.928 628.329 448.936 634.508 457.928 687.47C466.92 740.431 462.438 1361.72 459.032 1561.63Z" fill="#B6B4C7"/>
<path d="M622.143 1562L576.664 585.892L519.619 634.34C519.619 634.34 511.352 641.459 526.046 693.131C540.74 744.802 603.803 1362.9 622.143 1562Z" fill="#B6B4C7"/>
<path d="M1655 1502.78L1246.4 673.233L1229.51 729.584C1229.51 729.584 1227.1 737.834 1256.43 778.604C1285.76 819.373 1565.98 1335.9 1655 1502.78Z" fill="#B6B4C7"/>
<path d="M1028.4 1012.27C949.536 899.029 931.098 819.41 927.616 658.996L676.973 772.288C676.973 772.288 640.64 788.749 698.941 787.61C757.241 786.472 968.769 954.845 1028.4 1012.27Z" fill="#B6B4C7"/>
<path d="M1027.56 228.53C946.413 393.412 926.164 479.297 950.564 616.76L699.561 527.746C699.561 527.746 663.174 514.801 720.045 508.7C776.917 502.598 972.907 297.059 1027.56 228.53Z" fill="#B6B4C7"/>
<path d="M205.617 635.413C204.664 634.254 204.664 634.255 204.663 634.255L204.661 634.257L204.655 634.262L204.635 634.278C204.619 634.292 204.596 634.311 204.566 634.336C204.507 634.386 204.423 634.458 204.317 634.552C204.103 634.739 203.798 635.012 203.424 635.365C202.675 636.07 201.644 637.097 200.5 638.395C198.219 640.982 195.447 644.693 193.588 649.125C191.725 653.567 190.754 658.795 192.189 664.337C193.625 669.886 197.421 675.551 204.725 680.954C208.421 683.688 216.067 687.648 226.79 692.482C237.561 697.336 251.559 703.126 268.061 709.512C301.065 722.286 344.121 737.464 391.462 752.348C413.626 759.317 436.736 766.223 460.201 772.79C460.462 786.685 460.685 801.926 460.873 818.306C461.664 887.113 461.84 975.979 461.629 1069.44C461.207 1256.37 459.235 1461.66 457.532 1561.61C457.519 1562.42 458.158 1563.1 458.973 1563.13C459.787 1563.16 460.479 1562.54 460.529 1561.73L460.532 1561.66L508.958 785.775C519.178 788.351 529.388 790.829 539.54 793.184C540.718 802.582 541.937 812.496 543.192 822.872C551.456 891.186 561.289 979.507 571.236 1072.44C591.13 1258.31 611.48 1462.6 620.649 1562.14C620.724 1562.95 621.433 1563.55 622.246 1563.5C623.06 1563.44 623.679 1562.74 623.641 1561.93L623.636 1561.86L588.309 803.6C621.338 809.988 652.839 814.598 681.007 816.583C705.641 818.318 736.285 818.943 770.927 818.371C798.665 834.566 830.446 856.057 862.289 879.192C929.876 928.295 997.607 984.7 1027.35 1013.35C1027.91 1013.88 1028.78 1013.91 1029.37 1013.41C1029.96 1012.91 1030.07 1012.04 1029.63 1011.41C990.266 954.891 966.031 906.83 951.185 852.924C947.206 838.475 943.9 823.6 941.158 808.022C979.519 804.156 1018.77 799.186 1057.39 793.048C1121.44 782.868 1183.78 769.467 1237.39 752.535C1241.4 759.398 1247.11 768.21 1255.22 779.48C1262.48 789.583 1285.44 829.406 1317.26 886.221C1349.04 942.98 1389.59 1016.58 1432.02 1094.12C1516.86 1249.21 1609.17 1420.05 1653.68 1503.49C1654.06 1504.21 1654.96 1504.49 1655.68 1504.12C1656.41 1503.75 1656.71 1502.86 1656.35 1502.12L1656.32 1502.08L1298.16 774.929C1339.18 809.086 1381.77 842.496 1419.46 867.671C1441.97 882.7 1462.61 885.982 1479.21 879.933C1495.81 873.886 1507.97 858.662 1513.82 837.552C1525.46 795.533 1512.35 729.667 1459.07 662.748C1514.21 575.034 1524.35 505.24 1510.7 462.793C1503.84 441.469 1490.95 426.982 1474.68 420.795C1458.42 414.608 1439.07 416.83 1419.54 428.353C1365.39 460.283 1288.33 517.552 1225.21 575.628C1185.96 560.051 1143.56 547.342 1099.15 537.115C1048.96 525.557 996.172 517.164 942.414 511.386C942.78 485.047 945.568 459.473 950.951 433.228C963.067 374.155 988.346 311.602 1028.9 229.193C1029.24 228.506 1029.01 227.674 1028.36 227.264C1027.71 226.854 1026.86 226.996 1026.38 227.595C999.112 261.794 936.5 330.262 873.593 390.946C842.141 421.286 810.646 449.651 783.48 470.803C769.896 481.38 757.42 490.132 746.592 496.423C743.7 498.104 740.936 499.602 738.309 500.91C737.38 500.909 736.451 500.908 735.523 500.908C662.004 500.908 584.644 512.991 512.438 529.87C506.723 513.409 499.564 493.405 490.665 469.112C437.755 324.67 429.792 258.425 421.838 192.251C418.718 166.3 415.6 140.36 409.773 109.72C409.623 108.929 408.876 108.398 408.08 108.516C407.285 108.634 406.723 109.359 406.808 110.159L449.81 514.797C440.736 504.45 429.335 492.571 414.821 478.658C377.154 442.552 329.603 375.706 288.956 313.409C248.335 251.151 214.704 193.586 204.886 176.152C204.483 175.435 203.578 175.177 202.857 175.573C202.136 175.968 201.869 176.87 202.256 177.595L202.272 177.624L406.169 558.783C396.808 561.669 387.653 564.577 378.732 567.484C327.682 584.123 284.253 600.762 253.584 613.242C238.25 619.482 226.104 624.682 217.79 628.324C213.633 630.145 210.434 631.576 208.273 632.552C207.193 633.041 206.372 633.415 205.82 633.668C205.545 633.794 205.336 633.89 205.197 633.955L205.039 634.028L204.999 634.046L204.988 634.051C204.986 634.052 204.985 634.053 205.617 635.413ZM205.617 635.413L204.664 634.254C204.762 634.174 204.87 634.106 204.985 634.053L205.617 635.413Z" stroke="#F3F3F3" stroke-width="3" stroke-linejoin="round"/>
</g>
<defs>
<clipPath id="clip0_203_2136">
<path d="M0 500C0 223.858 223.858 0 500 0V0C776.142 0 1000 223.858 1000 500V500C1000 776.142 776.142 1000 500 1000V1000C223.858 1000 0 776.142 0 500V500Z" fill="white"/>
</clipPath>
</defs>
</svg>
