<svg width="112" height="105" viewBox="0 0 112 105" fill="none" xmlns="http://www.w3.org/2000/svg">
<path d="M4.00006 44.7987C4.00006 69.5404 28.1767 89.5974 58.0001 89.5974C87.8234 89.5974 112 69.5404 112 44.7987C112 20.0571 87.8234 0 58.0001 0C28.1767 0 4.00006 20.0571 4.00006 44.7987Z" fill="#EEAFC8"/>
<path d="M22 89.5974C22 93.1873 19.0899 96.0974 15.5 96.0974C11.9101 96.0974 9 93.1873 9 89.5974C9 86.0076 11.9101 83.0974 15.5 83.0974C19.0899 83.0974 22 86.0076 22 89.5974Z" fill="#EEAFC8"/>
<path d="M8 101C8 103.209 6.20914 105 4 105C1.79086 105 0 103.209 0 101C0 98.7909 1.79086 97 4 97C6.20914 97 8 98.7909 8 101Z" fill="#EEAFC8"/>
<path d="M52.098 31.8182V58H47.8793L35.5426 40.1662H35.3253V58H30.5824V31.8182H34.8267L47.1506 49.6648H47.3807V31.8182H52.098Z" fill="#FEE2ED"/>
<path d="M62.7468 58.3835C60.8292 58.3835 59.1672 57.9616 57.761 57.1179C56.3547 56.2741 55.2638 55.0938 54.4883 53.5767C53.7212 52.0597 53.3377 50.2869 53.3377 48.2585C53.3377 46.2301 53.7212 44.4531 54.4883 42.9276C55.2638 41.402 56.3547 40.2173 57.761 39.3736C59.1672 38.5298 60.8292 38.108 62.7468 38.108C64.6644 38.108 66.3263 38.5298 67.7326 39.3736C69.1388 40.2173 70.2255 41.402 70.9925 42.9276C71.7681 44.4531 72.1559 46.2301 72.1559 48.2585C72.1559 50.2869 71.7681 52.0597 70.9925 53.5767C70.2255 55.0938 69.1388 56.2741 67.7326 57.1179C66.3263 57.9616 64.6644 58.3835 62.7468 58.3835ZM62.7723 54.6761C63.8121 54.6761 64.6814 54.3906 65.3803 53.8196C66.0792 53.2401 66.599 52.4645 66.94 51.4929C67.2894 50.5213 67.4641 49.4389 67.4641 48.2457C67.4641 47.044 67.2894 45.9574 66.94 44.9858C66.599 44.0057 66.0792 43.2259 65.3803 42.6463C64.6814 42.0668 63.8121 41.777 62.7723 41.777C61.707 41.777 60.8206 42.0668 60.1133 42.6463C59.4144 43.2259 58.8902 44.0057 58.5408 44.9858C58.1999 45.9574 58.0294 47.044 58.0294 48.2457C58.0294 49.4389 58.1999 50.5213 58.5408 51.4929C58.8902 52.4645 59.4144 53.2401 60.1133 53.8196C60.8206 54.3906 61.707 54.6761 62.7723 54.6761Z" fill="#FEE2ED"/>
<path d="M76.0546 58.2812C75.2791 58.2812 74.6143 58.0085 74.0603 57.4631C73.5063 56.9176 73.2336 56.2528 73.2421 55.4688C73.2336 54.7017 73.5063 54.0455 74.0603 53.5C74.6143 52.9545 75.2791 52.6818 76.0546 52.6818C76.8046 52.6818 77.4566 52.9545 78.0106 53.5C78.5731 54.0455 78.8586 54.7017 78.8671 55.4688C78.8586 55.9886 78.7222 56.4616 78.458 56.8878C78.2024 57.3139 77.8614 57.6548 77.4353 57.9105C77.0177 58.1577 76.5575 58.2812 76.0546 58.2812Z" fill="#FEE2ED"/>
<path d="M83.616 58.2812C82.8405 58.2812 82.1757 58.0085 81.6217 57.4631C81.0677 56.9176 80.795 56.2528 80.8035 55.4688C80.795 54.7017 81.0677 54.0455 81.6217 53.5C82.1757 52.9545 82.8405 52.6818 83.616 52.6818C84.366 52.6818 85.018 52.9545 85.572 53.5C86.1345 54.0455 86.42 54.7017 86.4285 55.4688C86.42 55.9886 86.2837 56.4616 86.0194 56.8878C85.7638 57.3139 85.4229 57.6548 84.9967 57.9105C84.5791 58.1577 84.1189 58.2812 83.616 58.2812Z" fill="#FEE2ED"/>
<path d="M91.1774 58.2812C90.4019 58.2812 89.7371 58.0085 89.1831 57.4631C88.6291 56.9176 88.3564 56.2528 88.3649 55.4688C88.3564 54.7017 88.6291 54.0455 89.1831 53.5C89.7371 52.9545 90.4019 52.6818 91.1774 52.6818C91.9274 52.6818 92.5794 52.9545 93.1334 53.5C93.6959 54.0455 93.9814 54.7017 93.9899 55.4688C93.9814 55.9886 93.8451 56.4616 93.5808 56.8878C93.3252 57.3139 92.9843 57.6548 92.5581 57.9105C92.1405 58.1577 91.6803 58.2812 91.1774 58.2812Z" fill="#FEE2ED"/>
</svg>
