<svg width="260" height="258" viewBox="0 0 260 258" fill="none" xmlns="http://www.w3.org/2000/svg">
<path d="M201 100.631C185.983 118.6 117.768 124.612 91.9886 122.795C66.2089 120.979 22.3835 104.991 17.9641 101.721C13.5448 98.4505 17.9642 94.8169 17.9642 94.8169C17.9642 94.8169 62.5261 74.1055 100.459 74.1055C138.392 74.1055 179.829 80.2826 201 100.631Z" fill="#B6B4C7"/>
<path d="M17.6469 23.4157L57.2245 97.4201L63.4656 89.536C60.6821 84.4847 62.1424 81.8623 50.3711 70.5758C38.5998 59.2893 20.7083 28.8532 17.6469 23.4157Z" fill="#B6B4C7"/>
<path d="M212.814 99.0894C229.516 119.946 220.918 140.045 207.064 130.79C193.21 121.535 175.094 105.115 166 96.9159C175.884 84.894 195.085 69.8413 207.064 62.7748C219.043 55.7083 230.105 71.6922 212.814 99.0894Z" fill="#B6B4C7"/>
<path d="M45 92.6055C45 94.5385 44.1046 96.1055 43 96.1055C41.8954 96.1055 41 94.5385 41 92.6055C41 90.6725 41.8954 89.1055 43 89.1055C44.1046 89.1055 45 90.6725 45 92.6055Z" fill="white"/>
<path d="M49.5176 13L58.384 96.4531L67.1305 91.4922C66.4492 85.7651 73.5965 100.337 62.1208 69.0009C50.6451 37.6652 52.73 29.897 49.5176 13Z" fill="#B6B4C7"/>
<path d="M57.4155 239.047L66.8914 87.1789L57.2436 93.7138C57.2436 93.7138 55.8438 94.6759 57.2436 102.923C58.6434 111.17 57.9457 207.917 57.4155 239.047Z" fill="#B6B4C7"/>
<path d="M82.8083 239.104L75.7282 87.1055L66.8475 94.6498C66.8475 94.6498 65.5605 95.7584 67.8481 103.805C70.1356 111.851 79.9532 208.101 82.8083 239.104Z" fill="#B6B4C7"/>
<path d="M243.602 229.883L179.992 100.706L177.363 109.481C177.363 109.481 176.987 110.766 181.554 117.114C186.12 123.463 229.743 203.896 243.602 229.883Z" fill="#B6B4C7"/>
<path d="M146.053 153.5C133.776 135.867 130.906 123.469 130.364 98.4893L91.3441 116.131C91.3441 116.131 85.6879 118.694 94.764 118.517C103.84 118.34 136.771 144.559 146.053 153.5Z" fill="#B6B4C7"/>
<path d="M145.922 31.4575C133.29 57.1327 130.138 70.5066 133.936 91.9122L94.8606 78.051C94.8606 78.051 89.196 76.0354 98.0496 75.0852C106.903 74.1351 137.415 42.1287 145.922 31.4575Z" fill="#B6B4C7"/>
<path d="M17.9642 94.8169C17.0115 93.6582 17.011 93.6587 17.0104 93.6591L17.0092 93.6601L17.0065 93.6624L16.9998 93.668L16.9816 93.6833C16.9674 93.6953 16.9491 93.711 16.9272 93.7302C16.8833 93.7687 16.8245 93.8215 16.7542 93.8877C16.6141 94.0198 16.4255 94.2077 16.2174 94.4439C15.8095 94.9067 15.2848 95.6012 14.9236 96.4623C14.5582 97.3336 14.3368 98.4371 14.6476 99.6381C14.9603 100.847 15.7607 101.956 17.0719 102.926C17.7719 103.444 19.0831 104.111 20.7398 104.858C22.4442 105.626 24.6461 106.537 27.2281 107.537C32.394 109.536 39.1229 111.909 46.5162 114.234C49.6887 115.232 52.9901 116.223 56.3482 117.173C56.3815 119.075 56.4106 121.127 56.4357 123.311C56.5587 134.017 56.5862 147.849 56.5533 162.401C56.4876 191.504 56.1807 223.466 55.9157 239.022C55.9018 239.837 56.5414 240.514 57.356 240.546C58.1705 240.578 58.8618 239.954 58.9126 239.141L66.3572 119.828C67.1731 120.029 67.9881 120.225 68.8013 120.417C68.9503 121.615 69.1033 122.864 69.26 124.16C70.5455 134.789 72.0755 148.536 73.6239 163.005C76.7205 191.943 79.8879 223.749 81.3146 239.242C81.3893 240.054 82.0987 240.657 82.9119 240.601C83.7252 240.544 84.3446 239.849 84.3066 239.034L78.8808 122.548C83.4932 123.397 87.8959 124.011 91.8831 124.292C95.6708 124.559 100.353 124.658 105.636 124.579C109.831 127.049 114.625 130.297 119.449 133.802C129.941 141.427 140.436 150.172 145.012 154.581C145.568 155.116 146.439 155.142 147.026 154.642C147.613 154.141 147.725 153.277 147.284 152.643C141.215 143.926 137.517 136.572 135.254 128.351C134.761 126.559 134.334 124.721 133.966 122.815C139.527 122.232 145.19 121.501 150.766 120.614C160.398 119.083 169.811 117.081 178.018 114.559C178.612 115.515 179.37 116.647 180.336 117.99C181.414 119.489 184.941 125.602 189.917 134.491C194.862 143.324 201.173 154.781 207.777 166.854C220.984 191.001 235.352 217.601 242.278 230.589C242.664 231.312 243.557 231.592 244.286 231.218C245.015 230.844 245.309 229.955 244.948 229.221L191.771 121.233C196.733 125.236 201.704 129.013 206.231 132.037C209.95 134.521 213.587 135.206 216.669 134.083C219.745 132.962 221.858 130.189 222.843 126.632C224.755 119.73 222.642 109.376 214.643 98.9898C222.911 85.533 224.591 74.542 222.343 67.5491C221.185 63.9472 218.948 61.3422 215.981 60.2131C213.013 59.0837 209.597 59.5387 206.302 61.4829C197.98 66.392 186.214 75.1073 176.421 84.0396C170.443 81.7159 164.031 79.8143 157.352 78.2758C149.845 76.5468 141.974 75.2705 133.96 74.3714C134.075 70.7467 134.495 67.2076 135.237 63.5872C137.09 54.5499 140.968 44.9255 147.268 32.1197C147.606 31.4324 147.372 30.6009 146.726 30.1907C146.079 29.7805 145.227 29.9235 144.749 30.5224C140.548 35.7921 130.842 46.4126 121.074 55.8373C116.193 60.5476 111.326 64.9301 107.147 68.1848C105.056 69.8132 103.164 71.1385 101.546 72.0786C101.209 72.2744 100.89 72.4497 100.59 72.6055C100.546 72.6055 100.503 72.6055 100.459 72.6055C89.2733 72.6055 77.5448 74.3818 66.5513 76.8921C65.7255 74.5359 64.728 71.7582 63.5293 68.4851C55.3453 46.1377 54.1272 35.9954 52.8941 25.7284C52.4063 21.6663 51.9161 17.5846 50.9912 12.7198C50.8409 11.9295 50.0939 11.3984 49.298 11.5161C48.5022 11.6339 47.941 12.3585 48.0259 13.1585L54.3176 72.3766C53.4452 71.4781 52.4798 70.5196 51.4092 69.4931C45.6634 63.9839 38.3316 53.6908 31.9991 43.9828C25.6921 34.3139 20.4707 25.3738 18.954 22.6798C18.5507 21.9634 17.6459 21.7052 16.9252 22.1007C16.2045 22.4962 15.9365 23.3982 16.3242 24.1231L47.3465 82.1304C46.3894 82.4314 45.4474 82.7333 44.5218 83.0351C36.5401 85.6372 29.7503 88.2392 24.9542 90.1914C22.5557 91.1677 20.6546 91.9819 19.351 92.553C18.6993 92.8386 18.1968 93.0634 17.8561 93.2174C17.6858 93.2944 17.5559 93.3536 17.468 93.3939L17.3679 93.44L17.3418 93.452L17.3348 93.4553L17.3329 93.4562C17.3323 93.4564 17.3319 93.4566 17.9642 94.8169ZM17.9642 94.8169L17.0115 93.6582C17.1094 93.5778 17.217 93.51 17.3319 93.4566L17.9642 94.8169Z" stroke="#F3F3F3" stroke-width="3" stroke-linejoin="round"/>
</svg>
